<?xml version="1.0" encoding="UTF-8"?>
<!DOCTYPE svg PUBLIC "-//W3C//DTD SVG 1.1//EN" "http://www.w3.org/Graphics/SVG/1.1/DTD/svg11.dtd">
<!-- Creator: CorelDRAW Home & Student X8 -->
<svg xmlns="http://www.w3.org/2000/svg" xml:space="preserve" width="165.1mm" height="45.2mm" version="1.1" style="shape-rendering:geometricPrecision; text-rendering:geometricPrecision; image-rendering:optimizeQuality; fill-rule:evenodd; clip-rule:evenodd"
viewBox="0 0 31259 8558"
 xmlns:xlink="http://www.w3.org/1999/xlink">
 <defs>
  <style type="text/css">
   <![CDATA[
    .str1 {stroke:black;stroke-width:37.867}
    .str0 {stroke:black;stroke-width:37.867}
    .str2 {stroke:black;stroke-width:37.867;stroke-linejoin:bevel}
    .fil8 {fill:black}
    .fil12 {fill:#99FFFF}
    .fil3 {fill:#CCCCCC}
    .fil10 {fill:#E6E6E6}
    .fil0 {fill:#F4F4F4}
    .fil7 {fill:#FF6600}
    .fil4 {fill:#FF6600}
    .fil11 {fill:#FFFF99}
    .fil9 {fill:white}
    .fil6 {fill:black;fill-rule:nonzero}
    .fil1 {fill:#003399;fill-rule:nonzero}
    .fil5 {fill:red;fill-rule:nonzero}
    .fil2 {fill:#FF6600;fill-rule:nonzero}
    .fnt1 {font-weight:normal;font-size:375.697px;font-family:'Arial'}
    .fnt0 {font-weight:normal;font-size:667.917px;font-family:'Arial'}
   ]]>
  </style>
 </defs>
 <g id="Ebene_x0020_1">
  <metadata id="CorelCorpID_0Corel-Layer"/>
  <rect class="fil0 str0" x="12326" y="19" width="14200" height="8520" rx="473" ry="568"/>
  <rect class="fil0 str0" x="19" y="19" width="5680" height="8520" rx="284" ry="852"/>
  <g>
   <path class="fil1" d="M18225 4894l-1166 0 0 -284 1166 0 0 284zm726 -142l-736 368 0 -736 736 368z"/>
  </g>
  <g>
   <path class="fil2" d="M12545 4894l-7793 0 0 -284 7793 0 0 284zm726 -142l-736 368 0 -736 736 368z"/>
  </g>
  <g>
   <ellipse class="fil3" cx="7830" cy="4984" rx="1150" ry="767"/>
   <ellipse class="fil3" cx="8425" cy="4101" rx="978" ry="651"/>
   <ellipse class="fil3" cx="9172" cy="4984" rx="1342" ry="767"/>
   <ellipse class="fil3" cx="9414" cy="4241" rx="530" ry="435"/>
  </g>
  <text x="7722" y="4614"  class="fil4 fnt0">HTTP</text>
  <text x="7552" y="5361"  class="fil4 fnt0">Port 80</text>
  <g>
   <ellipse class="fil3" cx="28576" cy="6286" rx="1150" ry="767"/>
   <ellipse class="fil3" cx="29171" cy="5403" rx="978" ry="651"/>
   <ellipse class="fil3" cx="29917" cy="6286" rx="1342" ry="767"/>
   <ellipse class="fil3" cx="30160" cy="5543" rx="530" ry="435"/>
  </g>
  <g>
   <path class="fil5" d="M27279 6314l-4540 0 0 -284 4540 0 0 284zm726 -142l-736 368 0 -736 736 368z"/>
  </g>
  <g>
   <rect class="fil3" x="23738" y="2188" width="184" height="184"/>
   <rect class="fil3" x="23738" y="2557" width="184" height="184"/>
   <rect class="fil3" x="23738" y="2925" width="184" height="184"/>
   <rect class="fil3" x="23738" y="3293" width="184" height="184"/>
   <rect class="fil3" x="23738" y="3661" width="184" height="184"/>
   <rect class="fil3" x="23738" y="4029" width="184" height="184"/>
   <rect class="fil3" x="23738" y="4397" width="184" height="184"/>
   <rect class="fil3" x="23738" y="4765" width="184" height="184"/>
   <rect class="fil3" x="25395" y="2557" width="184" height="184"/>
   <rect class="fil3" x="25395" y="2925" width="184" height="184"/>
   <rect class="fil3" x="25395" y="3293" width="184" height="184"/>
   <rect class="fil3" x="25395" y="3661" width="184" height="184"/>
   <rect class="fil3" x="25395" y="4029" width="184" height="184"/>
   <rect class="fil3" x="25395" y="4397" width="184" height="184"/>
   <rect class="fil3" x="25395" y="4765" width="184" height="184"/>
   <rect class="fil3" x="25395" y="2188" width="184" height="184"/>
   <path class="fil3" d="M23922 1912l553 0c0,102 82,184 184,184 101,0 184,-82 184,-184l552 0 0 3314 -1473 0 0 -3314z"/>
  </g>
  <g>
   <path class="fil6" d="M23905 3474l-1166 0 0 -284 1166 0 0 284zm726 -142l-736 368 0 -736 736 368z"/>
  </g>
  <rect class="fil7 str1" x="966" y="1912" width="3787" height="5680"/>
  <text x="1635" y="3619"  class="fil8 fnt0">Browser</text>
  <text x="1309" y="1301"  class="fil8 fnt0">Admin </text>
  <text x="3400" y="1301"  class="fil8 fnt0">PC</text>
  <g>
   <polygon class="fil9 str1" points="2147,4501 3478,4501 3744,4767 3744,6631 2147,6631 "/>
   <polygon class="fil10 str2" points="3478,4767 3478,4501 3744,4767 "/>
  </g>
  <text x="2415" y="5699"  class="fil8 fnt1">HTML</text>
  <rect class="fil11 str1" x="18952" y="1912" width="3787" height="5680"/>
  <text x="20364" y="3619"  class="fil8 fnt0">IoT</text>
  <text x="20234" y="4365"  class="fil8 fnt0">Part</text>
  <text x="19802" y="1301"  class="fil8 fnt0">Device</text>
  <rect class="fil12 str1" x="13272" y="1912" width="3787" height="5680"/>
  <text x="14486" y="3619"  class="fil8 fnt0">Web</text>
  <text x="14554" y="4365"  class="fil8 fnt0">Part</text>
 </g>
</svg>
