<?xml version="1.0" encoding="UTF-8"?>
<!DOCTYPE svg PUBLIC "-//W3C//DTD SVG 1.1//EN" "http://www.w3.org/Graphics/SVG/1.1/DTD/svg11.dtd">
<!-- Creator: CorelDRAW Home & Student X8 -->
<svg xmlns="http://www.w3.org/2000/svg" xml:space="preserve" width="70.1mm" height="45.2mm" version="1.1" style="shape-rendering:geometricPrecision; text-rendering:geometricPrecision; image-rendering:optimizeQuality; fill-rule:evenodd; clip-rule:evenodd"
viewBox="0 0 1773 1143"
 xmlns:xlink="http://www.w3.org/1999/xlink">
 <defs>
  <style type="text/css">
   <![CDATA[
    .str1 {stroke:black;stroke-width:5.05772}
    .str0 {stroke:black;stroke-width:5.05772}
    .fil7 {fill:black}
    .fil1 {fill:#CCCCCC}
    .fil0 {fill:#F4F4F4}
    .fil5 {fill:red}
    .fil6 {fill:#FFFF99}
    .fil3 {fill:black;fill-rule:nonzero}
    .fil4 {fill:#003399;fill-rule:nonzero}
    .fil2 {fill:red;fill-rule:nonzero}
    .fnt0 {font-weight:normal;font-size:89.2106px;font-family:'Arial'}
   ]]>
  </style>
 </defs>
 <g id="Ebene_x0020_1">
  <metadata id="CorelCorpID_0Corel-Layer"/>
  <rect class="fil0 str0" x="3" y="3" width="1138" height="1138" rx="38" ry="76"/>
  <g id="_133816184">
   <ellipse class="fil1" cx="1414" cy="840" rx="154" ry="102"/>
   <ellipse class="fil1" cx="1494" cy="722" rx="131" ry="87"/>
   <ellipse class="fil1" cx="1594" cy="840" rx="179" ry="102"/>
   <ellipse class="fil1" cx="1626" cy="740" rx="71" ry="58"/>
  </g>
  <g>
   <path class="fil2" d="M1241 843l-606 0 0 -38 606 0 0 38zm97 -19l-98 50 0 -99 98 49z"/>
  </g>
  <g>
   <rect class="fil1" x="768" y="261" width="24.5861" height="24.5861"/>
   <rect class="fil1" x="768" y="310" width="24.5861" height="24.5861"/>
   <rect class="fil1" x="768" y="359" width="24.5861" height="24.5861"/>
   <rect class="fil1" x="768" y="408" width="24.5861" height="24.5861"/>
   <rect class="fil1" x="768" y="457" width="24.5861" height="24.5861"/>
   <rect class="fil1" x="768" y="507" width="24.5861" height="24.5861"/>
   <rect class="fil1" x="768" y="556" width="24.5861" height="24.5861"/>
   <rect class="fil1" x="768" y="605" width="24.5861" height="24.5861"/>
   <rect class="fil1" x="989" y="310" width="24.5861" height="24.5861"/>
   <rect class="fil1" x="989" y="359" width="24.5861" height="24.5861"/>
   <rect class="fil1" x="989" y="408" width="24.5861" height="24.5861"/>
   <rect class="fil1" x="989" y="457" width="24.5861" height="24.5861"/>
   <rect class="fil1" x="989" y="507" width="24.5861" height="24.5861"/>
   <rect class="fil1" x="989" y="556" width="24.5861" height="24.5861"/>
   <rect class="fil1" x="989" y="605" width="24.5861" height="24.5861"/>
   <rect class="fil1" x="989" y="261" width="24.5861" height="24.5861"/>
   <path class="fil1" d="M793 224l74 0c0,13 11,24 24,24 14,0 25,-11 25,-24l73 0 0 442 -196 0 0 -442z"/>
  </g>
  <g>
   <path class="fil3" d="M790 464l-155 0 0 -38 155 0 0 38zm97 -19l-98 49 0 -98 98 49z"/>
  </g>
  <g>
   <path class="fil4" d="M32 654l-29 0 0 -38 29 0 0 38zm97 -19l-99 49 0 -98 99 49z"/>
  </g>
  <text x="1390" y="787"  class="fil5 fnt0">HTTP</text>
  <text x="1623" y="787"  class="fil5 fnt0">,</text>
  <text x="1392" y="886"  class="fil5 fnt0">MQTT</text>
  <rect class="fil6 str1" x="129" y="255" width="506" height="759"/>
  <text x="318" y="483"  class="fil7 fnt0">IoT</text>
  <text x="300" y="583"  class="fil7 fnt0">Part</text>
  <text x="242" y="174"  class="fil7 fnt0">Device</text>
 </g>
</svg>
