<?xml version="1.0" encoding="UTF-8"?>
<!DOCTYPE svg PUBLIC "-//W3C//DTD SVG 1.1//EN" "http://www.w3.org/Graphics/SVG/1.1/DTD/svg11.dtd">
<!-- Creator: CorelDRAW Home & Student X8 -->
<svg xmlns="http://www.w3.org/2000/svg" xml:space="preserve" width="45.2mm" height="45.2mm" version="1.1" style="shape-rendering:geometricPrecision; text-rendering:geometricPrecision; image-rendering:optimizeQuality; fill-rule:evenodd; clip-rule:evenodd"
viewBox="0 0 737 737"
 xmlns:xlink="http://www.w3.org/1999/xlink">
 <defs>
  <style type="text/css">
   <![CDATA[
    .str1 {stroke:black;stroke-width:3.26118}
    .str0 {stroke:black;stroke-width:3.26118}
    .fil4 {fill:black}
    .fil5 {fill:gray}
    .fil1 {fill:#CCCCCC}
    .fil0 {fill:#F4F4F4}
    .fil7 {fill:#FFFF99}
    .fil2 {fill:black;fill-rule:nonzero}
    .fil3 {fill:#003399;fill-rule:nonzero}
    .fil6 {fill:red;fill-rule:nonzero}
    .fnt0 {font-weight:normal;font-size:57.5224px;font-family:'Arial'}
   ]]>
  </style>
 </defs>
 <g id="Ebene_x0020_1">
  <metadata id="CorelCorpID_0Corel-Layer"/>
  <rect class="fil0 str0" x="2" y="2" width="734" height="734" rx="24" ry="49"/>
  <g id="_716521208">
   <rect class="fil1" x="495" y="168" width="15.853" height="15.853"/>
   <rect class="fil1" x="495" y="200" width="15.853" height="15.853"/>
   <rect class="fil1" x="495" y="231" width="15.853" height="15.853"/>
   <rect class="fil1" x="495" y="263" width="15.853" height="15.853"/>
   <rect class="fil1" x="495" y="295" width="15.853" height="15.853"/>
   <rect class="fil1" x="495" y="327" width="15.853" height="15.853"/>
   <rect class="fil1" x="495" y="358" width="15.853" height="15.853"/>
   <rect class="fil1" x="495" y="390" width="15.853" height="15.853"/>
   <rect class="fil1" x="638" y="200" width="15.853" height="15.853"/>
   <rect class="fil1" x="638" y="231" width="15.853" height="15.853"/>
   <rect class="fil1" x="638" y="263" width="15.853" height="15.853"/>
   <rect class="fil1" x="638" y="295" width="15.853" height="15.853"/>
   <rect class="fil1" x="638" y="327" width="15.853" height="15.853"/>
   <rect class="fil1" x="638" y="358" width="15.853" height="15.853"/>
   <rect class="fil1" x="638" y="390" width="15.853" height="15.853"/>
   <rect class="fil1" x="638" y="168" width="15.853" height="15.853"/>
   <path class="fil1" d="M511 144l48 0c0,9 7,16 16,16 8,0 15,-7 15,-16l48 0 0 286 -127 0 0 -286z"/>
  </g>
  <g>
   <path class="fil2" d="M510 299l-101 0 0 -24 101 0 0 24zm62 -12l-63 32 0 -64 63 32z"/>
  </g>
  <g>
   <path class="fil3" d="M20 422l-18 0 0 -25 18 0 0 25zm63 -13l-63 32 0 -63 63 31z"/>
  </g>
  <text x="156" y="112"  class="fil4 fnt0">Device</text>
  <g>
   <ellipse class="fil5" cx="572" cy="472" rx="89" ry="27"/>
   <path class="fil5" d="M662 525c0,15 -40,27 -90,27 -49,0 -89,-12 -89,-27l0 -34c18,11 51,18 89,18 38,0 72,-7 90,-18l0 34z"/>
   <path class="fil5" d="M662 579c0,15 -40,26 -90,26 -49,0 -89,-11 -89,-26l0 -35c18,11 51,19 89,19 38,0 72,-8 90,-19l0 35z"/>
   <path class="fil5" d="M662 632c0,15 -40,27 -90,27 -49,0 -89,-12 -89,-27l0 -34c18,11 51,18 89,18 38,0 72,-7 90,-18l0 34z"/>
  </g>
  <g>
   <path class="fil6" d="M510 544l-101 0 0 -25 101 0 0 25zm62 -12l-63 31 0 -63 63 32z"/>
  </g>
  <rect class="fil7 str1" x="83" y="165" width="326" height="489"/>
  <text x="205" y="312"  class="fil4 fnt0">IoT</text>
  <text x="194" y="376"  class="fil4 fnt0">Part</text>
 </g>
</svg>
