<?xml version="1.0" encoding="UTF-8"?>
<!DOCTYPE svg PUBLIC "-//W3C//DTD SVG 1.1//EN" "http://www.w3.org/Graphics/SVG/1.1/DTD/svg11.dtd">
<!-- Creator: CorelDRAW Home & Student X8 -->
<svg xmlns="http://www.w3.org/2000/svg" xml:space="preserve" width="253.245mm" height="172.569mm" version="1.1" style="shape-rendering:geometricPrecision; text-rendering:geometricPrecision; image-rendering:optimizeQuality; fill-rule:evenodd; clip-rule:evenodd"
viewBox="0 0 26393 17985"
 xmlns:xlink="http://www.w3.org/1999/xlink">
 <defs>
  <style type="text/css">
   <![CDATA[
    .str1 {stroke:black;stroke-width:78.1641}
    .str0 {stroke:black;stroke-width:20.8437}
    .str2 {stroke:black;stroke-width:20.8437}
    .fil3 {fill:none}
    .fil8 {fill:black}
    .fil17 {fill:#003399}
    .fil24 {fill:#663333}
    .fil14 {fill:gray}
    .fil23 {fill:#999999}
    .fil10 {fill:#AFDBAF}
    .fil12 {fill:#B3B3B3}
    .fil0 {fill:#CCCCCC}
    .fil1 {fill:#CCFFCC}
    .fil7 {fill:#E6E6E6}
    .fil13 {fill:#FF3399}
    .fil18 {fill:#FF3399}
    .fil2 {fill:#FF6600}
    .fil19 {fill:#FFCC99}
    .fil9 {fill:#FFFF99}
    .fil25 {fill:white}
    .fil5 {fill:black;fill-rule:nonzero}
    .fil6 {fill:black;fill-rule:nonzero}
    .fil15 {fill:#003399;fill-rule:nonzero}
    .fil20 {fill:#666666;fill-rule:nonzero}
    .fil21 {fill:#999999;fill-rule:nonzero}
    .fil4 {fill:#AFDBAF;fill-rule:nonzero}
    .fil11 {fill:#B3B3B3;fill-rule:nonzero}
    .fil22 {fill:#DDDDDD;fill-rule:nonzero}
    .fil16 {fill:red;fill-rule:nonzero}
    .fnt5 {font-weight:normal;font-size:122.54px;font-family:'Arial'}
    .fnt3 {font-weight:normal;font-size:147.063px;font-family:'Arial'}
    .fnt1 {font-weight:normal;font-size:274.721px;font-family:'Arial'}
    .fnt0 {font-weight:normal;font-size:367.652px;font-family:'Arial'}
    .fnt4 {font-weight:bold;font-size:514.726px;font-family:'Arial'}
    .fnt6 {font-weight:normal;font-size:555.528px;font-family:'Arial'}
    .fnt2 {font-weight:normal;font-size:1111.07px;font-family:'Arial'}
   ]]>
  </style>
 </defs>
 <g id="Ebene_x0020_1">
  <metadata id="CorelCorpID_0Corel-Layer"/>
  <g id="_715187112">
   <ellipse class="fil0" cx="24916" cy="8006" rx="633" ry="422"/>
   <ellipse class="fil0" cx="25243" cy="7520" rx="539" ry="358"/>
   <ellipse class="fil0" cx="25654" cy="8006" rx="739" ry="422"/>
   <ellipse class="fil0" cx="25788" cy="7597" rx="292" ry="240"/>
  </g>
  <g id="_715187280">
   <rect class="fil0" x="25339" y="4187" width="101" height="101"/>
   <rect class="fil0" x="25339" y="4390" width="101" height="101"/>
   <rect class="fil0" x="25339" y="4593" width="101" height="101"/>
   <rect class="fil0" x="25339" y="4795" width="101" height="101"/>
   <rect class="fil0" x="25339" y="4998" width="101" height="101"/>
   <rect class="fil0" x="25339" y="5200" width="101" height="101"/>
   <rect class="fil0" x="25339" y="5403" width="101" height="101"/>
   <rect class="fil0" x="25339" y="5606" width="101" height="101"/>
   <rect class="fil0" x="26251" y="4390" width="101" height="101"/>
   <rect class="fil0" x="26251" y="4593" width="101" height="101"/>
   <rect class="fil0" x="26251" y="4795" width="101" height="101"/>
   <rect class="fil0" x="26251" y="4998" width="101" height="101"/>
   <rect class="fil0" x="26251" y="5200" width="101" height="101"/>
   <rect class="fil0" x="26251" y="5403" width="101" height="101"/>
   <rect class="fil0" x="26251" y="5606" width="101" height="101"/>
   <rect class="fil0" x="26251" y="4187" width="101" height="101"/>
   <path class="fil0" d="M25441 4035l304 0c0,56 45,102 101,102 56,0 101,-46 101,-102l304 0 0 1824 -810 0 0 -1824z"/>
  </g>
  <g id="_715191408">
   <rect class="fil0" x="25339" y="1061" width="101" height="101"/>
   <rect class="fil0" x="25339" y="1263" width="101" height="101"/>
   <rect class="fil0" x="25339" y="1466" width="101" height="101"/>
   <rect class="fil0" x="25339" y="1669" width="101" height="101"/>
   <rect class="fil0" x="25339" y="1871" width="101" height="101"/>
   <rect class="fil0" x="25339" y="2074" width="101" height="101"/>
   <rect class="fil0" x="25339" y="2277" width="101" height="101"/>
   <rect class="fil0" x="25339" y="2479" width="101" height="101"/>
   <rect class="fil0" x="26251" y="1263" width="101" height="101"/>
   <rect class="fil0" x="26251" y="1466" width="101" height="101"/>
   <rect class="fil0" x="26251" y="1669" width="101" height="101"/>
   <rect class="fil0" x="26251" y="1871" width="101" height="101"/>
   <rect class="fil0" x="26251" y="2074" width="101" height="101"/>
   <rect class="fil0" x="26251" y="2277" width="101" height="101"/>
   <rect class="fil0" x="26251" y="2479" width="101" height="101"/>
   <rect class="fil0" x="26251" y="1061" width="101" height="101"/>
   <path class="fil0" d="M25441 909l304 0c0,56 45,101 101,101 56,0 101,-45 101,-101l304 0 0 1824 -810 0 0 -1824z"/>
  </g>
  <rect class="fil1 str0" x="16987" y="7553" width="4429" height="1042"/>
  <rect class="fil2 str0" x="19736" y="7683" width="756" height="782" rx="124" ry="128"/>
  <line class="fil3 str1" x1="15424" y1="11200" x2="16727" y2= "11200" />
  <g>
   <path class="fil4" d="M8611 6831l0 -1363 78 0 0 1363 -78 0zm39 200l-101 -202 202 0 -101 202z"/>
  </g>
  <g>
   <path class="fil4" d="M8611 9958l0 -1363 78 0 0 1363 -78 0zm39 200l-101 -203 202 0 -101 203z"/>
  </g>
  <g>
   <path class="fil4" d="M8611 13605l0 -1884 78 0 0 1884 -78 0zm39 200l-101 -202 202 0 -101 202z"/>
  </g>
  <g>
   <path class="fil4" d="M14942 3384l0 521 -78 0 0 -521 39 -39 39 39zm-78 0l0 -39 39 0 -39 39zm2644 39l-2605 0 0 -78 2605 0 40 39 -40 39zm0 -78l40 0 0 39 -40 -39zm-39 360l0 -321 79 0 0 321 -79 0zm39 200l-101 -203 203 0 -102 203z"/>
  </g>
  <g>
   <path class="fil4" d="M14942 6510l0 522 -78 0 0 -522 39 -39 39 39zm-78 0l0 -39 39 0 -39 39zm2644 40l-2605 0 0 -79 2605 0 40 39 -40 40zm0 -79l40 0 0 39 -40 -39zm-39 360l0 -321 79 0 0 321 -79 0zm39 200l-101 -202 203 0 -102 202z"/>
  </g>
  <g>
   <path class="fil4" d="M14942 9637l0 521 -78 0 0 -521 39 -39 39 39zm-78 0l0 -39 39 0 -39 39zm2644 39l-2605 0 0 -78 2605 0 40 39 -40 39zm0 -78l40 0 0 39 -40 -39zm-39 360l0 -321 79 0 0 321 -79 0zm39 200l-101 -203 203 0 -102 203z"/>
  </g>
  <g>
   <path class="fil4" d="M6083 3384l0 521 -78 0 0 -521 39 -39 39 39zm-78 0l0 -39 39 0 -39 39zm2645 39l-2606 0 0 -78 2606 0 39 39 -39 39zm0 -78l39 0 0 39 -39 -39zm-39 360l0 -321 78 0 0 321 -78 0zm39 200l-101 -203 202 0 -101 203z"/>
  </g>
  <line class="fil3 str1" x1="15424" y1="4947" x2="16727" y2= "4947" />
  <rect class="fil1 str0" x="16987" y="10679" width="4429" height="1042"/>
  <g>
   <path class="fil5" d="M17730 12042l0 -581 78 0 0 581 -78 0zm39 200l-101 -202 202 0 -101 202z"/>
  </g>
  <g>
   <path class="fil5" d="M17990 12303l0 -582 79 0 0 582 -79 0zm40 200l-102 -203 203 0 -101 203z"/>
  </g>
  <rect class="fil2 str0" x="18954" y="10809" width="756" height="782" rx="124" ry="128"/>
  <rect class="fil2 str0" x="19736" y="10809" width="756" height="782" rx="124" ry="128"/>
  <rect class="fil1 str0" x="16727" y="10419" width="4429" height="1042"/>
  <g>
   <path class="fil5" d="M17469 11782l0 -582 78 0 0 582 -78 0zm39 200l-101 -203 203 0 -102 203z"/>
  </g>
  <rect class="fil1 str0" x="16466" y="10158" width="4429" height="1042"/>
  <rect class="fil2 str0" x="18433" y="10288" width="756" height="782" rx="124" ry="128"/>
  <text x="19192" y="10027"  class="fil2 fnt0">Instances</text>
  <rect class="fil1 str0" x="16987" y="4426" width="4429" height="1042"/>
  <g>
   <path class="fil6" d="M22519 4986l-1884 0 0 -78 1884 0 0 78zm200 -39l-203 101 0 -202 203 101z"/>
  </g>
  <g>
   <path class="fil5" d="M17730 5789l0 -581 78 0 0 581 -78 0zm39 200l-101 -203 202 0 -101 203z"/>
  </g>
  <g>
   <path class="fil5" d="M17990 6050l0 -582 79 0 0 582 -79 0zm40 200l-102 -203 203 0 -101 203z"/>
  </g>
  <rect class="fil2 str0" x="18954" y="4556" width="756" height="782" rx="124" ry="128"/>
  <rect class="fil1 str0" x="16727" y="4166" width="4429" height="1042"/>
  <g>
   <path class="fil5" d="M17469 5529l0 -582 78 0 0 582 -78 0zm39 199l-101 -202 203 0 -102 202z"/>
  </g>
  <rect class="fil2 str0" x="18694" y="4296" width="756" height="782" rx="124" ry="128"/>
  <rect class="fil2 str0" x="19476" y="4296" width="756" height="782" rx="124" ry="128"/>
  <rect class="fil2 str0" x="20257" y="4296" width="756" height="782" rx="124" ry="128"/>
  <rect class="fil1 str0" x="16466" y="3905" width="4429" height="1042"/>
  <rect class="fil2 str0" x="18433" y="4035" width="756" height="782" rx="124" ry="128"/>
  <line class="fil3 str1" x1="6565" y1="7813" x2="7608" y2= "7813" />
  <line class="fil3 str1" x1="6565" y1="8074" x2="7868" y2= "8074" />
  <g>
   <path class="fil5" d="M7407 7592l-842 0 0 -78 842 0 0 78zm200 -39l-202 101 0 -203 202 102z"/>
  </g>
  <line class="fil3 str1" x1="6565" y1="10940" x2="7608" y2= "10940" />
  <line class="fil3 str1" x1="6565" y1="11200" x2="7868" y2= "11200" />
  <g>
   <path class="fil5" d="M7407 10718l-842 0 0 -78 842 0 0 78zm200 -39l-202 101 0 -202 202 101z"/>
  </g>
  <line class="fil3 str1" x1="6565" y1="14587" x2="7608" y2= "14587" />
  <line class="fil3 str1" x1="6565" y1="14848" x2="7868" y2= "14848" />
  <g>
   <path class="fil5" d="M7407 14366l-842 0 0 -78 842 0 0 78zm200 -39l-202 101 0 -202 202 101z"/>
  </g>
  <line class="fil3 str1" x1="15424" y1="10940" x2="16466" y2= "10940" />
  <g>
   <path class="fil5" d="M16266 10718l-842 0 0 -78 842 0 0 78zm200 -39l-203 101 0 -202 203 101z"/>
  </g>
  <line class="fil3 str1" x1="15424" y1="4687" x2="16466" y2= "4687" />
  <g>
   <path class="fil5" d="M16266 4465l-842 0 0 -78 842 0 0 78zm200 -39l-203 101 0 -202 203 101z"/>
  </g>
  <line class="fil3 str1" x1="15424" y1="7813" x2="16466" y2= "7813" />
  <line class="fil3 str1" x1="15424" y1="8074" x2="16727" y2= "8074" />
  <g>
   <path class="fil5" d="M16266 7592l-842 0 0 -78 842 0 0 78zm200 -39l-203 101 0 -203 203 102z"/>
  </g>
  <line class="fil3 str1" x1="6565" y1="4687" x2="7608" y2= "4687" />
  <line class="fil3 str1" x1="6565" y1="4947" x2="7868" y2= "4947" />
  <rect class="fil7 str2" x="833" y="7813" width="2605" height="1563"/>
  <rect class="fil7 str2" x="8650" y="1039" width="2605" height="1563"/>
  <g>
   <rect class="fil1 str0" x="8129" y="4426" width="2084" height="1042"/>
   <rect class="fil1 str0" x="7868" y="4166" width="2084" height="1042"/>
   <rect class="fil1 str0" x="7608" y="3905" width="2084" height="1042"/>
  </g>
  <text x="7700" y="4584"  class="fil8 fnt0">cmdGadget</text>
  <rect class="fil9 str0" x="13340" y="3905" width="2084" height="1563"/>
  <text x="13779" y="4584"  class="fil8 fnt0">Gadget</text>
  <text x="16917" y="4584"  class="fil8 fnt0">gg</text>
  <text x="17333" y="4584"  class="fil8 fnt0">XXX</text>
  <g>
   <path class="fil5" d="M13139 4726l-3186 0 0 -78 3186 0 0 78zm200 -39l-202 101 0 -203 202 102z"/>
  </g>
  <rect class="fil9 str0" x="4481" y="3905" width="2084" height="11985"/>
  <text x="5136" y="4584"  class="fil8 fnt0">Cmd</text>
  <g>
   <rect class="fil1 str0" x="8129" y="7553" width="2084" height="1042"/>
   <rect class="fil1 str0" x="7868" y="7292" width="2084" height="1042"/>
   <rect class="fil1 str0" x="7608" y="7032" width="2084" height="1042"/>
  </g>
  <text x="7578" y="7711"  class="fil8 fnt0">cmdGateway</text>
  <rect class="fil9 str0" x="13340" y="7032" width="2084" height="1563"/>
  <text x="13657" y="7711"  class="fil8 fnt0">Gateway</text>
  <g>
   <rect class="fil1 str0" x="8129" y="10679" width="2084" height="1042"/>
   <rect class="fil1 str0" x="7868" y="10419" width="2084" height="1042"/>
   <rect class="fil1 str0" x="7608" y="10158" width="2084" height="1042"/>
  </g>
  <text x="7925" y="10837"  class="fil8 fnt0">cmdRule</text>
  <rect class="fil9 str0" x="13340" y="10158" width="2084" height="1563"/>
  <text x="14004" y="10837"  class="fil8 fnt0">Rule</text>
  <text x="17020" y="10837"  class="fil8 fnt0">rl</text>
  <text x="17230" y="10837"  class="fil8 fnt0">XXX</text>
  <g>
   <rect class="fil1 str0" x="8129" y="14327" width="2084" height="1042"/>
   <rect class="fil1 str0" x="7868" y="14066" width="2084" height="1042"/>
   <rect class="fil1 str0" x="7608" y="13806" width="2084" height="1042"/>
  </g>
  <text x="7916" y="14485"  class="fil8 fnt0">cmd</text>
  <text x="8617" y="14485"  class="fil8 fnt0">XXX</text>
  <rect class="fil9 str2" x="1094" y="8074" width="2084" height="1042"/>
  <text x="1105" y="8753"  class="fil8 fnt0">TelnetServer</text>
  <g>
   <path class="fil5" d="M4281 8634l-842 0 0 -78 842 0 0 78zm200 -39l-203 101 0 -203 203 102z"/>
  </g>
  <rect class="fil9 str2" x="8910" y="1300" width="2084" height="1042"/>
  <text x="9490" y="1979"  class="fil8 fnt0">Timer</text>
  <text x="14777" y="4176"  class="fil10 fnt1">{ }</text>
  <text x="14777" y="7321"  class="fil10 fnt1">{ }</text>
  <text x="14777" y="10466"  class="fil10 fnt1">{ }</text>
  <text x="5914" y="4176"  class="fil10 fnt1">{ }</text>
  <rect class="fil9 str0" x="52" y="2081" width="2084" height="1042"/>
  <text x="604" y="2760"  class="fil8 fnt0">ezPiC</text>
  <g>
   <path class="fil5" d="M16948 12503l0 -1303 78 0 0 1303 -39 39 -39 -39zm78 0l0 39 -39 0 39 -39zm-10260 -39l10221 0 0 78 -10221 0 0 -78zm-200 39l202 -101 0 202 -202 -101z"/>
  </g>
  <rect class="fil7 str2" x="833" y="9898" width="2605" height="1563"/>
  <rect class="fil9 str2" x="1094" y="10158" width="2084" height="1042"/>
  <text x="1830" y="10837"  class="fil8 fnt0">???</text>
  <g>
   <path class="fil5" d="M4281 10718l-842 0 0 -78 842 0 0 78zm200 -39l-203 101 0 -202 203 101z"/>
  </g>
  <g>
   <path class="fil6" d="M22519 8113l-1884 0 0 -78 1884 0 0 78zm200 -39l-203 101 0 -203 203 102z"/>
  </g>
  <g>
   <path class="fil11" d="M2978 2641l-842 0 0 -78 842 0 0 78zm200 -39l-203 102 0 -203 203 101z"/>
  </g>
  <text x="3420" y="2760"  class="fil12 fnt0">init</text>
  <g>
   <path class="fil5" d="M7407 4465l-842 0 0 -78 842 0 0 78zm200 -39l-202 101 0 -202 202 101z"/>
  </g>
  <path class="fil13 str0" d="M15372 7292l52 0 0 1042 -52 0c-115,0 -208,-94 -208,-208l0 -625c0,-115 93,-209 208,-209z"/>
  <path class="fil13 str0" d="M15372 4166l52 0 0 1042 -52 0c-115,0 -208,-94 -208,-209l0 -625c0,-115 93,-208 208,-208z"/>
  <path class="fil13 str0" d="M15372 10419l52 0 0 1042 -52 0c-115,0 -208,-94 -208,-209l0 -625c0,-115 93,-208 208,-208z"/>
  <path class="fil13 str0" d="M9900 2081l105 0c114,0 208,94 208,209l0 52 -521 0 0 -52c0,-115 94,-209 208,-209z"/>
  <text x="6341" y="3216"  class="fil10 fnt0">load Plugins</text>
  <text x="15199" y="3216"  class="fil10 fnt0">load Plugins</text>
  <rect class="fil9 str0" x="16727" y="13545" width="2084" height="1563"/>
  <text x="17085" y="14224"  class="fil8 fnt0">Reading</text>
  <text x="19849" y="14615"  class="fil8 fnt2">{ }</text>
  <g>
   <path class="fil5" d="M19653 14366l-842 0 0 -78 842 0 0 78zm200 -39l-203 101 0 -202 203 101z"/>
  </g>
  <path class="fil13 str0" d="M18759 14066l52 0 0 521 -52 0c-115,0 -208,-93 -208,-208l0 -104c0,-115 93,-209 208,-209z"/>
  <g>
   <path class="fil5" d="M17730 8916l0 -582 78 0 0 582 -78 0zm39 200l-101 -203 202 0 -101 203z"/>
  </g>
  <g>
   <path class="fil5" d="M17990 9176l0 -581 79 0 0 581 -79 0zm40 200l-102 -202 203 0 -101 202z"/>
  </g>
  <g>
   <path class="fil5" d="M17469 13345l0 -581 78 0 0 581 -78 0zm39 200l-101 -203 203 0 -102 203z"/>
  </g>
  <g>
   <path class="fil5" d="M17730 13345l0 -581 78 0 0 581 -78 0zm39 200l-101 -203 202 0 -101 203z"/>
  </g>
  <g>
   <path class="fil5" d="M17990 13345l0 -581 79 0 0 581 -79 0zm40 200l-102 -203 203 0 -101 203z"/>
  </g>
  <g>
   <path class="fil5" d="M9914 2733l-1 -391 79 0 0 391 -67 27 -11 -27zm11 27l-11 -11 0 -16 11 27zm249 249l-249 -249 55 -55 249 249 -55 55zm169 114l-215 -72 144 -143 71 215z"/>
  </g>
  <g>
   <path class="fil5" d="M14354 3412l-260 -261 55 -55 261 260 11 28 -67 28zm56 -56l11 12 0 16 -11 -28zm-67 349l0 -321 78 0 0 321 -78 0zm39 200l-101 -203 202 0 -101 203z"/>
  </g>
  <g>
   <path class="fil5" d="M4281 6289l-4229 0 0 -78 4229 0 0 78zm200 -39l-203 101 0 -202 203 101z"/>
  </g>
  <polyline class="fil3 str1" points="10213,4947 10734,4947 10995,4687 10734,4426 9692,4426 "/>
  <g>
   <path class="fil5" d="M13139 7852l-3186 0 0 -78 3186 0 0 78zm200 -39l-202 101 0 -202 202 101z"/>
  </g>
  <g>
   <path class="fil5" d="M13139 10979l-3186 0 0 -78 3186 0 0 78zm200 -39l-202 101 0 -203 202 102z"/>
  </g>
  <polyline class="fil3 str1" points="10213,8074 10734,8074 10995,7813 10734,7553 9692,7553 "/>
  <polyline class="fil3 str1" points="10213,11200 10734,11200 10995,10940 10734,10679 9692,10679 "/>
  <text x="13326" y="5437"  class="fil14 fnt3">./dev/Gadget.py</text>
  <g>
   <path class="fil15" d="M693 8673l-641 0 0 -156 641 0 0 156zm400 -78l-405 202 0 -405 405 203z"/>
  </g>
  <g>
   <path class="fil16" d="M693 10757l-641 0 0 -156 641 0 0 156zm400 -78l-405 203 0 -405 405 202z"/>
  </g>
  <text x="145" y="7295"  class="fil17 fnt0">Telnet</text>
  <text x="145" y="7705"  class="fil17 fnt0">Port 10123</text>
  <text x="1750" y="513"  class="fil12 fnt4">ezPiC IoT-Device-Part</text>
  <text x="13326" y="8564"  class="fil14 fnt3">./dev/Gateway.py</text>
  <text x="16453" y="4916"  class="fil14 fnt3">./dev/plugins/gadgets/ggXXX.py</text>
  <text x="13326" y="11690"  class="fil14 fnt3">./dev/Rule.py</text>
  <text x="4468" y="15859"  class="fil14 fnt3">./dev/Cmd.py</text>
  <text x="7594" y="14817"  class="fil14 fnt3">./dev/plugins/cmd/cmdXXX.py</text>
  <text x="16453" y="11169"  class="fil14 fnt3">./dev/plugins/rules/rlXXX.py</text>
  <text x="1081" y="9085"  class="fil14 fnt3">./dev/TelnerServer.py</text>
  <text x="16713" y="15078"  class="fil14 fnt3">./dev/Reading.py</text>
  <text x="8897" y="2311"  class="fil14 fnt3">./dev/Timer.py</text>
  <text x="38" y="3092"  class="fil14 fnt3">./ezPiC.py</text>
  <g>
   <path class="fil11" d="M4281 4205l-842 0 0 -79 842 0 0 79zm200 -39l-203 101 0 -203 203 102z"/>
  </g>
  <text x="2773" y="4276"  class="fil12 fnt0">init</text>
  <g>
   <path class="fil11" d="M13139 4205l-841 0 0 -79 841 0 0 79zm200 -39l-202 101 0 -203 202 102z"/>
  </g>
  <text x="11631" y="4276"  class="fil12 fnt0">init</text>
  <g>
   <path class="fil11" d="M13139 7331l-841 0 0 -78 841 0 0 78zm200 -39l-202 101 0 -202 202 101z"/>
  </g>
  <text x="11631" y="7403"  class="fil12 fnt0">init</text>
  <g>
   <path class="fil11" d="M13139 10458l-841 0 0 -78 841 0 0 78zm200 -39l-202 101 0 -203 202 102z"/>
  </g>
  <text x="11631" y="10529"  class="fil12 fnt0">init</text>
  <g>
   <path class="fil11" d="M16527 13845l-842 0 0 -78 842 0 0 78zm199 -39l-202 101 0 -203 202 102z"/>
  </g>
  <text x="15018" y="13917"  class="fil12 fnt0">init</text>
  <g>
   <path class="fil11" d="M8710 1599l-842 0 0 -78 842 0 0 78zm200 -39l-203 101 0 -202 203 101z"/>
  </g>
  <text x="7202" y="1671"  class="fil12 fnt0">init</text>
  <rect class="fil9 str0" x="16727" y="16411" width="2084" height="1563"/>
  <text x="19849" y="17481"  class="fil8 fnt2">{ }</text>
  <g>
   <path class="fil5" d="M19653 17232l-842 0 0 -78 842 0 0 78zm200 -39l-203 101 0 -202 203 101z"/>
  </g>
  <path class="fil18 str0" d="M18759 16932l52 0 0 521 -52 0c-115,0 -208,-93 -208,-208l0 -104c0,-115 93,-209 208,-209z"/>
  <g>
   <path class="fil5" d="M17469 16211l0 -581 78 0 0 581 -78 0zm39 200l-101 -203 203 0 -102 203z"/>
  </g>
  <g>
   <path class="fil5" d="M17730 16211l0 -581 78 0 0 581 -78 0zm39 200l-101 -203 202 0 -101 203z"/>
  </g>
  <g>
   <path class="fil5" d="M17990 16211l0 -581 79 0 0 581 -79 0zm40 200l-102 -203 203 0 -101 203z"/>
  </g>
  <text x="16713" y="17944"  class="fil14 fnt3">./dev/SysConfig.py</text>
  <rect class="fil2 str0" x="18954" y="7683" width="756" height="782" rx="124" ry="128"/>
  <rect class="fil1 str0" x="16727" y="7292" width="4429" height="1042"/>
  <g>
   <path class="fil5" d="M17469 8655l0 -581 78 0 0 581 -78 0zm39 200l-101 -203 203 0 -102 203z"/>
  </g>
  <rect class="fil2 str0" x="18694" y="7422" width="756" height="782" rx="124" ry="128"/>
  <rect class="fil2 str0" x="19476" y="7422" width="756" height="782" rx="124" ry="128"/>
  <rect class="fil2 str0" x="20257" y="7422" width="756" height="782" rx="124" ry="128"/>
  <rect class="fil1 str0" x="16466" y="7032" width="4429" height="1042"/>
  <rect class="fil2 str0" x="18433" y="7162" width="756" height="782" rx="124" ry="128"/>
  <text x="19192" y="6901"  class="fil2 fnt0">Instances</text>
  <g>
   <path class="fil6" d="M21998 7592l-2809 0 0 -78 2809 0 0 78zm200 -39l-203 101 0 -203 203 102z"/>
  </g>
  <text x="16887" y="7711"  class="fil8 fnt0">gw</text>
  <text x="17363" y="7711"  class="fil8 fnt0">XXX</text>
  <text x="16453" y="8043"  class="fil14 fnt3">./dev/plugins/gateways/gwXXX.py</text>
  <g>
   <path class="fil6" d="M22259 7852l-1246 0 0 -78 1246 0 0 78zm200 -39l-203 101 0 -202 203 101z"/>
  </g>
  <g>
   <rect class="fil19 str0" x="22719" y="7553" width="2084" height="1042"/>
   <rect class="fil19 str0" x="22459" y="7292" width="2084" height="1042"/>
   <rect class="fil19 str0" x="22198" y="7032" width="2084" height="1042"/>
  </g>
  <text x="22568" y="7711"  class="fil8 fnt0">MQTT</text>
  <text x="23614" y="7711"  class="fil8 fnt0">...</text>
  <g>
   <path class="fil16" d="M24924 7631l-641 0 0 -157 641 0 0 157zm400 -78l-405 202 0 -405 405 203z"/>
  </g>
  <g>
   <path class="fil16" d="M25185 7891l-642 0 0 -156 642 0 0 156zm400 -78l-405 203 0 -405 405 202z"/>
  </g>
  <g>
   <path class="fil16" d="M25445 8152l-641 0 0 -156 641 0 0 156zm400 -78l-405 202 0 -405 405 203z"/>
  </g>
  <g>
   <path class="fil6" d="M21998 4726l-985 0 0 -78 985 0 0 78zm200 -39l-203 101 0 -203 203 102z"/>
  </g>
  <g>
   <rect class="fil19 str0" x="22719" y="4687" width="2084" height="1042"/>
   <rect class="fil19 str0" x="22459" y="4426" width="2084" height="1042"/>
   <rect class="fil19 str0" x="22198" y="4166" width="2084" height="1042"/>
  </g>
  <text x="22609" y="4845"  class="fil8 fnt0">GPIO</text>
  <text x="23573" y="4845"  class="fil8 fnt0">...</text>
  <g>
   <path class="fil6" d="M24924 4765l-641 0 0 -157 641 0 0 157zm400 -78l-405 202 0 -405 405 203z"/>
  </g>
  <g>
   <path class="fil6" d="M25185 5025l-642 0 0 -156 642 0 0 156zm400 -78l-405 203 0 -405 405 202z"/>
  </g>
  <g>
   <path class="fil6" d="M25445 5286l-641 0 0 -156 641 0 0 156zm400 -78l-405 202 0 -405 405 203z"/>
  </g>
  <text x="16932" y="17090"  class="fil8 fnt0">SysConfig</text>
  <g>
   <path class="fil11" d="M16578 16711l-842 0 0 -78 842 0 0 78zm200 -39l-203 101 0 -203 203 102z"/>
  </g>
  <text x="15069" y="16783"  class="fil12 fnt0">init</text>
  <g>
   <path class="fil8" d="M146 0l764 0c80,0 146,66 146,146l0 764c0,80 -66,146 -146,146l-764 0c-80,0 -146,-66 -146,-146l0 -764c0,-80 66,-146 146,-146z"/>
   <path class="fil20" d="M550 843c100,0 186,-37 247,-109l-107 -118c-31,34 -72,59 -119,59 -100,0 -170,-77 -170,-215 0,-133 70,-212 161,-212 49,0 86,18 119,47l107 -119c-52,-50 -131,-95 -226,-95 -199,0 -360,140 -360,386 0,251 165,376 348,376l0 0z"/>
   <path class="fil21" d="M141 890l147 0 0 -177 62 0c117,0 223,-59 223,-195 0,-141 -103,-185 -223,-185l-209 0 0 557zm147 -293l0 -148 55 0c55,0 86,19 86,69 0,50 -28,79 -86,79l-55 0zm487 293l148 0 0 -429 -311 0 0 115 163 0 0 314zm69 -487c55,0 94,-34 94,-86 0,-51 -39,-87 -94,-87 -55,0 -94,36 -94,87 0,52 39,86 94,86z"/>
   <path class="fil22" d="M401 961c39,0 89,-12 126,-36l-35 -64c-28,12 -50,18 -75,18 -46,0 -74,-15 -84,-50l203 0c1,-8 4,-26 4,-45 0,-85 -50,-153 -150,-153 -84,0 -165,62 -165,165 0,105 77,165 177,165l-1 0zm-7 -248c29,0 46,16 50,45l-110 0c9,-30 29,-45 60,-45zm165 241l299 0 0 -85 -150 0 146 -172 0 -58 -277 0 0 84 127 0 -145 173 0 58z"/>
  </g>
  <path class="fil13 str0" d="M23189 13971l52 0 0 522 -52 0c-115,0 -209,-94 -209,-209l0 -104c0,-115 94,-209 209,-209z"/>
  <text x="23734" y="14323"  class="fil8 fnt0">Mutex</text>
  <rect class="fil2 str0" x="22859" y="15014" width="504" height="521" rx="83" ry="85"/>
  <text x="23727" y="15365"  class="fil8 fnt0">Instance of XXX</text>
  <g>
   <rect class="fil7 str2" x="22676" y="16056" width="868" height="521"/>
   <rect class="fil9 str2" x="22763" y="16143" width="695" height="347"/>
   <text x="23008" y="16369"  class="fil8 fnt5">???</text>
  </g>
  <text x="23753" y="16407"  class="fil8 fnt0">Tread</text>
  <text x="22848" y="17502"  class="fil8 fnt6">{ }</text>
  <text x="23762" y="17453"  class="fil8 fnt0">Storage</text>
  <text x="22169" y="4035"  class="fil19 fnt0">external Libs</text>
  <text x="22198" y="6901"  class="fil19 fnt0">external Libs</text>
  <text x="1314" y="6082"  class="fil23 fnt0">direct Call</text>
  <text x="18123" y="4176"  class="fil2 fnt1">{ }</text>
  <text x="18123" y="7321"  class="fil2 fnt1">{ }</text>
  <text x="18123" y="10466"  class="fil2 fnt1">{ }</text>
  <text x="15199" y="6343"  class="fil10 fnt0">load Plugins</text>
  <text x="15199" y="9469"  class="fil10 fnt0">load Plugins</text>
  <g>
   <path class="fil5" d="M16527 14366l-6835 0 0 -78 6835 0 0 78zm199 -39l-202 101 0 -202 202 101z"/>
  </g>
  <g>
   <path class="fil5" d="M16726 17193l-202 101 0 -202 202 101zm-2344 -39l2145 0 0 78 -2145 0 -39 -39 39 -39zm0 78l-39 0 0 -39 39 39zm39 -2645l0 2606 -78 0 0 -2606 39 -39 39 39zm-39 -39l39 0 0 39 -39 -39zm-4429 0l4429 0 0 78 -4429 0 0 -78z"/>
  </g>
  <g>
   <path class="fil5" d="M12298 15890l-102 -203 203 0 -101 203zm39 -1042l0 842 -79 0 0 -842 40 -39 39 39zm-39 -39l39 0 0 39 -39 -39zm-2085 0l2085 0 0 78 -2085 0 0 -78z"/>
  </g>
  <text x="11834" y="16308"  class="fil8 fnt2">...</text>
  <g>
   <path class="fil4" d="M14942 518l0 521 -78 0 0 -521 39 -39 39 39zm-78 0l0 -39 39 0 -39 39zm2644 39l-2605 0 0 -78 2605 0 40 39 -40 39zm0 -78l40 0 0 39 -40 -39zm-39 360l0 -321 79 0 0 321 -79 0zm39 200l-101 -203 203 0 -102 203z"/>
  </g>
  <line class="fil3 str1" x1="15424" y1="2081" x2="16727" y2= "2081" />
  <rect class="fil1 str0" x="16987" y="1560" width="4429" height="1042"/>
  <g>
   <path class="fil6" d="M22519 2120l-1884 0 0 -78 1884 0 0 78zm200 -39l-203 101 0 -202 203 101z"/>
  </g>
  <rect class="fil2 str0" x="19345" y="1690" width="756" height="782" rx="124" ry="128"/>
  <rect class="fil1 str0" x="16727" y="1300" width="4429" height="1042"/>
  <rect class="fil2 str0" x="19085" y="1430" width="756" height="782" rx="124" ry="128"/>
  <rect class="fil1 str0" x="16466" y="1039" width="4429" height="1042"/>
  <rect class="fil2 str0" x="18824" y="1169" width="756" height="782" rx="124" ry="128"/>
  <text x="18495" y="908"  class="fil2 fnt0">One Instance</text>
  <g>
   <path class="fil6" d="M21998 1599l-2418 0 0 -78 2418 0 0 78zm200 -39l-203 101 0 -202 203 101z"/>
  </g>
  <line class="fil3 str1" x1="15424" y1="1821" x2="16466" y2= "1821" />
  <g>
   <path class="fil5" d="M16266 1599l-842 0 0 -78 842 0 0 78zm200 -39l-203 101 0 -202 203 101z"/>
  </g>
  <rect class="fil9 str0" x="13340" y="1039" width="2084" height="1563"/>
  <text x="13688" y="1718"  class="fil8 fnt0">Machine</text>
  <text x="16866" y="1718"  class="fil8 fnt0">ma</text>
  <text x="17384" y="1718"  class="fil8 fnt0">XXX</text>
  <text x="14777" y="1310"  class="fil10 fnt1">{ }</text>
  <path class="fil13 str0" d="M15372 1300l52 0 0 1042 -52 0c-115,0 -208,-94 -208,-209l0 -625c0,-115 93,-208 208,-208z"/>
  <text x="15199" y="350"  class="fil10 fnt0">load Plugins</text>
  <text x="13326" y="2571"  class="fil14 fnt3">./dev/Machine.py</text>
  <text x="16453" y="2050"  class="fil14 fnt3">./dev/plugins/machines/maXXX.py</text>
  <g>
   <path class="fil11" d="M13139 1339l-841 0 0 -79 841 0 0 79zm200 -39l-202 101 0 -203 202 102z"/>
  </g>
  <text x="11631" y="1410"  class="fil12 fnt0">init</text>
  <g>
   <path class="fil6" d="M22259 1860l-1363 0 0 -79 1363 0 0 79zm200 -39l-203 101 0 -203 203 102z"/>
  </g>
  <g>
   <rect class="fil24 str0" x="22719" y="1560" width="2084" height="1042"/>
   <rect class="fil24 str0" x="22459" y="1300" width="2084" height="1042"/>
   <rect class="fil24 str0" x="22198" y="1039" width="2084" height="1042"/>
  </g>
  <text x="22795" y="1718"  class="fil25 fnt0">I</text>
  <text x="22904" y="1718"  class="fil25 fnt0">2</text>
  <text x="23115" y="1718"  class="fil25 fnt0">C</text>
  <text x="23387" y="1718"  class="fil25 fnt0">...</text>
  <g>
   <path class="fil6" d="M24924 1638l-641 0 0 -156 641 0 0 156zm400 -78l-405 203 0 -406 405 203z"/>
  </g>
  <g>
   <path class="fil6" d="M25185 1899l-642 0 0 -157 642 0 0 157zm400 -78l-405 202 0 -405 405 203z"/>
  </g>
  <g>
   <path class="fil6" d="M25445 2159l-641 0 0 -156 641 0 0 156zm400 -78l-405 203 0 -405 405 202z"/>
  </g>
  <text x="22292" y="908"  class="fil24 fnt0">buildin Libs</text>
  <text x="18123" y="1310"  class="fil2 fnt1">{ }</text>
  <g>
   <path class="fil5" d="M14354 6538l-260 -260 55 -56 261 261 11 27 -67 28zm56 -55l11 11 0 16 -11 -27zm-67 348l0 -321 78 0 0 321 -78 0zm39 200l-101 -202 202 0 -101 202z"/>
  </g>
  <g>
   <path class="fil5" d="M14354 9665l-260 -261 55 -55 261 260 11 28 -67 28zm56 -56l11 12 0 16 -11 -28zm-67 349l0 -321 78 0 0 321 -78 0zm39 200l-101 -203 202 0 -101 203z"/>
  </g>
  <rect class="fil2 str0" x="19202" y="4035" width="756" height="782" rx="124" ry="128"/>
  <g>
   <path class="fil5" d="M19632 2342l0 1693 -78 0 0 -1693 66 -28 12 28zm-12 -28l12 11 0 17 -12 -28zm-249 -249l249 249 -55 55 -249 -249 55 -55zm-169 -114l215 72 -143 143 -72 -215z"/>
  </g>
  <g>
   <path class="fil5" d="M18850 2342l0 1693 -78 0 0 -1693 12 -28 66 28zm-78 0l0 -17 12 -11 -12 28zm316 -222l-249 249 -55 -55 249 -249 55 55zm114 -169l-72 215 -143 -143 215 -72z"/>
  </g>
  <text x="19192" y="3774"  class="fil2 fnt0">Instances</text>
 </g>
</svg>
