<?xml version="1.0" encoding="UTF-8"?>
<!DOCTYPE svg PUBLIC "-//W3C//DTD SVG 1.1//EN" "http://www.w3.org/Graphics/SVG/1.1/DTD/svg11.dtd">
<!-- Creator: CorelDRAW Home & Student X6 -->
<svg xmlns="http://www.w3.org/2000/svg" xml:space="preserve" width="150mm" height="150mm" version="1.1" style="shape-rendering:geometricPrecision; text-rendering:geometricPrecision; image-rendering:optimizeQuality; fill-rule:evenodd; clip-rule:evenodd"
viewBox="0 0 14331 14331"
 xmlns:xlink="http://www.w3.org/1999/xlink">
 <defs>
  <style type="text/css">
   <![CDATA[
    .str0 {stroke:white;stroke-width:286.624}
    .fil0 {fill:black}
    .fil1 {fill:#666666;fill-rule:nonzero}
    .fil2 {fill:#999999;fill-rule:nonzero}
    .fil3 {fill:#DDDDDD;fill-rule:nonzero}
   ]]>
  </style>
 </defs>
 <g id="Ebene_x0020_1">
  <metadata id="CorelCorpID_0Corel-Layer"/>
  <path class="fil0 str0" d="M2088 143l10155 0c1070,0 1945,875 1945,1945l0 10155c0,1070 -875,1945 -1945,1945l-10155 0c-1070,0 -1945,-875 -1945,-1945l0 -10155c0,-1070 875,-1945 1945,-1945z"/>
  <path class="fil1" d="M7461 11348c1323,0 2466,-481 3277,-1443l-1413 -1564c-421,451 -962,782 -1594,782 -1323,0 -2255,-1022 -2255,-2856 0,-1774 932,-2826 2135,-2826 661,0 1143,241 1594,631l1413 -1594c-692,-662 -1744,-1263 -3007,-1263 -2646,0 -4781,1864 -4781,5142 0,3338 2195,4991 4630,4991z"/>
  <path class="fil2" d="M2015 11979l1961 0 0 -2349 821 0c1551,0 2965,-787 2965,-2600 0,-1870 -1368,-2463 -2965,-2463l-2782 0 0 7412zm1961 -3900l0 -1961 730 0c730,0 1140,251 1140,912 0,661 -365,1049 -1140,1049l-730 0zm6477 3900l1961 0 0 -5702 -4128 0 0 1528 2167 0 0 4174zm912 -6477c730,0 1254,-456 1254,-1140 0,-684 -525,-1163 -1254,-1163 -730,0 -1254,479 -1254,1163 0,684 525,1140 1254,1140z"/>
  <path class="fil3" d="M5482 12928c519,0 1173,-168 1676,-486l-469 -855c-369,168 -670,251 -1005,251 -612,0 -980,-201 -1106,-670l2689 0c17,-101 59,-352 59,-603 0,-1123 -670,-2028 -1994,-2028 -1123,0 -2195,821 -2195,2195 0,1391 1022,2195 2346,2195zm-101 -3301c394,0 612,209 670,603l-1466 0c117,-411 385,-603 796,-603zm2195 3201l3971 0 0 -1123 -1994 0 1944 -2296 0 -771 -3686 0 0 1123 1692 0 -1927 2296 0 771z"/>
 </g>
</svg>
