<?xml version="1.0" encoding="UTF-8"?>
<!DOCTYPE svg PUBLIC "-//W3C//DTD SVG 1.1//EN" "http://www.w3.org/Graphics/SVG/1.1/DTD/svg11.dtd">
<!-- Creator: CorelDRAW Home & Student X8 -->
<svg xmlns="http://www.w3.org/2000/svg" xml:space="preserve" width="24.9999mm" height="24.9999mm" version="1.1" style="shape-rendering:geometricPrecision; text-rendering:geometricPrecision; image-rendering:optimizeQuality; fill-rule:evenodd; clip-rule:evenodd"
viewBox="0 0 334 334"
 xmlns:xlink="http://www.w3.org/1999/xlink">
 <defs>
  <style type="text/css">
   <![CDATA[
    .fil1 {fill:black;fill-rule:nonzero}
    .fil2 {fill:#555555;fill-rule:nonzero}
    .fil3 {fill:#999999;fill-rule:nonzero}
    .fil4 {fill:#DDDDDD;fill-rule:nonzero}
    .fil0 {fill:#EEEEEE;fill-rule:nonzero}
   ]]>
  </style>
 </defs>
 <g id="Ebene_x0020_1">
  <metadata id="CorelCorpID_0Corel-Layer"/>
  <path class="fil0" d="M51 0l232 0c14,0 27,6 36,15 10,9 15,22 15,36l0 232c0,14 -6,27 -15,36 -9,10 -22,15 -36,15l-232 0c-14,0 -27,-6 -36,-15 -9,-9 -15,-22 -15,-36l0 -232c0,-14 6,-27 15,-36 9,-9 22,-15 36,-15z"/>
  <path class="fil1" d="M283 13l-232 0c-11,0 -20,4 -27,11 -7,7 -12,16 -12,27l0 233c0,10 5,20 12,27 7,7 16,11 27,11l232 0c11,0 20,-4 27,-11 7,-7 12,-17 12,-27l0 -233c0,-10 -4,-20 -12,-27 -6,-7 -16,-11 -27,-11z"/>
  <path class="fil2" d="M174 263c30,0 56,-11 75,-33l-32 -36c-10,11 -22,18 -37,18 -30,0 -52,-23 -52,-65 0,-41 22,-65 49,-65 15,0 26,6 37,15l32 -37c-16,-15 -40,-29 -69,-29 -60,0 -109,43 -109,118 0,76 50,114 106,114l0 0 0 0z"/>
  <path class="fil3" d="M49 278l45 0 0 -54 19 0c35,0 68,-18 68,-60 0,-43 -32,-56 -68,-56l-64 0 0 170 0 0zm45 -90l0 -45 16 0c17,0 27,6 27,21 0,15 -9,24 -27,24l-16 0zm148 90l45 0 0 -131 -94 0 0 35 49 0 0 96 0 0zm21 -149c17,0 29,-10 29,-26 0,-16 -12,-27 -29,-27 -16,0 -29,11 -29,27 0,16 13,26 29,26z"/>
  <path class="fil4" d="M129 299c11,0 26,-3 38,-11l-11 -19c-8,4 -15,5 -23,5 -14,0 -23,-4 -25,-15l61 0c1,-2 2,-8 2,-14 0,-26 -16,-46 -46,-46 -26,0 -50,18 -50,50 0,32 23,50 54,50l0 0 0 0zm-3 -75c9,0 14,4 16,14l-34 0c3,-10 9,-14 18,-14l0 0zm50 73l91 0 0 -26 -45 0 44 -52 0 -18 -84 0 0 26 39 0 -45 52 0 18z"/>
 </g>
</svg>
