<?xml version="1.0" encoding="UTF-8"?>
<!DOCTYPE svg PUBLIC "-//W3C//DTD SVG 1.0//EN" "http://www.w3.org/TR/2001/REC-SVG-20010904/DTD/svg10.dtd">
<!-- Creator: CorelDRAW Home & Student X6 -->
<svg xmlns="http://www.w3.org/2000/svg" xml:space="preserve" width="25mm" height="25mm" version="1.0" shape-rendering="geometricPrecision" text-rendering="geometricPrecision" image-rendering="optimizeQuality" fill-rule="evenodd" clip-rule="evenodd"
viewBox="0 0 1127 1127"
 xmlns:xlink="http://www.w3.org/1999/xlink">
 <g id="Ebene_x0020_1">
  <metadata id="CorelCorpID_0Corel-Layer"/>
  <path fill="#EEEEEE" fill-rule="nonzero" d="M172 0l783 0c47,0 90,19 121,50 31,31 50,74 50,121l0 783c0,47 -19,90 -50,121 -31,31 -74,50 -121,50l-783 0c-47,0 -90,-19 -121,-50 -31,-31 -50,-74 -50,-121l0 -783c0,-47 19,-90 50,-121 31,-31 74,-50 121,-50z"/>
  <path fill="black" fill-rule="nonzero" d="M955 43l-783 0c-35,0 -67,14 -91,38 -23,23 -38,55 -38,91l0 783c0,35 14,67 38,91 23,23 55,38 91,38l783 0c35,0 67,-14 91,-38 23,-23 38,-55 38,-91l0 -783c0,-35 -14,-67 -38,-91 -23,-23 -55,-38 -91,-38z"/>
  <path fill="#666666" fill-rule="nonzero" d="M586 886c102,0 190,-37 253,-111l-109 -121c-32,35 -74,60 -123,60 -102,0 -174,-79 -174,-220 0,-137 72,-218 165,-218 51,0 88,19 123,49l109 -123c-53,-51 -135,-97 -232,-97 -204,0 -369,144 -369,397 0,257 169,385 357,385l0 0z"/>
  <path fill="#999999" fill-rule="nonzero" d="M166 935l151 0 0 -181 63 0c120,0 229,-61 229,-201 0,-144 -106,-190 -229,-190l-215 0 0 572zm151 -301l0 -151 56 0c56,0 88,19 88,70 0,51 -28,81 -88,81l-56 0zm500 301l151 0 0 -440 -318 0 0 118 167 0 0 322zm70 -500c56,0 97,-35 97,-88 0,-53 -40,-90 -97,-90 -56,0 -97,37 -97,90 0,53 41,88 97,88z"/>
  <path fill="#DDDDDD" fill-rule="nonzero" d="M434 1008c40,0 90,-13 129,-37l-36 -66c-28,13 -52,19 -78,19 -47,0 -76,-16 -85,-52l207 0c1,-8 5,-27 5,-47 0,-87 -52,-156 -154,-156 -87,0 -169,63 -169,169 0,107 79,169 181,169l0 0zm-8 -255c30,0 47,16 52,47l-113 0c9,-32 30,-47 61,-47zm169 247l306 0 0 -87 -154 0 150 -177 0 -59 -284 0 0 87 131 0 -149 177 0 59z"/>
 </g>
</svg>
