<?xml version="1.0" encoding="UTF-8"?>
<!DOCTYPE svg PUBLIC "-//W3C//DTD SVG 1.1//EN" "http://www.w3.org/Graphics/SVG/1.1/DTD/svg11.dtd">
<!-- Creator: CorelDRAW Home & Student X8 -->
<svg xmlns="http://www.w3.org/2000/svg" xml:space="preserve" width="24.9999mm" height="24.9999mm" version="1.1" style="shape-rendering:geometricPrecision; text-rendering:geometricPrecision; image-rendering:optimizeQuality; fill-rule:evenodd; clip-rule:evenodd"
viewBox="0 0 280 280"
 xmlns:xlink="http://www.w3.org/1999/xlink">
 <defs>
  <style type="text/css">
   <![CDATA[
    .fil1 {fill:#221700;fill-rule:nonzero}
    .fil2 {fill:#664411;fill-rule:nonzero}
    .fil3 {fill:#CC9933;fill-rule:nonzero}
    .fil4 {fill:#FFEEAA;fill-rule:nonzero}
    .fil0 {fill:#FFEEAA;fill-rule:nonzero}
   ]]>
  </style>
 </defs>
 <g id="Ebene_x0020_1">
  <metadata id="CorelCorpID_0Corel-Layer"/>
  <path class="fil0" d="M43 0l195 0c11,0 22,5 30,12 8,8 12,19 12,31l0 195c0,11 -4,22 -12,30 -8,8 -19,12 -30,12l-195 0c-12,0 -23,-4 -31,-12 -7,-8 -12,-19 -12,-30l0 -195c0,-12 5,-23 12,-31 8,-7 19,-12 31,-12z"/>
  <path class="fil1" d="M238 11l-195 0c-9,0 -17,3 -23,9 -6,6 -10,14 -10,23l0 195c0,9 4,17 10,23 6,5 14,9 23,9l195 0c8,0 16,-3 22,-9 6,-6 10,-14 10,-23l0 -195c0,-9 -4,-17 -10,-23 -5,-6 -13,-9 -22,-9z"/>
  <path class="fil2" d="M146 221c25,0 47,-9 63,-28l-27 -30c-8,9 -19,15 -31,15 -25,0 -43,-20 -43,-55 0,-34 18,-54 41,-54 12,0 22,5 30,12l28 -31c-14,-12 -34,-24 -58,-24 -51,0 -92,36 -92,99 0,64 42,96 89,96l0 0 0 0z"/>
  <path class="fil3" d="M41 233l38 0 0 -45 15 0c30,0 57,-15 57,-50 0,-36 -26,-48 -57,-48l-53 0 0 143 0 0zm38 -75l0 -38 14 0c14,0 22,5 22,18 0,13 -7,20 -22,20l-14 0zm124 75l38 0 0 -110 -79 0 0 30 41 0 0 80 0 0zm18 -125c14,0 24,-8 24,-22 0,-13 -10,-22 -24,-22 -14,0 -24,9 -24,22 0,14 10,22 24,22z"/>
  <path class="fil4" d="M108 251c10,0 22,-3 32,-9l-9 -16c-7,3 -13,4 -19,4 -12,0 -19,-4 -22,-13l52 0c0,-2 1,-6 1,-11 0,-22 -13,-39 -38,-39 -22,0 -42,15 -42,42 0,26 19,42 45,42l0 0 0 0zm-2 -63c7,0 12,4 13,11l-28 0c2,-8 7,-11 15,-11l0 0zm42 61l76 0 0 -22 -38 0 37 -44 0 -14 -71 0 0 21 33 0 -37 44 0 15z"/>
 </g>
</svg>
