<?xml version="1.0" encoding="UTF-8"?>
<!DOCTYPE svg PUBLIC "-//W3C//DTD SVG 1.0//EN" "http://www.w3.org/TR/2001/REC-SVG-20010904/DTD/svg10.dtd">
<!-- Creator: CorelDRAW Home & Student X6 -->
<svg xmlns="http://www.w3.org/2000/svg" xml:space="preserve" width="278.418mm" height="175.1mm" version="1.0" shape-rendering="geometricPrecision" text-rendering="geometricPrecision" image-rendering="optimizeQuality" fill-rule="evenodd" clip-rule="evenodd"
viewBox="0 0 28359 17835"
 xmlns:xlink="http://www.w3.org/1999/xlink">
 <g id="Ebene_x0020_1">
  <metadata id="CorelCorpID_0Corel-Layer"/>
  <line fill="none" stroke="black" stroke-width="76.3936" x1="16620" y1="11204" x2="17893" y2= "11204" />
  <g>
   <path fill="#AFDBAF" fill-rule="nonzero" d="M9961 6934l0 -1332 76 0 0 1332 -76 0zm38 195l-99 -198 198 0 -99 198z"/>
  </g>
  <g>
   <path fill="#AFDBAF" fill-rule="nonzero" d="M9961 9990l0 -1332 76 0 0 1332 -76 0zm38 195l-99 -198 198 0 -99 198z"/>
  </g>
  <g>
   <path fill="#AFDBAF" fill-rule="nonzero" d="M9961 13555l0 -1841 76 0 0 1841 -76 0zm38 195l-99 -198 198 0 -99 198z"/>
  </g>
  <g>
   <path fill="#AFDBAF" fill-rule="nonzero" d="M16149 3565l0 509 -76 0 0 -509 38 -38 38 38zm-76 0l0 -38 38 0 -38 38zm2585 38l-2546 0 0 -76 2546 0 38 38 -38 38zm0 -76l38 0 0 38 -38 -38zm-38 352l0 -314 76 0 0 314 -76 0zm38 195l-99 -198 198 0 -99 198z"/>
  </g>
  <g>
   <path fill="#AFDBAF" fill-rule="nonzero" d="M16149 6621l0 509 -76 0 0 -509 38 -38 38 38zm-76 0l0 -38 38 0 -38 38zm2585 38l-2546 0 0 -76 2546 0 38 38 -38 38zm0 -76l38 0 0 38 -38 -38zm-38 352l0 -314 76 0 0 314 -76 0zm38 195l-99 -198 198 0 -99 198z"/>
  </g>
  <g>
   <path fill="#AFDBAF" fill-rule="nonzero" d="M16149 9677l0 509 -76 0 0 -509 38 -38 38 38zm-76 0l0 -38 38 0 -38 38zm2585 38l-2546 0 0 -76 2546 0 38 38 -38 38zm0 -76l38 0 0 38 -38 -38zm-38 352l0 -314 76 0 0 314 -76 0zm38 195l-99 -198 198 0 -99 198z"/>
  </g>
  <g>
   <path fill="#AFDBAF" fill-rule="nonzero" d="M7491 3565l0 509 -76 0 0 -509 38 -38 38 38zm-76 0l0 -38 38 0 -38 38zm2585 38l-2546 0 0 -76 2546 0 38 38 -38 38zm0 -76l38 0 0 38 -38 -38zm-38 352l0 -314 76 0 0 314 -76 0zm38 195l-99 -198 198 0 -99 198z"/>
  </g>
  <line fill="none" stroke="black" stroke-width="76.3936" x1="16620" y1="5093" x2="17893" y2= "5093" />
  <rect fill="#CCFFCC" stroke="black" stroke-width="20.3716" x="18148" y="10695" width="4329" height="1019"/>
  <g>
   <path fill="black" fill-rule="nonzero" d="M18874 12027l0 -568 76 0 0 568 -76 0zm38 195l-99 -198 198 0 -99 198z"/>
  </g>
  <g>
   <path fill="black" fill-rule="nonzero" d="M19128 12282l0 -568 76 0 0 568 -76 0zm38 195l-99 -198 198 0 -99 198z"/>
  </g>
  <rect fill="#FF6600" stroke="black" stroke-width="20.3716" x="20071" y="10822" width="738" height="764" rx="121" ry="125"/>
  <rect fill="#FF6600" stroke="black" stroke-width="20.3716" x="20835" y="10822" width="738" height="764" rx="121" ry="125"/>
  <rect fill="#CCFFCC" stroke="black" stroke-width="20.3716" x="17893" y="10440" width="4329" height="1019"/>
  <g>
   <path fill="black" fill-rule="nonzero" d="M18619 11773l0 -568 76 0 0 568 -76 0zm38 195l-99 -198 198 0 -99 198z"/>
  </g>
  <rect fill="#CCFFCC" stroke="black" stroke-width="20.3716" x="17639" y="10186" width="4329" height="1019"/>
  <rect fill="#FF6600" stroke="black" stroke-width="20.3716" x="19561" y="10313" width="738" height="764" rx="121" ry="125"/>
  <text x="19921" y="10058"  fill="#FF6600" font-weight="normal" font-size="359.325px" font-family="Arial">Instances</text>
  <rect fill="#CCFFCC" stroke="black" stroke-width="20.3716" x="18148" y="4584" width="4329" height="1019"/>
  <g>
   <path fill="black" fill-rule="nonzero" d="M23554 5131l-1841 0 0 -76 1841 0 0 76zm195 -38l-198 99 0 -198 198 99z"/>
  </g>
  <g>
   <path fill="black" fill-rule="nonzero" d="M18874 5916l0 -568 76 0 0 568 -76 0zm38 195l-99 -198 198 0 -99 198z"/>
  </g>
  <g>
   <path fill="black" fill-rule="nonzero" d="M19128 6170l0 -568 76 0 0 568 -76 0zm38 195l-99 -198 198 0 -99 198z"/>
  </g>
  <rect fill="#FF6600" stroke="black" stroke-width="20.3716" x="20071" y="4711" width="738" height="764" rx="121" ry="125"/>
  <rect fill="#FF6600" stroke="black" stroke-width="20.3716" x="20835" y="4711" width="738" height="764" rx="121" ry="125"/>
  <rect fill="#CCFFCC" stroke="black" stroke-width="20.3716" x="17893" y="4329" width="4329" height="1019"/>
  <g>
   <path fill="black" fill-rule="nonzero" d="M18619 5661l0 -568 76 0 0 568 -76 0zm38 195l-99 -198 198 0 -99 198z"/>
  </g>
  <rect fill="#FF6600" stroke="black" stroke-width="20.3716" x="19816" y="4456" width="738" height="764" rx="121" ry="125"/>
  <rect fill="#FF6600" stroke="black" stroke-width="20.3716" x="20580" y="4456" width="738" height="764" rx="121" ry="125"/>
  <rect fill="#FF6600" stroke="black" stroke-width="20.3716" x="21344" y="4456" width="738" height="764" rx="121" ry="125"/>
  <rect fill="#CCFFCC" stroke="black" stroke-width="20.3716" x="17639" y="4074" width="4329" height="1019"/>
  <rect fill="#FF6600" stroke="black" stroke-width="20.3716" x="19561" y="4202" width="738" height="764" rx="121" ry="125"/>
  <text x="19921" y="3946"  fill="#FF6600" font-weight="normal" font-size="359.325px" font-family="Arial">Instances</text>
  <g>
   <path fill="black" fill-rule="nonzero" d="M23045 4622l-2733 0 0 -76 2733 0 0 76zm195 -38l-198 99 0 -198 198 99z"/>
  </g>
  <rect fill="#CCFFCC" stroke="black" stroke-width="20.3716" x="18148" y="7639" width="4329" height="1019"/>
  <g>
   <ellipse fill="#CCCCCC" cx="26915" cy="7955" rx="619" ry="412"/>
   <ellipse fill="#CCCCCC" cx="27235" cy="7480" rx="526" ry="350"/>
   <ellipse fill="#CCCCCC" cx="27637" cy="7955" rx="722" ry="412"/>
   <ellipse fill="#CCCCCC" cx="27768" cy="7555" rx="285" ry="234"/>
  </g>
  <line fill="none" stroke="black" stroke-width="76.3936" x1="7962" y1="7894" x2="8981" y2= "7894" />
  <line fill="none" stroke="black" stroke-width="76.3936" x1="7962" y1="8149" x2="9235" y2= "8149" />
  <g>
   <path fill="black" fill-rule="nonzero" d="M8785 7678l-823 0 0 -76 823 0 0 76zm195 -38l-198 99 0 -198 198 99z"/>
  </g>
  <line fill="none" stroke="black" stroke-width="76.3936" x1="7962" y1="10950" x2="8981" y2= "10950" />
  <line fill="none" stroke="black" stroke-width="76.3936" x1="7962" y1="11204" x2="9235" y2= "11204" />
  <g>
   <path fill="black" fill-rule="nonzero" d="M8785 10733l-823 0 0 -76 823 0 0 76zm195 -38l-198 99 0 -198 198 99z"/>
  </g>
  <line fill="none" stroke="black" stroke-width="76.3936" x1="7962" y1="14515" x2="8981" y2= "14515" />
  <line fill="none" stroke="black" stroke-width="76.3936" x1="7962" y1="14769" x2="9235" y2= "14769" />
  <g>
   <path fill="black" fill-rule="nonzero" d="M8785 14298l-823 0 0 -76 823 0 0 76zm195 -38l-198 99 0 -198 198 99z"/>
  </g>
  <line fill="none" stroke="black" stroke-width="76.3936" x1="16620" y1="10950" x2="17639" y2= "10950" />
  <g>
   <path fill="black" fill-rule="nonzero" d="M17443 10733l-823 0 0 -76 823 0 0 76zm195 -38l-198 99 0 -198 198 99z"/>
  </g>
  <line fill="none" stroke="black" stroke-width="76.3936" x1="16620" y1="4838" x2="17639" y2= "4838" />
  <g>
   <path fill="black" fill-rule="nonzero" d="M17443 4622l-823 0 0 -76 823 0 0 76zm195 -38l-198 99 0 -198 198 99z"/>
  </g>
  <line fill="none" stroke="black" stroke-width="76.3936" x1="16620" y1="7894" x2="17639" y2= "7894" />
  <line fill="none" stroke="black" stroke-width="76.3936" x1="16620" y1="8149" x2="17893" y2= "8149" />
  <g>
   <path fill="black" fill-rule="nonzero" d="M17443 7678l-823 0 0 -76 823 0 0 76zm195 -38l-198 99 0 -198 198 99z"/>
  </g>
  <line fill="none" stroke="black" stroke-width="76.3936" x1="7962" y1="4838" x2="8981" y2= "4838" />
  <line fill="none" stroke="black" stroke-width="76.3936" x1="7962" y1="5093" x2="9235" y2= "5093" />
  <rect fill="#E6E6E6" stroke="black" stroke-width="20.3716" x="2360" y="7894" width="2546" height="1528"/>
  <rect fill="#E6E6E6" stroke="black" stroke-width="20.3716" x="14328" y="764" width="2546" height="1528"/>
  <g>
   <rect fill="#CCFFCC" stroke="black" stroke-width="20.3716" x="9490" y="4584" width="2037" height="1019"/>
   <rect fill="#CCFFCC" stroke="black" stroke-width="20.3716" x="9235" y="4329" width="2037" height="1019"/>
   <rect fill="#CCFFCC" stroke="black" stroke-width="20.3716" x="8981" y="4074" width="2037" height="1019"/>
  </g>
  <text x="9071" y="4738"  fill="black" font-weight="normal" font-size="359.325px" font-family="Arial">cmdGadget</text>
  <rect fill="#FFFF99" stroke="black" stroke-width="20.3716" x="14583" y="4074" width="2037" height="1528"/>
  <text x="15013" y="4738"  fill="black" font-weight="normal" font-size="359.325px" font-family="Arial">Gadget</text>
  <text x="18098" y="4738"  fill="black" font-weight="normal" font-size="359.325px" font-family="Arial">ggXXX</text>
  <g>
   <path fill="black" fill-rule="nonzero" d="M14387 4876l-3115 0 0 -76 3115 0 0 76zm195 -38l-198 99 0 -198 198 99z"/>
  </g>
  <rect fill="#FFFF99" stroke="black" stroke-width="20.3716" x="5925" y="4074" width="2037" height="11714"/>
  <text x="6565" y="4738"  fill="black" font-weight="normal" font-size="359.325px" font-family="Arial">Cmd</text>
  <g>
   <rect fill="#CCFFCC" stroke="black" stroke-width="20.3716" x="9490" y="7639" width="2037" height="1019"/>
   <rect fill="#CCFFCC" stroke="black" stroke-width="20.3716" x="9235" y="7385" width="2037" height="1019"/>
   <rect fill="#CCFFCC" stroke="black" stroke-width="20.3716" x="8981" y="7130" width="2037" height="1019"/>
  </g>
  <text x="8951" y="7794"  fill="black" font-weight="normal" font-size="359.325px" font-family="Arial">cmdGateway</text>
  <rect fill="#FFFF99" stroke="black" stroke-width="20.3716" x="14583" y="7130" width="2037" height="1528"/>
  <text x="14893" y="7794"  fill="black" font-weight="normal" font-size="359.325px" font-family="Arial">Gateway</text>
  <g>
   <rect fill="#CCFFCC" stroke="black" stroke-width="20.3716" x="9490" y="10695" width="2037" height="1019"/>
   <rect fill="#CCFFCC" stroke="black" stroke-width="20.3716" x="9235" y="10440" width="2037" height="1019"/>
   <rect fill="#CCFFCC" stroke="black" stroke-width="20.3716" x="8981" y="10186" width="2037" height="1019"/>
  </g>
  <text x="9291" y="10849"  fill="black" font-weight="normal" font-size="359.325px" font-family="Arial">cmdRule</text>
  <rect fill="#FFFF99" stroke="black" stroke-width="20.3716" x="14583" y="10186" width="2037" height="1528"/>
  <text x="15233" y="10849"  fill="black" font-weight="normal" font-size="359.325px" font-family="Arial">Rule</text>
  <text x="18199" y="10849"  fill="black" font-weight="normal" font-size="359.325px" font-family="Arial">rlXXX</text>
  <g>
   <rect fill="#CCFFCC" stroke="black" stroke-width="20.3716" x="9490" y="14260" width="2037" height="1019"/>
   <rect fill="#CCFFCC" stroke="black" stroke-width="20.3716" x="9235" y="14005" width="2037" height="1019"/>
   <rect fill="#CCFFCC" stroke="black" stroke-width="20.3716" x="8981" y="13751" width="2037" height="1019"/>
  </g>
  <text x="9301" y="14415"  fill="black" font-weight="normal" font-size="359.325px" font-family="Arial">cmdXXX</text>
  <rect fill="#FFFF99" stroke="black" stroke-width="20.3716" x="2615" y="8149" width="2037" height="1019"/>
  <text x="2625" y="8812"  fill="black" font-weight="normal" font-size="359.325px" font-family="Arial">TelnetServer</text>
  <g>
   <path fill="black" fill-rule="nonzero" d="M5729 8696l-823 0 0 -76 823 0 0 76zm195 -38l-198 99 0 -198 198 99z"/>
  </g>
  <rect fill="#FFFF99" stroke="black" stroke-width="20.3716" x="14583" y="1019" width="2037" height="1019"/>
  <text x="15150" y="1682"  fill="black" font-weight="normal" font-size="359.325px" font-family="Arial">Timer</text>
  <text x="15988" y="4339"  fill="#AFDBAF" font-weight="normal" font-size="268.498px" font-family="Arial">{ }</text>
  <text x="15988" y="7413"  fill="#AFDBAF" font-weight="normal" font-size="268.498px" font-family="Arial">{ }</text>
  <text x="15988" y="10487"  fill="#AFDBAF" font-weight="normal" font-size="268.498px" font-family="Arial">{ }</text>
  <text x="7326" y="4339"  fill="#AFDBAF" font-weight="normal" font-size="268.498px" font-family="Arial">{ }</text>
  <rect fill="#FFFF99" stroke="black" stroke-width="20.3716" x="2615" y="1528" width="2037" height="1019"/>
  <text x="3154" y="2192"  fill="black" font-weight="normal" font-size="359.325px" font-family="Arial">ezPiC</text>
  <g>
   <path fill="black" fill-rule="nonzero" d="M18110 12478l0 -1273 76 0 0 1273 -38 38 -38 -38zm76 0l0 38 -38 0 38 -38zm-10028 -38l9990 0 0 76 -9990 0 0 -76zm-195 38l198 -99 0 198 -198 -99z"/>
  </g>
  <rect fill="#E6E6E6" stroke="black" stroke-width="20.3716" x="2360" y="9931" width="2546" height="1528"/>
  <rect fill="#FFFF99" stroke="black" stroke-width="20.3716" x="2615" y="10186" width="2037" height="1019"/>
  <text x="3334" y="10849"  fill="black" font-weight="normal" font-size="359.325px" font-family="Arial">???</text>
  <g>
   <path fill="black" fill-rule="nonzero" d="M5729 10733l-823 0 0 -76 823 0 0 76zm195 -38l-198 99 0 -198 198 99z"/>
  </g>
  <g>
   <path fill="black" fill-rule="nonzero" d="M23554 8187l-1841 0 0 -76 1841 0 0 76zm195 -38l-198 99 0 -198 198 99z"/>
  </g>
  <g>
   <path fill="#B3B3B3" fill-rule="nonzero" d="M5475 2075l-823 0 0 -76 823 0 0 76zm195 -38l-198 99 0 -198 198 99z"/>
  </g>
  <text x="5907" y="2192"  fill="#B3B3B3" font-weight="normal" font-size="359.325px" font-family="Arial">init</text>
  <g>
   <path fill="black" fill-rule="nonzero" d="M8785 4622l-823 0 0 -76 823 0 0 76zm195 -38l-198 99 0 -198 198 99z"/>
  </g>
  <path fill="#FF3399" stroke="black" stroke-width="20.3716" d="M16569 7385l51 0 0 1019 -51 0c-112,0 -204,-92 -204,-204l0 -611c0,-112 92,-204 204,-204z"/>
  <path fill="#FF3399" stroke="black" stroke-width="20.3716" d="M16569 4329l51 0 0 1019 -51 0c-112,0 -204,-92 -204,-204l0 -611c0,-112 92,-204 204,-204z"/>
  <path fill="#FF3399" stroke="black" stroke-width="20.3716" d="M16569 10440l51 0 0 1019 -51 0c-112,0 -204,-92 -204,-204l0 -611c0,-112 92,-204 204,-204z"/>
  <path fill="#FF3399" stroke="black" stroke-width="20.3716" d="M15551 1783l102 0c112,0 204,92 204,204l0 51 -509 0 0 -51c0,-112 92,-204 204,-204z"/>
  <text x="7743" y="3401"  fill="#AFDBAF" font-weight="normal" font-size="359.325px" font-family="Arial">load Plugins</text>
  <text x="16401" y="3401"  fill="#AFDBAF" font-weight="normal" font-size="359.325px" font-family="Arial">load Plugins</text>
  <rect fill="#FFFF99" stroke="black" stroke-width="20.3716" x="17893" y="13496" width="2037" height="1528"/>
  <text x="18243" y="14160"  fill="black" font-weight="normal" font-size="359.325px" font-family="Arial">Reading</text>
  <text x="20945" y="14541"  fill="black" font-weight="normal" font-size="1085.9px" font-family="Arial">{ }</text>
  <g>
   <path fill="black" fill-rule="nonzero" d="M20753 14298l-823 0 0 -76 823 0 0 76zm195 -38l-198 99 0 -198 198 99z"/>
  </g>
  <path fill="#FF3399" stroke="black" stroke-width="20.3716" d="M19880 14005l51 0 0 509 -51 0c-112,0 -204,-92 -204,-204l0 -102c0,-112 92,-204 204,-204z"/>
  <g>
   <path fill="black" fill-rule="nonzero" d="M18874 8972l0 -568 76 0 0 568 -76 0zm38 195l-99 -198 198 0 -99 198z"/>
  </g>
  <g>
   <path fill="black" fill-rule="nonzero" d="M19128 9226l0 -568 76 0 0 568 -76 0zm38 195l-99 -198 198 0 -99 198z"/>
  </g>
  <g>
   <path fill="black" fill-rule="nonzero" d="M18619 13300l0 -568 76 0 0 568 -76 0zm38 195l-99 -198 198 0 -99 198z"/>
  </g>
  <g>
   <path fill="black" fill-rule="nonzero" d="M18874 13300l0 -568 76 0 0 568 -76 0zm38 195l-99 -198 198 0 -99 198z"/>
  </g>
  <g>
   <path fill="black" fill-rule="nonzero" d="M19128 13300l0 -568 76 0 0 568 -76 0zm38 195l-99 -198 198 0 -99 198z"/>
  </g>
  <g>
   <path fill="black" fill-rule="nonzero" d="M15563 2605l0 -568 76 0 0 568 -76 0zm38 195l-99 -198 198 0 -99 198z"/>
  </g>
  <g>
   <path fill="black" fill-rule="nonzero" d="M15563 3879l0 -568 76 0 0 568 -76 0zm38 195l-99 -198 198 0 -99 198z"/>
  </g>
  <g>
   <path fill="black" fill-rule="nonzero" d="M15563 6934l0 -568 76 0 0 568 -76 0zm38 195l-99 -198 198 0 -99 198z"/>
  </g>
  <g>
   <path fill="black" fill-rule="nonzero" d="M15563 9990l0 -568 76 0 0 568 -76 0zm38 195l-99 -198 198 0 -99 198z"/>
  </g>
  <g>
   <path fill="black" fill-rule="nonzero" d="M5729 6659l-4388 0 0 -76 4388 0 0 76zm195 -38l-198 99 0 -198 198 99z"/>
  </g>
  <polyline fill="none" stroke="black" stroke-width="76.3936" points="11527,5093 12037,5093 12291,4838 12037,4584 11018,4584 "/>
  <g>
   <path fill="black" fill-rule="nonzero" d="M14387 7932l-3115 0 0 -76 3115 0 0 76zm195 -38l-198 99 0 -198 198 99z"/>
  </g>
  <g>
   <path fill="black" fill-rule="nonzero" d="M14387 10988l-3115 0 0 -76 3115 0 0 76zm195 -38l-198 99 0 -198 198 99z"/>
  </g>
  <polyline fill="none" stroke="black" stroke-width="76.3936" points="11527,8149 12037,8149 12291,7894 12037,7639 11018,7639 "/>
  <polyline fill="none" stroke="black" stroke-width="76.3936" points="11527,11204 12037,11204 12291,10950 12037,10695 11018,10695 "/>
  <text x="14570" y="5572"  fill="gray" font-weight="normal" font-size="143.732px" font-family="Arial">./dev/Gadget.py</text>
  <g>
   <path fill="#003399" fill-rule="nonzero" d="M2223 8734l-627 0 0 -153 627 0 0 153zm391 -76l-396 198 0 -396 396 198z"/>
  </g>
  <g>
   <path fill="red" fill-rule="nonzero" d="M2223 10772l-627 0 0 -153 627 0 0 153zm391 -76l-396 198 0 -396 396 198z"/>
  </g>
  <text x="372" y="8713"  fill="#003399" font-weight="normal" font-size="359.325px" font-family="Arial">Telnet</text>
  <text x="-28" y="9115"  fill="#003399" font-weight="normal" font-size="359.325px" font-family="Arial">Port 23101</text>
  <text x="73" y="505"  fill="black" font-weight="bold" font-size="503.067px" font-family="Arial">ezPiC IoT-Device-Part</text>
  <text x="14570" y="8628"  fill="gray" font-weight="normal" font-size="143.732px" font-family="Arial">./dev/Gateway.py</text>
  <text x="17626" y="5063"  fill="gray" font-weight="normal" font-size="143.732px" font-family="Arial">./dev/plugins/gadgets/ggXXX.py</text>
  <text x="14570" y="11684"  fill="gray" font-weight="normal" font-size="143.732px" font-family="Arial">./dev/Rule.py</text>
  <text x="5912" y="15758"  fill="gray" font-weight="normal" font-size="143.732px" font-family="Arial">./dev/Cmd.py</text>
  <text x="8968" y="14739"  fill="gray" font-weight="normal" font-size="143.732px" font-family="Arial">./dev/plugins/cmd/cmdXXX.py</text>
  <text x="17626" y="11174"  fill="gray" font-weight="normal" font-size="143.732px" font-family="Arial">./dev/plugins/rules/rlXXX.py</text>
  <text x="2602" y="9137"  fill="gray" font-weight="normal" font-size="143.732px" font-family="Arial">./dev/TelnerServer.py</text>
  <text x="17880" y="14994"  fill="gray" font-weight="normal" font-size="143.732px" font-family="Arial">./dev/Reading.py</text>
  <text x="14570" y="2007"  fill="gray" font-weight="normal" font-size="143.732px" font-family="Arial">./dev/Timer.py</text>
  <text x="2602" y="2516"  fill="gray" font-weight="normal" font-size="143.732px" font-family="Arial">./ezPiC.py</text>
  <g>
   <path fill="#B3B3B3" fill-rule="nonzero" d="M5729 4367l-823 0 0 -76 823 0 0 76zm195 -38l-198 99 0 -198 198 99z"/>
  </g>
  <text x="4255" y="4437"  fill="#B3B3B3" font-weight="normal" font-size="359.325px" font-family="Arial">init</text>
  <g>
   <path fill="#B3B3B3" fill-rule="nonzero" d="M14387 4367l-823 0 0 -76 823 0 0 76zm195 -38l-198 99 0 -198 198 99z"/>
  </g>
  <text x="12913" y="4437"  fill="#B3B3B3" font-weight="normal" font-size="359.325px" font-family="Arial">init</text>
  <g>
   <path fill="#B3B3B3" fill-rule="nonzero" d="M14387 7423l-823 0 0 -76 823 0 0 76zm195 -38l-198 99 0 -198 198 99z"/>
  </g>
  <text x="12913" y="7493"  fill="#B3B3B3" font-weight="normal" font-size="359.325px" font-family="Arial">init</text>
  <g>
   <path fill="#B3B3B3" fill-rule="nonzero" d="M14387 10479l-823 0 0 -76 823 0 0 76zm195 -38l-198 99 0 -198 198 99z"/>
  </g>
  <text x="12913" y="10549"  fill="#B3B3B3" font-weight="normal" font-size="359.325px" font-family="Arial">init</text>
  <g>
   <path fill="#B3B3B3" fill-rule="nonzero" d="M17698 13789l-823 0 0 -76 823 0 0 76zm195 -38l-198 99 0 -198 198 99z"/>
  </g>
  <text x="16224" y="13859"  fill="#B3B3B3" font-weight="normal" font-size="359.325px" font-family="Arial">init</text>
  <g>
   <path fill="#B3B3B3" fill-rule="nonzero" d="M14387 1311l-823 0 0 -76 823 0 0 76zm195 -38l-198 99 0 -198 198 99z"/>
  </g>
  <text x="12913" y="1382"  fill="#B3B3B3" font-weight="normal" font-size="359.325px" font-family="Arial">init</text>
  <rect fill="#FFFF99" stroke="black" stroke-width="20.3716" x="17893" y="16297" width="2037" height="1528"/>
  <text x="20945" y="17342"  fill="black" font-weight="normal" font-size="1085.9px" font-family="Arial">{ }</text>
  <g>
   <path fill="black" fill-rule="nonzero" d="M20753 17099l-823 0 0 -76 823 0 0 76zm195 -38l-198 99 0 -198 198 99z"/>
  </g>
  <path fill="#FF3399" stroke="black" stroke-width="20.3716" d="M19880 16807l51 0 0 509 -51 0c-112,0 -204,-92 -204,-204l0 -102c0,-112 92,-204 204,-204z"/>
  <g>
   <path fill="black" fill-rule="nonzero" d="M18619 16102l0 -568 76 0 0 568 -76 0zm38 195l-99 -198 198 0 -99 198z"/>
  </g>
  <g>
   <path fill="black" fill-rule="nonzero" d="M18874 16102l0 -568 76 0 0 568 -76 0zm38 195l-99 -198 198 0 -99 198z"/>
  </g>
  <g>
   <path fill="black" fill-rule="nonzero" d="M19128 16102l0 -568 76 0 0 568 -76 0zm38 195l-99 -198 198 0 -99 198z"/>
  </g>
  <text x="17880" y="17795"  fill="gray" font-weight="normal" font-size="143.732px" font-family="Arial">./dev/SysConfig.py</text>
  <rect fill="#FF6600" stroke="black" stroke-width="20.3716" x="20071" y="7767" width="738" height="764" rx="121" ry="125"/>
  <rect fill="#CCFFCC" stroke="black" stroke-width="20.3716" x="17893" y="7385" width="4329" height="1019"/>
  <g>
   <path fill="black" fill-rule="nonzero" d="M18619 8717l0 -568 76 0 0 568 -76 0zm38 195l-99 -198 198 0 -99 198z"/>
  </g>
  <rect fill="#FF6600" stroke="black" stroke-width="20.3716" x="19816" y="7512" width="738" height="764" rx="121" ry="125"/>
  <rect fill="#FF6600" stroke="black" stroke-width="20.3716" x="20580" y="7512" width="738" height="764" rx="121" ry="125"/>
  <rect fill="#FF6600" stroke="black" stroke-width="20.3716" x="21344" y="7512" width="738" height="764" rx="121" ry="125"/>
  <rect fill="#CCFFCC" stroke="black" stroke-width="20.3716" x="17639" y="7130" width="4329" height="1019"/>
  <rect fill="#FF6600" stroke="black" stroke-width="20.3716" x="19561" y="7257" width="738" height="764" rx="121" ry="125"/>
  <rect fill="#FF6600" stroke="black" stroke-width="20.3716" x="20325" y="7257" width="738" height="764" rx="121" ry="125"/>
  <text x="19921" y="7002"  fill="#FF6600" font-weight="normal" font-size="359.325px" font-family="Arial">Instances</text>
  <g>
   <path fill="black" fill-rule="nonzero" d="M23045 7678l-1981 0 0 -76 1981 0 0 76zm195 -38l-198 99 0 -198 198 99z"/>
  </g>
  <text x="18069" y="7794"  fill="black" font-weight="normal" font-size="359.325px" font-family="Arial">gwXXX</text>
  <text x="17626" y="8118"  fill="gray" font-weight="normal" font-size="143.732px" font-family="Arial">./dev/plugins/gateways/gwXXX.py</text>
  <g>
   <path fill="black" fill-rule="nonzero" d="M23300 7932l-1218 0 0 -76 1218 0 0 76zm195 -38l-198 99 0 -198 198 99z"/>
  </g>
  <g>
   <rect fill="#FFCC99" stroke="black" stroke-width="20.3716" x="23750" y="7639" width="2037" height="1019"/>
   <rect fill="#FFCC99" stroke="black" stroke-width="20.3716" x="23496" y="7385" width="2037" height="1019"/>
   <rect fill="#FFCC99" stroke="black" stroke-width="20.3716" x="23241" y="7130" width="2037" height="1019"/>
  </g>
  <text x="23621" y="7794"  fill="black" font-weight="normal" font-size="359.325px" font-family="Arial">MQTT...</text>
  <g>
   <path fill="red" fill-rule="nonzero" d="M25905 7716l-627 0 0 -153 627 0 0 153zm391 -76l-396 198 0 -396 396 198z"/>
  </g>
  <g>
   <path fill="red" fill-rule="nonzero" d="M26160 7970l-627 0 0 -153 627 0 0 153zm391 -76l-396 198 0 -396 396 198z"/>
  </g>
  <g>
   <path fill="red" fill-rule="nonzero" d="M26415 8225l-627 0 0 -153 627 0 0 153zm391 -76l-396 198 0 -396 396 198z"/>
  </g>
  <g>
   <path fill="black" fill-rule="nonzero" d="M23300 4876l-1218 0 0 -76 1218 0 0 76zm195 -38l-198 99 0 -198 198 99z"/>
  </g>
  <g>
   <rect fill="#FFCC99" stroke="black" stroke-width="20.3716" x="23750" y="4584" width="2037" height="1019"/>
   <rect fill="#FFCC99" stroke="black" stroke-width="20.3716" x="23496" y="4329" width="2037" height="1019"/>
   <rect fill="#FFCC99" stroke="black" stroke-width="20.3716" x="23241" y="4074" width="2037" height="1019"/>
  </g>
  <text x="23661" y="4738"  fill="black" font-weight="normal" font-size="359.325px" font-family="Arial">GPIO...</text>
  <g>
   <path fill="black" fill-rule="nonzero" d="M25905 4660l-627 0 0 -153 627 0 0 153zm391 -76l-396 198 0 -396 396 198z"/>
  </g>
  <g>
   <path fill="black" fill-rule="nonzero" d="M26160 4915l-627 0 0 -153 627 0 0 153zm391 -76l-396 198 0 -396 396 198z"/>
  </g>
  <g>
   <path fill="black" fill-rule="nonzero" d="M26415 5169l-627 0 0 -153 627 0 0 153zm391 -76l-396 198 0 -396 396 198z"/>
  </g>
  <g>
   <rect fill="#CCCCCC" x="26820" y="4096" width="99.0288" height="99.0288"/>
   <rect fill="#CCCCCC" x="26820" y="4294" width="99.0288" height="99.0288"/>
   <rect fill="#CCCCCC" x="26820" y="4492" width="99.0288" height="99.0288"/>
   <rect fill="#CCCCCC" x="26820" y="4690" width="99.0288" height="99.0288"/>
   <rect fill="#CCCCCC" x="26820" y="4888" width="99.0288" height="99.0288"/>
   <rect fill="#CCCCCC" x="26820" y="5086" width="99.0288" height="99.0288"/>
   <rect fill="#CCCCCC" x="26820" y="5284" width="99.0288" height="99.0288"/>
   <rect fill="#CCCCCC" x="26820" y="5482" width="99.0288" height="99.0288"/>
   <rect fill="#CCCCCC" x="27711" y="4294" width="99.0288" height="99.0288"/>
   <rect fill="#CCCCCC" x="27711" y="4492" width="99.0288" height="99.0288"/>
   <rect fill="#CCCCCC" x="27711" y="4690" width="99.0288" height="99.0288"/>
   <rect fill="#CCCCCC" x="27711" y="4888" width="99.0288" height="99.0288"/>
   <rect fill="#CCCCCC" x="27711" y="5086" width="99.0288" height="99.0288"/>
   <rect fill="#CCCCCC" x="27711" y="5284" width="99.0288" height="99.0288"/>
   <rect fill="#CCCCCC" x="27711" y="5482" width="99.0288" height="99.0288"/>
   <rect fill="#CCCCCC" x="27711" y="4096" width="99.0288" height="99.0288"/>
   <path fill="#CCCCCC" d="M26919 3947l297 0c0,55 44,99 99,99 55,0 99,-44 99,-99l297 0 0 1783 -792 0 0 -1783z"/>
  </g>
  <text x="18094" y="16961"  fill="black" font-weight="normal" font-size="359.325px" font-family="Arial">SysConfig</text>
  <g>
   <path fill="#B3B3B3" fill-rule="nonzero" d="M17748 16590l-823 0 0 -76 823 0 0 76zm195 -38l-198 99 0 -198 198 99z"/>
  </g>
  <text x="16274" y="16660"  fill="#B3B3B3" font-weight="normal" font-size="359.325px" font-family="Arial">init</text>
  <g>
   <path fill="black" d="M26949 0l746 0c79,0 143,64 143,143l0 746c0,79 -64,143 -143,143l-746 0c-79,0 -143,-64 -143,-143l0 -746c0,-79 64,-143 143,-143z"/>
   <path fill="#666666" fill-rule="nonzero" d="M27344 823c97,0 181,-35 241,-106l-104 -115c-31,33 -71,57 -117,57 -97,0 -166,-75 -166,-210 0,-130 68,-208 157,-208 49,0 84,18 117,46l104 -117c-51,-49 -128,-93 -221,-93 -194,0 -351,137 -351,378 0,245 161,367 340,367l0 0z"/>
   <path fill="#999999" fill-rule="nonzero" d="M26944 870l144 0 0 -173 60 0c114,0 218,-58 218,-191 0,-137 -101,-181 -218,-181l-204 0 0 545zm144 -287l0 -144 54 0c54,0 84,18 84,67 0,49 -27,77 -84,77l-54 0zm476 287l144 0 0 -419 -303 0 0 112 159 0 0 307zm67 -476c54,0 92,-34 92,-84 0,-50 -39,-85 -92,-85 -54,0 -92,35 -92,85 0,50 39,84 92,84z"/>
   <path fill="#DDDDDD" fill-rule="nonzero" d="M27198 940c38,0 86,-12 123,-36l-34 -63c-27,12 -49,18 -74,18 -45,0 -72,-15 -81,-49l198 0c1,-7 4,-26 4,-44 0,-83 -49,-149 -147,-149 -83,0 -161,60 -161,161 0,102 75,161 172,161l0 0zm-7 -243c29,0 45,15 49,44l-108 0c9,-30 28,-44 58,-44zm161 235l292 0 0 -83 -147 0 143 -169 0 -57 -271 0 0 83 124 0 -142 169 0 57z"/>
  </g>
  <path fill="#FF3399" stroke="black" stroke-width="20.3716" d="M24209 13913l51 0 0 509 -51 0c-112,0 -204,-92 -204,-204l0 -102c0,-112 92,-204 204,-204z"/>
  <text x="24742" y="14256"  fill="black" font-weight="normal" font-size="359.325px" font-family="Arial">Mutex</text>
  <rect fill="#FF6600" stroke="black" stroke-width="20.3716" x="23886" y="14931" width="492" height="509" rx="81" ry="83"/>
  <text x="24735" y="15275"  fill="black" font-weight="normal" font-size="359.325px" font-family="Arial">Instance of active XXX</text>
  <g>
   <rect fill="#E6E6E6" stroke="black" stroke-width="20.3716" x="23708" y="15950" width="849" height="509"/>
   <rect fill="#FFFF99" stroke="black" stroke-width="20.3716" x="23793" y="16035" width="679" height="340"/>
   <text x="24033" y="16256"  fill="black" font-weight="normal" font-size="119.765px" font-family="Arial">???</text>
  </g>
  <text x="24761" y="16293"  fill="black" font-weight="normal" font-size="359.325px" font-family="Arial">Tread</text>
  <text x="23876" y="17364"  fill="black" font-weight="normal" font-size="542.945px" font-family="Arial">{ }</text>
  <text x="24769" y="17316"  fill="black" font-weight="normal" font-size="359.325px" font-family="Arial">Storage</text>
  <text x="23212" y="3946"  fill="#FFCC99" font-weight="normal" font-size="359.325px" font-family="Arial">external Libs</text>
  <text x="23241" y="7002"  fill="#FFCC99" font-weight="normal" font-size="359.325px" font-family="Arial">external Libs</text>
  <text x="2830" y="6457"  fill="#999999" font-weight="normal" font-size="359.325px" font-family="Arial">direct Call</text>
  <text x="19258" y="4339"  fill="#FF6600" font-weight="normal" font-size="268.498px" font-family="Arial">{ }</text>
  <text x="19258" y="7413"  fill="#FF6600" font-weight="normal" font-size="268.498px" font-family="Arial">{ }</text>
  <text x="19258" y="10487"  fill="#FF6600" font-weight="normal" font-size="268.498px" font-family="Arial">{ }</text>
  <text x="16401" y="6457"  fill="#AFDBAF" font-weight="normal" font-size="359.325px" font-family="Arial">load Plugins</text>
  <text x="16401" y="9513"  fill="#AFDBAF" font-weight="normal" font-size="359.325px" font-family="Arial">load Plugins</text>
  <g>
   <path fill="black" fill-rule="nonzero" d="M17698 14298l-6680 0 0 -76 6680 0 0 76zm195 -38l-198 99 0 -198 198 99z"/>
  </g>
  <g>
   <path fill="black" fill-rule="nonzero" d="M17893 17061l-198 99 0 -198 198 99zm-2292 -38l2096 0 0 76 -2096 0 -38 -38 38 -38zm0 76l-38 0 0 -38 38 38zm38 -2585l0 2546 -76 0 0 -2546 38 -38 38 38zm-38 -38l38 0 0 38 -38 -38zm-4329 0l4329 0 0 76 -4329 0 0 -76z"/>
  </g>
  <g>
   <path fill="black" fill-rule="nonzero" d="M13564 15788l-99 -198 198 0 -99 198zm38 -1018l0 823 -76 0 0 -823 38 -38 38 38zm-38 -38l38 0 0 38 -38 -38zm-2037 0l2037 0 0 76 -2037 0 0 -76z"/>
  </g>
  <text x="13112" y="16197"  fill="black" font-weight="normal" font-size="1085.9px" font-family="Arial">...</text>
 </g>
</svg>
