<?xml version="1.0" encoding="UTF-8"?>
<!DOCTYPE svg PUBLIC "-//W3C//DTD SVG 1.0//EN" "http://www.w3.org/TR/2001/REC-SVG-20010904/DTD/svg10.dtd">
<!-- Creator: CorelDRAW Home & Student X6 -->
<svg xmlns="http://www.w3.org/2000/svg" xml:space="preserve" width="202.86mm" height="160.1mm" version="1.0" shape-rendering="geometricPrecision" text-rendering="geometricPrecision" image-rendering="optimizeQuality" fill-rule="evenodd" clip-rule="evenodd"
viewBox="0 0 18499 14600"
 xmlns:xlink="http://www.w3.org/1999/xlink">
 <g id="Ebene_x0020_1">
  <metadata id="CorelCorpID_0Corel-Layer"/>
  <g id="_568806424">
   <polygon fill="#F4F4F4" stroke="black" stroke-width="18.2385" points="5720,12767 6860,12767 7088,12995 7088,14591 5720,14591 "/>
   <polygon fill="#E6E6E6" stroke="black" stroke-width="18.2385" stroke-linejoin="bevel" points="6860,12995 6860,12767 7088,12995 "/>
  </g>
  <text x="6056" y="13793"  fill="black" font-weight="normal" font-size="321.699px" font-family="Arial">PNG</text>
  <g>
   <path fill="#AFDBAF" fill-rule="nonzero" d="M3475 3192l0 456 -68 0 0 -456 34 -34 34 34zm-68 0l0 -34 34 0 -34 34zm2314 34l-2280 0 0 -68 2280 0 34 34 -34 34zm0 -68l34 0 0 34 -34 -34zm-34 315l0 -281 68 0 0 281 -68 0zm34 175l-89 -177 177 0 -89 177z"/>
  </g>
  <line fill="none" stroke="#FF6633" stroke-width="91.1924" stroke-linejoin="round" stroke-dasharray="91.192371 91.192371" x1="14155" y1="456" x2="14155" y2= "5472" />
  <g>
   <polygon fill="#F4F4F4" stroke="black" stroke-width="18.2385" points="4580,12767 5720,12767 5948,12995 5948,14591 4580,14591 "/>
   <polygon fill="#E6E6E6" stroke="black" stroke-width="18.2385" stroke-linejoin="bevel" points="5720,12995 5720,12767 5948,12995 "/>
  </g>
  <text x="5077" y="13793"  fill="black" font-weight="normal" font-size="321.699px" font-family="Arial">JS</text>
  <g>
   <ellipse fill="#CCCCCC" cx="13790" cy="2854" rx="554" ry="369"/>
   <ellipse fill="#CCCCCC" cx="14076" cy="2429" rx="471" ry="314"/>
   <ellipse fill="#CCCCCC" cx="14436" cy="2854" rx="646" ry="369"/>
   <ellipse fill="#CCCCCC" cx="14553" cy="2496" rx="255" ry="210"/>
  </g>
  <g>
   <path fill="black" fill-rule="nonzero" d="M10052 4138l-684 0 0 -68 684 0 34 34 -34 34zm34 -34l0 34 -34 0 34 -34zm0 -1368l0 1368 -68 0 0 -1368 34 -34 34 34zm-68 0l0 -34 34 0 -34 34zm543 34l-509 0 0 -68 509 0 0 68zm175 -34l-177 89 0 -177 177 89z"/>
  </g>
  <g>
   <path fill="black" fill-rule="nonzero" d="M15576 4594l-6208 0 0 -68 6208 0 0 68zm175 -34l-177 89 0 -177 177 89z"/>
  </g>
  <g>
   <polygon fill="#F4F4F4" stroke="black" stroke-width="18.2385" points="3440,12767 4580,12767 4808,12995 4808,14591 3440,14591 "/>
   <polygon fill="#E6E6E6" stroke="black" stroke-width="18.2385" stroke-linejoin="bevel" points="4580,12995 4580,12767 4808,12995 "/>
  </g>
  <text x="3794" y="13793"  fill="black" font-weight="normal" font-size="321.699px" font-family="Arial">CSS</text>
  <g>
   <path fill="black" fill-rule="nonzero" d="M3897 4332l177 -89 0 177 -177 -89zm912 34l-737 0 0 -68 737 0 0 68z"/>
  </g>
  <g>
   <path fill="black" fill-rule="nonzero" d="M3897 4560l177 -89 0 177 -177 -89zm1140 34l-965 0 0 -68 965 0 0 68z"/>
  </g>
  <g>
   <path fill="black" fill-rule="nonzero" d="M3897 4104l177 -89 0 177 -177 -89zm736 34l-561 0 0 -68 561 0 0 68zm175 -34l-177 89 0 -177 177 89z"/>
  </g>
  <rect fill="#E6E6E6" stroke="black" stroke-width="18.2385" x="1844" y="7979" width="2280" height="4104"/>
  <rect fill="#FFFF99" stroke="black" stroke-width="18.2385" x="2072" y="3648" width="1824" height="3192"/>
  <text x="2657" y="4242"  fill="black" font-weight="normal" font-size="321.699px" font-family="Arial">Web</text>
  <g>
   <rect fill="#CCFFCC" stroke="black" stroke-width="18.2385" x="5264" y="4104" width="1824" height="912"/>
   <rect fill="#CCFFCC" stroke="black" stroke-width="18.2385" x="5036" y="3876" width="1824" height="912"/>
   <rect fill="#CCFFCC" stroke="black" stroke-width="18.2385" x="4808" y="3648" width="1824" height="912"/>
  </g>
  <text x="5104" y="4242"  fill="black" font-weight="normal" font-size="321.699px" font-family="Arial">webXXX</text>
  <rect fill="#FFCC99" stroke="black" stroke-width="18.2385" x="2072" y="8207" width="1824" height="2280"/>
  <text x="2112" y="8801"  fill="black" font-weight="normal" font-size="321.699px" font-family="Arial">MicroWebS.</text>
  <g>
   <path fill="#AFDBAF" fill-rule="nonzero" d="M3897 8891l177 -89 0 177 -177 -89zm1824 34l-1649 0 0 -68 1649 0 34 34 -34 34zm34 -34l0 34 -34 0 34 -34zm0 -4104l0 4104 -68 0 0 -4104 68 0z"/>
  </g>
  <line fill="none" stroke="gray" stroke-width="68.3943" x1="2984" y1="11855" x2="2984" y2= "12767" />
  <g>
   <path fill="#FF6600" fill-rule="nonzero" d="M2072 9347l-355 177 0 -355 355 177zm-911 -68l561 0 0 137 -561 0 0 -137z"/>
  </g>
  <text x="3327" y="3885"  fill="#AFDBAF" font-weight="normal" font-size="240.383px" font-family="Arial">{ }</text>
  <g>
   <path fill="black" fill-rule="nonzero" d="M2984 8207l-89 -177 177 0 -89 177zm34 -1192l0 1017 -68 0 0 -1017 68 0zm-34 -175l89 177 -177 0 89 -177z"/>
  </g>
  <g>
   <polygon fill="#F4F4F4" stroke="black" stroke-width="18.2385" points="2300,12767 3440,12767 3668,12995 3668,14591 2300,14591 "/>
   <polygon fill="#E6E6E6" stroke="black" stroke-width="18.2385" stroke-linejoin="bevel" points="3440,12995 3440,12767 3668,12995 "/>
  </g>
  <text x="2547" y="13793"  fill="black" font-weight="normal" font-size="321.699px" font-family="Arial">HTML</text>
  <rect fill="#FFFF99" stroke="black" stroke-width="18.2385" x="705" y="1368" width="1824" height="912"/>
  <text x="1188" y="1962"  fill="black" font-weight="normal" font-size="321.699px" font-family="Arial">ezPiC</text>
  <g>
   <path fill="#B3B3B3" fill-rule="nonzero" d="M3265 1858l-737 0 0 -68 737 0 0 68zm175 -34l-177 89 0 -177 177 89z"/>
  </g>
  <text x="3652" y="1962"  fill="#B3B3B3" font-weight="normal" font-size="321.699px" font-family="Arial">init</text>
  <rect fill="#FFFF99" stroke="black" stroke-width="18.2385" x="15751" y="4104" width="1824" height="912"/>
  <text x="16324" y="4698"  fill="black" font-weight="normal" font-size="321.699px" font-family="Arial">Cmd</text>
  <rect fill="#FFFF99" stroke="black" stroke-width="18.2385" x="10736" y="2280" width="1824" height="912"/>
  <text x="10808" y="2874"  fill="black" font-weight="normal" font-size="321.699px" font-family="Arial">TelnetClient</text>
  <line fill="none" stroke="black" stroke-width="68.3943" x1="6860" y1="4332" x2="8456" y2= "4332" />
  <g>
   <path fill="#003399" fill-rule="nonzero" d="M13121 2804l-561 0 0 -137 561 0 0 137zm350 -68l-355 177 0 -355 355 177z"/>
  </g>
  <g>
   <path fill="black" fill-rule="nonzero" d="M17644 4525l0 68 -68 0 0 -68 68 0zm137 0l0 68 -68 0 0 -68 68 0zm137 0l0 68 -68 0 0 -68 68 0zm137 0l0 68 -68 0 0 -68 68 0zm137 0l0 68 -68 0 0 -68 68 0zm121 68l-53 0 0 -68 53 0 0 68zm175 -34l-177 89 0 -177 177 89z"/>
  </g>
  <rect fill="#FFFF99" stroke="black" stroke-width="18.2385" x="15751" y="2280" width="1824" height="912"/>
  <text x="16324" y="2874"  fill="black" font-weight="normal" font-size="321.699px" font-family="Arial">Cmd</text>
  <g>
   <path fill="black" fill-rule="nonzero" d="M17644 2702l0 68 -68 0 0 -68 68 0zm137 0l0 68 -68 0 0 -68 68 0zm137 0l0 68 -68 0 0 -68 68 0zm137 0l0 68 -68 0 0 -68 68 0zm137 0l0 68 -68 0 0 -68 68 0zm121 68l-53 0 0 -68 53 0 0 68zm175 -34l-177 89 0 -177 177 89z"/>
  </g>
  <g>
   <path fill="#003399" fill-rule="nonzero" d="M15401 2804l-561 0 0 -137 561 0 0 137zm350 -68l-355 177 0 -355 355 177z"/>
  </g>
  <g>
   <path fill="#AFDBAF" fill-rule="nonzero" d="M3897 8663l177 -89 0 177 -177 -89zm1596 34l-1421 0 0 -68 1421 0 34 34 -34 34zm34 -34l0 34 -34 0 34 -34zm0 -4104l0 4104 -68 0 0 -4104 68 0z"/>
  </g>
  <g>
   <path fill="#AFDBAF" fill-rule="nonzero" d="M3897 9119l177 -89 0 177 -177 -89zm2052 34l-1877 0 0 -68 1877 0 34 34 -34 34zm34 -34l0 34 -34 0 34 -34zm0 -4104l0 4104 -68 0 0 -4104 68 0z"/>
  </g>
  <text x="3700" y="3045"  fill="#AFDBAF" font-weight="normal" font-size="321.699px" font-family="Arial">load Plugins</text>
  <g transform="matrix(2.64845E-014 -1 1 2.64845E-014 -3347.69 17096.2)">
   <text x="9133" y="8663"  fill="#AFDBAF" font-weight="normal" font-size="321.699px" font-family="Arial">register Route</text>
  </g>
  <g>
   <path fill="black" fill-rule="nonzero" d="M6632 9837l-2736 0 0 -68 2736 0 34 34 -34 34zm34 -34l0 34 -34 0 34 -34zm0 -4840l0 4840 -68 0 0 -4840 68 0zm-34 -175l89 177 -177 0 89 -177z"/>
  </g>
  <g>
   <path fill="black" fill-rule="nonzero" d="M6404 9609l-2508 0 0 -68 2508 0 34 34 -34 34zm34 -34l0 34 -34 0 34 -34zm0 -4840l0 4840 -68 0 0 -4840 68 0zm-34 -175l89 177 -177 0 89 -177z"/>
  </g>
  <g>
   <path fill="black" fill-rule="nonzero" d="M6860 10065l-2964 0 0 -68 2964 0 34 34 -34 34zm34 -34l0 34 -34 0 34 -34zm0 -4840l0 4840 -68 0 0 -4840 68 0zm-34 -175l89 177 -177 0 89 -177z"/>
  </g>
  <g>
   <line fill="none" stroke="black" stroke-width="136.789" stroke-linecap="round" stroke-linejoin="round" x1="8456" y1="4332" x2="9368" y2= "4332" />
   <circle fill="white" stroke="black" stroke-width="18.2385" cx="8456" cy="4332" r="91"/>
   <circle fill="white" stroke="black" stroke-width="18.2385" cx="9368" cy="4104" r="91"/>
   <circle fill="white" stroke="black" stroke-width="18.2385" cx="9368" cy="4560" r="91"/>
  </g>
  <text x="74" y="9283"  fill="#FF6600" font-weight="normal" font-size="321.699px" font-family="Arial">HTTP</text>
  <text x="-25" y="9642"  fill="#FF6600" font-weight="normal" font-size="321.699px" font-family="Arial">Port 80</text>
  <text x="13743" y="2669"  fill="#003399" font-weight="normal" font-size="321.699px" font-family="Arial">Telnet</text>
  <text x="13386" y="3029"  fill="#003399" font-weight="normal" font-size="321.699px" font-family="Arial">Port 23101</text>
  <text x="132" y="452"  fill="black" font-weight="bold" font-size="450.39px" font-family="Arial">ezPiC Web-Server-Part</text>
  <text x="4797" y="4533"  fill="gray" font-weight="normal" font-size="128.682px" font-family="Arial">./web/plugins/web/webXXX.py</text>
  <text x="2061" y="6812"  fill="gray" font-weight="normal" font-size="128.682px" font-family="Arial">./web/Web.py</text>
  <text x="2061" y="10460"  fill="gray" font-weight="normal" font-size="128.682px" font-family="Arial">./web/MicroWebSrv/microWeb*</text>
  <text x="10724" y="3165"  fill="gray" font-weight="normal" font-size="128.682px" font-family="Arial">./web/TelnetClient.py</text>
  <text x="2296" y="14564"  fill="gray" font-weight="normal" font-size="128.682px" font-family="Arial">./web/www/...</text>
  <text x="693" y="2253"  fill="gray" font-weight="normal" font-size="128.682px" font-family="Arial">./ezPiC.py</text>
  <text x="14395" y="914"  fill="#FF6633" font-weight="normal" font-size="321.699px" font-family="Arial">IoT-Device</text>
  <text x="14868" y="1274"  fill="#FF6633" font-weight="normal" font-size="321.699px" font-family="Arial">Part</text>
  <text x="12256" y="914"  fill="#FF6633" font-weight="normal" font-size="321.699px" font-family="Arial">Web-Server</text>
  <text x="12817" y="1274"  fill="#FF6633" font-weight="normal" font-size="321.699px" font-family="Arial">Part</text>
  <g>
   <path fill="#B3B3B3" fill-rule="nonzero" d="M1897 3910l-737 0 0 -68 737 0 0 68zm175 -34l-177 89 0 -177 177 89z"/>
  </g>
  <text x="578" y="3973"  fill="#B3B3B3" font-weight="normal" font-size="321.699px" font-family="Arial">init</text>
  <polyline fill="none" stroke="black" stroke-width="68.3943" points="7088,4560 7544,4560 7772,4332 7544,4104 6632,4104 "/>
  <g>
   <path fill="#B3B3B3" fill-rule="nonzero" d="M10561 2542l-737 0 0 -68 737 0 0 68zm175 -34l-177 89 0 -177 177 89z"/>
  </g>
  <text x="9241" y="2605"  fill="#B3B3B3" font-weight="normal" font-size="321.699px" font-family="Arial">init</text>
  <g>
   <path fill="black" d="M17703 0l668 0c70,0 128,58 128,128l0 668c0,70 -58,128 -128,128l-668 0c-70,0 -128,-58 -128,-128l0 -668c0,-70 58,-128 128,-128z"/>
   <path fill="#666666" fill-rule="nonzero" d="M18057 737c87,0 162,-32 216,-95l-93 -103c-28,30 -63,51 -105,51 -87,0 -148,-67 -148,-188 0,-117 61,-186 140,-186 43,0 75,16 105,42l93 -105c-46,-44 -115,-83 -198,-83 -174,0 -315,123 -315,338 0,220 144,328 305,328l0 0z"/>
   <path fill="#999999" fill-rule="nonzero" d="M17698 779l129 0 0 -155 54 0c102,0 195,-52 195,-171 0,-123 -90,-162 -195,-162l-183 0 0 488zm129 -257l0 -129 48 0c48,0 75,17 75,60 0,43 -24,69 -75,69l-48 0zm426 257l129 0 0 -375 -272 0 0 101 143 0 0 275zm60 -426c48,0 83,-30 83,-75 0,-45 -35,-77 -83,-77 -48,0 -83,32 -83,77 0,45 35,75 83,75z"/>
   <path fill="#DDDDDD" fill-rule="nonzero" d="M17926 841c34,0 77,-11 110,-32l-31 -56c-24,11 -44,17 -66,17 -40,0 -64,-13 -73,-44l177 0c1,-7 4,-23 4,-40 0,-74 -44,-133 -131,-133 -74,0 -144,54 -144,144 0,92 67,144 154,144l0 0zm-7 -217c26,0 40,14 44,40l-96 0c8,-27 25,-40 52,-40zm144 211l261 0 0 -74 -131 0 128 -151 0 -51 -243 0 0 74 111 0 -127 151 0 51z"/>
  </g>
  <g transform="matrix(2.64845E-014 -1 1 2.64845E-014 -1407.73 17137.7)">
   <text x="8864" y="8663"  fill="black" font-weight="normal" font-size="321.699px" font-family="Arial">call Page-Handler</text>
  </g>
  <text x="10268" y="4948"  fill="black" font-weight="normal" font-size="321.699px" font-family="Arial">execute Command</text>
  <rect fill="#FFCC99" stroke="black" stroke-width="18.2385" x="2098" y="10943" width="1824" height="912"/>
  <text x="2164" y="11537"  fill="black" font-weight="normal" font-size="321.699px" font-family="Arial">MicroWebT.</text>
  <text x="2087" y="11828"  fill="gray" font-weight="normal" font-size="128.682px" font-family="Arial">./web/MicroWebSrv/microWeb*</text>
  <g>
   <path fill="black" fill-rule="nonzero" d="M2984 10943l-89 -177 177 0 -89 177zm34 -280l0 106 -68 0 0 -106 68 0zm-34 -175l89 177 -177 0 89 -177z"/>
  </g>
  <g>
   <polygon fill="#F4F4F4" stroke="black" stroke-width="18.2385" points="8684,12767 9824,12767 10052,12995 10052,14591 8684,14591 "/>
   <polygon fill="#E6E6E6" stroke="black" stroke-width="18.2385" stroke-linejoin="bevel" points="9824,12995 9824,12767 10052,12995 "/>
  </g>
  <text x="8761" y="13793"  fill="black" font-weight="normal" font-size="321.699px" font-family="Arial">pyHTML</text>
  <text x="8680" y="14276"  fill="gray" font-weight="normal" font-size="128.682px" font-family="Arial">./web/www/gadgets/...</text>
  <text x="8680" y="14420"  fill="gray" font-weight="normal" font-size="128.682px" font-family="Arial">./web/www/gateways/...</text>
  <text x="8680" y="14564"  fill="gray" font-weight="normal" font-size="128.682px" font-family="Arial">./web/www/rules/...</text>
  <text x="8328" y="11807"  fill="black" font-weight="normal" font-size="321.699px" font-family="Arial">Gadget-Pages</text>
  <text x="8221" y="12166"  fill="black" font-weight="normal" font-size="321.699px" font-family="Arial">Gateway-Pages</text>
  <text x="8525" y="12526"  fill="black" font-weight="normal" font-size="321.699px" font-family="Arial">Rule-Pages</text>
  <line fill="none" stroke="gray" stroke-width="68.3943" stroke-dasharray="68.394278 205.182834" x1="7088" y1="13679" x2="8684" y2= "13679" />
 </g>
</svg>
