<?xml version="1.0" encoding="UTF-8"?>
<!DOCTYPE svg PUBLIC "-//W3C//DTD SVG 1.0//EN" "http://www.w3.org/TR/2001/REC-SVG-20010904/DTD/svg10.dtd">
<!-- Creator: CorelDRAW Home & Student X6 -->
<svg xmlns="http://www.w3.org/2000/svg" xml:space="preserve" width="140.2mm" height="100.2mm" version="1.0" shape-rendering="geometricPrecision" text-rendering="geometricPrecision" image-rendering="optimizeQuality" fill-rule="evenodd" clip-rule="evenodd"
viewBox="0 0 11756 8402"
 xmlns:xlink="http://www.w3.org/1999/xlink">
 <g id="Ebene_x0020_1">
  <metadata id="CorelCorpID_0Corel-Layer"/>
  <rect fill="#E6E6E6" stroke="black" stroke-width="16.7703" x="4620" y="8" width="2516" height="8385"/>
  <g>
   <path fill="#00CCFF" fill-rule="nonzero" d="M10070 7765l-326 163 0 -326 326 163zm-3354 -63l3032 0 0 126 -3032 0 0 -126z"/>
  </g>
  <g>
   <path fill="#FF6600" fill-rule="nonzero" d="M5039 2524l-344 121 40 -323 303 202zm-3346 -482l3034 379 -16 125 -3034 -379 16 -125z"/>
  </g>
  <g>
   <path fill="#FF6600" fill-rule="nonzero" d="M5039 2943l-315 183 -20 -325 336 142zm-3357 147l3032 -190 8 126 -3032 190 -8 -126z"/>
  </g>
  <g>
   <path fill="#FF6600" fill-rule="nonzero" d="M5039 4201l-315 183 -20 -325 336 142zm-3357 147l3032 -190 8 126 -3032 190 -8 -126z"/>
  </g>
  <g>
   <path fill="#00CCFF" fill-rule="nonzero" d="M10070 2105l-303 202 -40 -323 344 121zm-3361 357l3034 -379 16 125 -3034 379 -16 -125z"/>
  </g>
  <g>
   <path fill="#00CCFF" fill-rule="nonzero" d="M10070 3362l-326 163 0 -326 326 163zm-3144 -63l2822 0 0 126 -2822 0 0 -126z"/>
  </g>
  <g>
   <path fill="#00CCFF" fill-rule="nonzero" d="M10070 4411l-336 142 20 -325 315 183zm-3350 -272l3032 190 -8 126 -3032 -190 8 -126z"/>
  </g>
  <g>
   <path fill="#FF6600" fill-rule="nonzero" d="M6717 5039l315 -183 20 325 -336 -142zm3357 -147l-3032 190 -8 -126 3032 -190 8 126z"/>
  </g>
  <g>
   <path fill="#00CCFF" fill-rule="nonzero" d="M1686 4830l336 -142 -20 325 -315 -183zm3350 272l-3032 -190 8 -126 3032 190 -8 126z"/>
  </g>
  <text x="5459" y="474"  fill="black" font-weight="normal" font-size="295.804px" font-family="Arial">MQTT</text>
  <text x="5443" y="804"  fill="black" font-weight="normal" font-size="295.804px" font-family="Arial">Broker</text>
  <g>
   <path fill="#FF6600" fill-rule="nonzero" d="M5039 3782l-336 142 20 -325 315 183zm-3350 -272l3032 190 -8 126 -3032 -190 8 -126z"/>
  </g>
  <polyline fill="none" stroke="#00CCFF" stroke-width="83.8517" points="6717,2943 6926,2943 6926,3782 6717,3782 "/>
  <rect fill="#FFFF99" stroke="black" stroke-width="16.7703" x="10071" y="1685" width="1677" height="839"/>
  <text x="10392" y="2127"  fill="black" font-weight="normal" font-size="295.804px" font-family="Arial">Client B</text>
  <rect fill="#FFFF99" stroke="black" stroke-width="16.7703" x="10071" y="2943" width="1677" height="839"/>
  <text x="10383" y="3385"  fill="black" font-weight="normal" font-size="295.804px" font-family="Arial">Client D</text>
  <rect fill="#FFFF99" stroke="black" stroke-width="16.7703" x="10071" y="4201" width="1677" height="839"/>
  <text x="10400" y="4642"  fill="black" font-weight="normal" font-size="295.804px" font-family="Arial">Client F</text>
  <rect fill="#FFFF99" stroke="black" stroke-width="16.7703" x="8" y="1685" width="1677" height="839"/>
  <text x="338" y="2127"  fill="black" font-weight="normal" font-size="295.804px" font-family="Arial">Client A</text>
  <rect fill="#FFFF99" stroke="black" stroke-width="16.7703" x="8" y="2943" width="1677" height="839"/>
  <text x="321" y="3385"  fill="black" font-weight="normal" font-size="295.804px" font-family="Arial">Client C</text>
  <rect fill="#FFFF99" stroke="black" stroke-width="16.7703" x="8" y="4201" width="1677" height="839"/>
  <text x="329" y="4642"  fill="black" font-weight="normal" font-size="295.804px" font-family="Arial">Client E</text>
  <rect fill="#CCFF66" stroke="black" stroke-width="16.7703" x="5039" y="2314" width="1677" height="839" rx="168" ry="168"/>
  <text x="5410" y="2756"  fill="black" font-weight="normal" font-size="295.804px" font-family="Arial">Topic 2</text>
  <rect fill="#CCFF66" stroke="black" stroke-width="16.7703" x="5039" y="3572" width="1677" height="839" rx="168" ry="168"/>
  <text x="5410" y="4014"  fill="black" font-weight="normal" font-size="295.804px" font-family="Arial">Topic 3</text>
  <rect fill="#CCFF66" stroke="black" stroke-width="16.7703" x="5039" y="4830" width="1677" height="839" rx="168" ry="168"/>
  <text x="5410" y="5271"  fill="black" font-weight="normal" font-size="295.804px" font-family="Arial">Topic 4</text>
  <g>
   <path fill="#FF6600" fill-rule="nonzero" d="M1686 6507l163 -82 0 163 -163 -82zm3144 31l-2983 0 0 -63 2983 0 0 63z"/>
  </g>
  <g>
   <path fill="#FF6600" fill-rule="nonzero" d="M5039 6591l-163 82 0 -163 163 82zm-3144 -31l2983 0 0 63 -2983 0 0 -63z"/>
  </g>
  <g>
   <path fill="#FF6600" fill-rule="nonzero" d="M5039 6423l-163 82 0 -163 163 82zm-3144 -31l2983 0 0 63 -2983 0 0 -63z"/>
  </g>
  <rect fill="#FFFF99" stroke="black" stroke-width="16.7703" x="8" y="6088" width="1677" height="839"/>
  <text x="313" y="6529"  fill="black" font-weight="normal" font-size="295.804px" font-family="Arial">Client G</text>
  <rect fill="#CCFF66" stroke="black" stroke-width="16.7703" x="5039" y="6088" width="1677" height="839" rx="168" ry="168"/>
  <text x="5410" y="6529"  fill="black" font-weight="normal" font-size="295.804px" font-family="Arial">Topic 5</text>
  <rect fill="#FFFF99" stroke="black" stroke-width="16.7703" x="10071" y="6088" width="1677" height="839"/>
  <text x="10383" y="6529"  fill="black" font-weight="normal" font-size="295.804px" font-family="Arial">Client H</text>
  <text x="5391" y="2974"  fill="gray" font-weight="normal" font-size="118.323px" font-family="Arial">/lorem/ipsum/dolor</text>
  <text x="5464" y="4232"  fill="gray" font-weight="normal" font-size="118.323px" font-family="Arial">/lorem/ipsum/sit</text>
  <text x="5566" y="5540"  fill="gray" font-weight="normal" font-size="118.323px" font-family="Arial">/lorem/amet</text>
  <text x="5654" y="6798"  fill="gray" font-weight="normal" font-size="118.323px" font-family="Arial">/lorem/jk</text>
  <text x="359" y="2346"  fill="#FF6600" font-weight="normal" font-size="118.323px" font-family="Arial">/lorem/ipsum/dolor</text>
  <text x="368" y="3572"  fill="#FF6600" font-weight="normal" font-size="118.323px" font-family="Arial">/lorem/ipsum/dolor</text>
  <text x="10422" y="2346"  fill="#00CCFF" font-weight="normal" font-size="118.323px" font-family="Arial">/lorem/ipsum/dolor</text>
  <text x="442" y="3677"  fill="#FF6600" font-weight="normal" font-size="118.323px" font-family="Arial">/lorem/ipsum/sit</text>
  <text x="10520" y="3603"  fill="#00CCFF" font-weight="normal" font-size="118.323px" font-family="Arial">/lorem/ipsum/#</text>
  <text x="10521" y="4830"  fill="#00CCFF" font-weight="normal" font-size="118.323px" font-family="Arial">/lorem/ipsum/sit</text>
  <text x="433" y="4830"  fill="#FF6600" font-weight="normal" font-size="118.323px" font-family="Arial">/lorem/ipsum/sit</text>
  <text x="535" y="4946"  fill="#00CCFF" font-weight="normal" font-size="118.323px" font-family="Arial">/lorem/amet</text>
  <text x="387" y="6748"  fill="#FF6600" font-weight="normal" font-size="118.323px" font-family="Arial">/lorem/jk   QoS=1</text>
  <text x="10461" y="6822"  fill="#00CCFF" font-weight="normal" font-size="118.323px" font-family="Arial">/lorem/jk   QoS=1</text>
  <text x="10623" y="4946"  fill="#FF6600" font-weight="normal" font-size="118.323px" font-family="Arial">/lorem/amet</text>
  <g>
   <path fill="#00CCFF" fill-rule="nonzero" d="M6717 6507l163 -82 0 163 -163 -82zm3144 31l-2983 0 0 -63 2983 0 0 63z"/>
  </g>
  <g>
   <path fill="#00CCFF" fill-rule="nonzero" d="M10070 6591l-163 82 0 -163 163 82zm-3144 -31l2983 0 0 63 -2983 0 0 -63z"/>
  </g>
  <g>
   <path fill="#00CCFF" fill-rule="nonzero" d="M10070 6423l-163 82 0 -163 163 82zm-3144 -31l2983 0 0 63 -2983 0 0 -63z"/>
  </g>
  <g>
   <path fill="none" fill-rule="nonzero" stroke="white" stroke-width="41.9258" d="M2827 2267l26 -210 24 3 -2 20c6,-7 13,-12 21,-15 7,-3 16,-4 26,-3 13,2 24,6 33,14 9,8 15,18 19,31 4,13 4,26 3,41 -2,16 -6,29 -14,41 -7,12 -16,20 -28,26 -11,5 -23,7 -35,6 -9,-1 -16,-4 -22,-8 -6,-4 -11,-10 -15,-16l-9 74 -26 -3zm40 -131c-2,20 0,35 7,45 7,10 16,16 27,18 11,1 22,-2 31,-11 9,-9 15,-23 18,-44 2,-19 0,-34 -7,-45 -7,-11 -16,-17 -27,-18 -11,-1 -21,3 -31,12 -10,9 -16,24 -18,43z"/>
  </g>
  <g>
   <path id="1" fill="none" fill-rule="nonzero" stroke="white" stroke-width="41.9258" d="M3097 2241l3 -22c-14,16 -31,22 -51,20 -9,-1 -17,-4 -25,-8 -7,-4 -13,-9 -16,-15 -3,-6 -5,-12 -6,-20 0,-5 0,-13 1,-24l12 -94 26 3 -10 84c-2,14 -2,23 -2,27 1,7 4,13 8,17 5,5 11,7 19,8 8,1 15,0 23,-3 7,-3 13,-8 16,-14 4,-6 6,-16 8,-29l10 -82 26 3 -19 152 -23 -3z"/>
  </g>
  <g>
   <path id="2" fill="none" fill-rule="nonzero" stroke="white" stroke-width="41.9258" d="M3184 2252l-24 -3 26 -210 26 3 -9 75c13,-12 27,-17 44,-15 9,1 18,4 26,9 8,5 14,11 19,18 5,8 8,16 10,26 2,10 2,21 1,32 -3,26 -12,45 -27,58 -15,13 -31,18 -49,16 -18,-2 -31,-11 -40,-28l-2 19zm9 -77c-2,18 -1,32 3,40 7,14 17,22 31,24 11,1 22,-2 31,-11 9,-9 15,-23 18,-42 2,-20 0,-35 -6,-45 -7,-10 -16,-16 -27,-18 -11,-1 -22,2 -31,11 -9,9 -15,22 -18,41z"/>
  </g>
  <g>
   <polygon id="3" fill="none" fill-rule="nonzero" stroke="white" stroke-width="41.9258" points="3323,2269 3349,2059 3375,2062 3349,2272 "/>
  </g>
  <g>
   <path id="4" fill="none" fill-rule="nonzero" stroke="white" stroke-width="41.9258" d="M3411 2097l4 -30 26 3 -4 30 -26 -3zm-22 180l19 -152 26 3 -19 152 -26 -3z"/>
  </g>
  <g>
   <path id="5" fill="none" fill-rule="nonzero" stroke="white" stroke-width="41.9258" d="M3450 2238l26 -1c0,10 3,19 9,25 6,6 15,10 26,12 12,1 21,0 27,-4 6,-4 10,-9 11,-16 1,-6 -1,-11 -6,-15 -3,-3 -12,-7 -25,-12 -18,-7 -31,-13 -38,-17 -7,-4 -12,-10 -15,-16 -3,-7 -4,-14 -3,-21 1,-7 3,-13 7,-18 4,-5 9,-10 14,-13 4,-2 10,-4 17,-6 7,-1 15,-1 23,0 12,1 22,4 31,9 9,5 15,10 18,16 4,6 6,15 6,25l-26 0c0,-8 -3,-14 -8,-20 -5,-5 -12,-8 -22,-9 -12,-1 -21,-1 -26,3 -6,3 -9,8 -9,13 0,3 0,7 2,9 2,3 5,6 9,8 2,1 10,4 22,9 18,7 30,13 37,17 7,4 12,9 15,16 3,6 5,14 3,23 -1,9 -5,16 -10,23 -6,7 -14,12 -24,15 -10,3 -21,4 -33,2 -20,-2 -34,-8 -44,-18 -9,-10 -14,-22 -15,-39z"/>
  </g>
  <g>
   <path id="6" fill="none" fill-rule="nonzero" stroke="white" stroke-width="41.9258" d="M3601 2303l26 -210 26 3 -9 75c14,-12 30,-18 48,-15 11,1 21,5 29,10 8,5 13,12 16,21 3,8 3,20 1,35l-12 96 -26 -3 12 -96c2,-13 0,-23 -5,-29 -5,-7 -12,-10 -23,-12 -8,-1 -15,0 -22,3 -7,3 -13,8 -16,14 -4,6 -6,16 -8,28l-10 83 -26 -3z"/>
  </g>
  <g transform="matrix(0.992546 0.121869 -0.121869 0.992546 -3089.33 -3384.6)">
   <text x="6541" y="4830" id="6" fill="#FF6600" font-weight="normal" font-size="295.804px" font-family="Arial">publish</text>
  </g>
  <g>
   <path fill="none" fill-rule="nonzero" stroke="white" stroke-width="41.9258" d="M2832 3100l-15 -212 24 -2 1 20c5,-8 11,-14 18,-19 7,-4 15,-7 25,-8 13,-1 25,2 35,8 10,6 19,15 25,27 6,12 9,25 10,40 1,16 -1,30 -5,43 -5,13 -12,23 -22,31 -10,7 -21,12 -33,12 -9,1 -17,-1 -24,-4 -7,-3 -13,-7 -18,-13l5 75 -26 2zm14 -136c1,20 6,34 15,43 9,9 19,13 30,12 11,-1 21,-6 29,-17 8,-10 11,-26 9,-46 -1,-19 -6,-34 -15,-43 -9,-9 -19,-13 -30,-13 -11,1 -20,7 -28,18 -8,11 -11,26 -10,46z"/>
  </g>
  <g>
   <path id="1" fill="none" fill-rule="nonzero" stroke="white" stroke-width="41.9258" d="M3092 3023l-2 -22c-11,18 -26,28 -47,29 -9,1 -18,0 -26,-3 -8,-3 -14,-7 -18,-12 -4,-5 -7,-11 -9,-19 -1,-5 -3,-13 -3,-24l-7 -95 26 -2 6 85c1,14 2,23 4,27 2,7 6,12 11,15 6,3 12,5 20,4 8,-1 15,-3 21,-7 7,-4 11,-10 13,-17 2,-7 3,-17 2,-30l-6 -82 26 -2 11 153 -23 2z"/>
  </g>
  <g>
   <path id="2" fill="none" fill-rule="nonzero" stroke="white" stroke-width="41.9258" d="M3180 3017l-24 2 -15 -211 26 -2 5 75c10,-14 23,-22 40,-24 9,-1 18,1 27,4 9,3 16,8 22,15 6,6 11,14 14,24 4,10 6,20 7,31 2,26 -3,47 -15,62 -12,15 -27,23 -45,25 -18,1 -33,-5 -44,-20l1 19zm-6 -78c1,18 5,31 10,39 9,13 21,19 35,18 11,-1 21,-6 28,-17 8,-10 11,-25 9,-45 -1,-20 -6,-34 -15,-43 -9,-9 -18,-13 -30,-12 -11,1 -21,6 -28,17 -8,10 -11,25 -9,44z"/>
  </g>
  <g>
   <polygon id="3" fill="none" fill-rule="nonzero" stroke="white" stroke-width="41.9258" points="3320,3007 3305,2796 3331,2794 3346,3005 "/>
  </g>
  <g>
   <path id="4" fill="none" fill-rule="nonzero" stroke="white" stroke-width="41.9258" d="M3373 2821l-2 -30 26 -2 2 30 -26 2zm13 181l-11 -153 26 -2 11 153 -26 2z"/>
  </g>
  <g>
   <path id="5" fill="none" fill-rule="nonzero" stroke="white" stroke-width="41.9258" d="M3438 2953l25 -6c2,10 7,18 14,23 7,5 16,7 28,6 12,-1 21,-4 26,-9 5,-5 8,-11 7,-18 0,-6 -3,-10 -9,-13 -4,-2 -13,-4 -27,-7 -19,-4 -33,-7 -40,-10 -8,-3 -13,-7 -18,-13 -4,-6 -7,-13 -7,-20 0,-7 1,-13 3,-19 3,-6 7,-11 12,-15 4,-3 9,-6 16,-9 7,-3 14,-4 22,-5 12,-1 23,0 32,3 9,3 16,7 21,13 5,6 8,13 11,23l-25 5c-2,-8 -5,-14 -11,-18 -6,-4 -14,-6 -24,-5 -12,1 -20,3 -25,8 -5,4 -7,9 -7,14 0,3 2,6 4,9 2,3 6,5 10,6 3,1 10,2 23,5 19,4 32,7 39,9 7,3 13,7 18,12 5,6 7,13 8,22 1,9 -1,17 -6,25 -5,8 -11,14 -21,19 -9,5 -20,8 -32,9 -20,1 -35,-2 -46,-9 -11,-8 -18,-19 -23,-35z"/>
  </g>
  <g>
   <path id="6" fill="none" fill-rule="nonzero" stroke="white" stroke-width="41.9258" d="M3599 2987l-15 -211 26 -2 5 76c11,-15 26,-23 44,-24 11,-1 21,1 30,5 9,4 15,10 19,17 4,8 7,19 8,34l7 97 -26 2 -7 -97c-1,-13 -4,-22 -10,-28 -6,-6 -14,-8 -24,-7 -8,1 -15,3 -21,7 -7,4 -11,10 -13,17 -2,7 -3,17 -2,29l6 84 -26 2z"/>
  </g>
  <g transform="matrix(0.997564 -0.0697565 0.0697565 0.997564 -4053.76 -1319.24)">
   <text x="6541" y="4830" id="6" fill="#FF6600" font-weight="normal" font-size="295.804px" font-family="Arial">publish</text>
  </g>
  <g>
   <path fill="none" fill-rule="nonzero" stroke="white" stroke-width="41.9258" d="M2837 4364l-15 -212 24 -2 1 20c5,-8 11,-14 18,-19 7,-4 15,-7 25,-8 13,-1 25,2 35,8 10,6 19,15 25,27 6,12 9,25 10,40 1,16 -1,30 -5,43 -5,13 -12,23 -22,31 -10,7 -21,12 -33,12 -9,1 -17,-1 -24,-4 -7,-3 -13,-7 -18,-13l5 74 -26 2zm14 -136c1,20 6,34 15,43 9,9 19,13 30,12 11,-1 21,-6 29,-17 8,-10 11,-26 9,-46 -1,-19 -6,-34 -15,-43 -9,-9 -19,-13 -30,-13 -11,1 -20,7 -28,18 -8,11 -11,26 -10,46z"/>
  </g>
  <g>
   <path id="1" fill="none" fill-rule="nonzero" stroke="white" stroke-width="41.9258" d="M3097 4287l-2 -22c-11,18 -26,28 -47,29 -9,1 -18,0 -26,-3 -8,-3 -14,-7 -18,-12 -4,-5 -7,-11 -9,-19 -1,-5 -3,-13 -3,-24l-7 -95 26 -2 6 85c1,14 2,23 3,27 2,7 6,12 11,15 6,3 12,5 20,4 8,-1 15,-3 21,-7 6,-4 11,-10 13,-17 2,-7 3,-17 2,-30l-6 -82 26 -2 11 153 -23 2z"/>
  </g>
  <g>
   <path id="2" fill="none" fill-rule="nonzero" stroke="white" stroke-width="41.9258" d="M3185 4281l-24 2 -15 -211 26 -2 5 75c10,-14 23,-22 40,-24 9,-1 18,1 27,4 9,3 16,8 22,15 6,6 11,14 14,24 4,10 6,20 7,31 2,26 -3,47 -15,62 -12,15 -27,23 -45,25 -18,1 -33,-5 -44,-20l1 19zm-6 -78c1,18 5,31 10,39 9,13 21,19 35,18 11,-1 21,-6 28,-17 8,-10 11,-25 9,-45 -1,-20 -6,-34 -15,-43 -9,-9 -18,-13 -30,-12 -11,1 -21,6 -28,17 -8,10 -11,25 -9,44z"/>
  </g>
  <g>
   <polygon id="3" fill="none" fill-rule="nonzero" stroke="white" stroke-width="41.9258" points="3324,4271 3309,4060 3335,4058 3350,4270 "/>
  </g>
  <g>
   <path id="4" fill="none" fill-rule="nonzero" stroke="white" stroke-width="41.9258" d="M3378 4085l-2 -30 26 -2 2 30 -26 2zm13 181l-11 -153 26 -2 11 153 -26 2z"/>
  </g>
  <g>
   <path id="5" fill="none" fill-rule="nonzero" stroke="white" stroke-width="41.9258" d="M3442 4217l25 -6c2,10 7,18 14,23 7,5 16,7 28,6 12,-1 21,-4 26,-9 5,-5 8,-11 7,-18 0,-6 -3,-10 -9,-13 -4,-2 -13,-4 -27,-7 -19,-4 -33,-7 -40,-10 -8,-3 -13,-7 -18,-13 -4,-6 -7,-13 -7,-20 0,-7 1,-13 3,-19 3,-6 7,-11 12,-15 4,-3 9,-6 16,-9 7,-3 14,-4 22,-5 12,-1 23,0 32,3 9,3 16,7 21,13 5,6 8,13 11,23l-25 5c-2,-8 -5,-14 -11,-18 -6,-4 -14,-6 -24,-5 -12,1 -20,3 -25,8 -5,4 -7,9 -7,14 0,3 2,6 4,9 2,3 6,5 10,6 3,1 10,2 23,5 19,4 32,7 39,9 7,3 13,7 18,12 5,6 7,13 8,22 1,9 -1,17 -6,25 -5,8 -11,14 -21,19 -9,5 -20,8 -32,9 -20,1 -35,-2 -46,-9 -11,-8 -18,-19 -23,-35z"/>
  </g>
  <g>
   <path id="6" fill="none" fill-rule="nonzero" stroke="white" stroke-width="41.9258" d="M3603 4252l-15 -211 26 -2 5 76c11,-15 26,-23 44,-24 11,-1 21,1 30,5 9,4 15,10 19,17 4,8 7,19 8,34l7 97 -26 2 -7 -97c-1,-13 -4,-22 -10,-28 -6,-6 -14,-8 -24,-7 -8,1 -15,3 -21,7 -7,4 -11,10 -13,17 -2,7 -3,17 -2,29l6 84 -26 2z"/>
  </g>
  <g transform="matrix(0.997564 -0.0697565 0.0697565 0.997564 -4049.3 -54.6798)">
   <text x="6541" y="4830" id="6" fill="#FF6600" font-weight="normal" font-size="295.804px" font-family="Arial">publish</text>
  </g>
  <g>
   <path fill="none" fill-rule="nonzero" stroke="white" stroke-width="41.9258" d="M7993 4989l-15 -212 24 -2 1 20c5,-8 11,-14 18,-19 7,-4 15,-7 25,-8 13,-1 25,2 35,8 10,6 19,15 25,27 6,12 9,25 10,40 1,16 -1,30 -5,43 -5,13 -12,23 -22,31 -10,7 -21,12 -33,12 -9,1 -17,-1 -24,-4 -7,-3 -13,-7 -18,-13l5 75 -26 2zm14 -136c1,20 6,34 15,43 9,9 19,13 30,12 11,-1 21,-6 29,-17 8,-10 11,-26 9,-46 -1,-19 -6,-34 -15,-43 -9,-9 -19,-13 -30,-13 -11,1 -20,7 -28,18 -8,11 -11,26 -10,46z"/>
  </g>
  <g>
   <path id="1" fill="none" fill-rule="nonzero" stroke="white" stroke-width="41.9258" d="M8253 4912l-2 -22c-11,18 -26,28 -47,29 -9,1 -18,0 -26,-3 -8,-3 -14,-7 -18,-12 -4,-5 -7,-11 -9,-19 -1,-5 -3,-13 -3,-24l-7 -95 26 -2 6 85c1,14 2,23 3,27 2,7 6,12 11,15 6,3 12,5 20,4 8,-1 15,-3 21,-7 7,-4 11,-10 13,-17 2,-7 3,-17 2,-30l-6 -82 26 -2 11 153 -23 2z"/>
  </g>
  <g>
   <path id="2" fill="none" fill-rule="nonzero" stroke="white" stroke-width="41.9258" d="M8341 4906l-24 2 -15 -211 26 -2 5 75c10,-14 23,-22 40,-24 9,-1 18,1 27,4 9,3 16,8 22,15 6,6 11,14 14,24 4,10 6,20 7,31 2,26 -3,47 -15,62 -12,15 -27,23 -45,25 -18,1 -33,-5 -44,-20l1 19zm-6 -78c1,18 5,31 10,39 9,13 21,19 35,18 11,-1 21,-6 28,-17 8,-10 11,-25 9,-45 -1,-20 -6,-34 -15,-43 -9,-9 -18,-13 -30,-12 -11,1 -21,6 -28,17 -8,10 -11,25 -9,44z"/>
  </g>
  <g>
   <polygon id="3" fill="none" fill-rule="nonzero" stroke="white" stroke-width="41.9258" points="8481,4896 8466,4685 8492,4683 8506,4894 "/>
  </g>
  <g>
   <path id="4" fill="none" fill-rule="nonzero" stroke="white" stroke-width="41.9258" d="M8534 4710l-2 -30 26 -2 2 30 -26 2zm13 181l-11 -153 26 -2 11 153 -26 2z"/>
  </g>
  <g>
   <path id="5" fill="none" fill-rule="nonzero" stroke="white" stroke-width="41.9258" d="M8599 4842l25 -6c2,10 7,18 14,23 7,5 16,7 28,6 12,-1 21,-4 26,-9 5,-5 8,-11 7,-18 0,-6 -3,-10 -9,-13 -4,-2 -13,-4 -27,-7 -19,-4 -33,-7 -40,-10 -8,-3 -13,-7 -18,-13 -4,-6 -7,-13 -7,-20 0,-7 1,-13 3,-19 3,-6 7,-11 12,-15 4,-3 9,-6 16,-9 7,-3 14,-4 22,-5 12,-1 23,0 32,3 9,3 16,7 21,13 5,6 8,13 11,23l-25 5c-2,-8 -5,-14 -11,-18 -6,-4 -14,-6 -24,-5 -12,1 -20,3 -25,8 -5,4 -7,9 -7,14 0,3 2,6 4,9 2,3 6,5 10,6 3,1 10,2 23,5 19,4 32,7 39,9 7,3 13,7 18,12 5,6 7,13 8,22 1,9 -1,17 -6,25 -5,8 -11,14 -21,19 -9,5 -20,8 -32,9 -20,1 -35,-2 -46,-9 -11,-8 -18,-19 -23,-35z"/>
  </g>
  <g>
   <path id="6" fill="none" fill-rule="nonzero" stroke="white" stroke-width="41.9258" d="M8760 4877l-15 -211 26 -2 5 76c11,-15 26,-23 44,-24 11,-1 21,1 30,5 9,4 15,10 19,17 4,8 7,19 8,34l7 97 -26 2 -7 -97c-1,-13 -4,-22 -10,-28 -6,-6 -14,-8 -24,-7 -8,1 -15,3 -21,7 -7,4 -11,10 -13,17 -2,7 -3,17 -2,29l6 84 -26 2z"/>
  </g>
  <g transform="matrix(0.997564 -0.0697565 0.0697565 0.997564 1107.02 570.088)">
   <text x="6541" y="4830" id="6" fill="#FF6600" font-weight="normal" font-size="295.804px" font-family="Arial">publish</text>
  </g>
  <g>
   <path fill="none" fill-rule="nonzero" stroke="white" stroke-width="41.9258" d="M7787 2305l25 -7c3,10 8,17 15,22 7,5 17,6 28,5 12,-1 20,-5 25,-10 5,-6 7,-12 7,-18 -1,-6 -4,-10 -9,-13 -4,-2 -13,-4 -27,-5 -19,-2 -33,-5 -41,-8 -8,-3 -14,-7 -18,-12 -5,-6 -7,-12 -8,-20 -1,-7 0,-13 2,-19 2,-6 6,-11 11,-16 4,-3 9,-7 15,-10 7,-3 14,-5 22,-6 12,-1 23,-1 32,1 9,2 17,6 22,12 5,5 9,13 12,22l-25 6c-2,-8 -6,-13 -12,-17 -6,-4 -14,-5 -24,-4 -12,1 -20,4 -25,9 -5,5 -7,9 -6,15 0,3 2,6 4,9 2,3 6,4 11,6 3,1 11,2 24,4 19,3 32,5 40,7 8,2 14,6 19,11 5,5 8,13 9,21 1,9 0,17 -5,25 -4,8 -11,15 -20,20 -9,5 -19,9 -31,10 -20,2 -35,0 -47,-7 -11,-7 -19,-18 -24,-34z"/>
  </g>
  <g>
   <path id="1" fill="none" fill-rule="nonzero" stroke="white" stroke-width="41.9258" d="M8050 2319l-3 -22c-10,19 -25,29 -45,32 -9,1 -18,0 -26,-2 -8,-2 -14,-6 -19,-11 -4,-5 -8,-11 -10,-18 -2,-5 -3,-13 -5,-24l-12 -94 26 -3 10 84c2,14 3,22 5,27 2,7 7,11 12,15 6,3 12,4 20,3 8,-1 15,-4 21,-9 6,-5 10,-11 12,-18 2,-7 2,-17 1,-30l-10 -81 26 -3 19 152 -23 3z"/>
  </g>
  <g>
   <path id="2" fill="none" fill-rule="nonzero" stroke="white" stroke-width="41.9258" d="M8137 2309l-24 3 -26 -210 26 -3 9 75c9,-15 22,-24 39,-26 9,-1 18,0 27,2 9,3 16,7 23,13 6,6 11,14 16,23 4,9 7,19 8,30 3,26 -1,47 -12,63 -11,16 -26,25 -44,27 -18,2 -33,-4 -45,-17l2 19zm-10 -77c2,18 6,31 12,39 10,12 22,18 35,16 11,-1 20,-7 27,-18 7,-11 9,-26 7,-45 -2,-20 -8,-34 -17,-43 -9,-8 -19,-12 -30,-11 -11,1 -20,7 -27,18 -7,11 -9,25 -7,44z"/>
  </g>
  <g>
   <path id="3" fill="none" fill-rule="nonzero" stroke="white" stroke-width="41.9258" d="M8261 2247l25 -7c3,10 8,17 15,22 7,5 17,6 28,5 12,-1 20,-5 25,-10 5,-6 7,-12 7,-18 -1,-6 -4,-10 -9,-13 -4,-2 -13,-4 -27,-5 -19,-2 -33,-5 -41,-8 -8,-3 -14,-7 -18,-12 -5,-6 -7,-12 -8,-20 -1,-7 0,-13 2,-19 2,-6 6,-11 11,-16 4,-3 9,-7 15,-10 7,-3 14,-5 22,-6 12,-1 23,-1 32,1 9,2 17,6 22,12 5,5 9,13 12,22l-25 6c-2,-8 -6,-13 -12,-17 -6,-4 -14,-5 -24,-4 -12,1 -20,4 -25,9 -5,5 -7,9 -6,15 0,3 2,6 4,9 2,3 6,4 11,6 3,1 11,2 24,4 19,3 32,5 40,7 8,2 14,6 19,11 5,5 8,13 9,21 1,9 0,17 -5,25 -4,8 -11,15 -20,20 -9,5 -19,9 -31,10 -20,2 -35,0 -47,-7 -11,-7 -19,-18 -24,-34z"/>
  </g>
  <g>
   <path id="4" fill="none" fill-rule="nonzero" stroke="white" stroke-width="41.9258" d="M8516 2206l26 0c-1,18 -6,32 -16,44 -10,11 -24,18 -40,20 -21,3 -38,-2 -53,-14 -14,-12 -23,-31 -26,-56 -2,-16 -1,-31 3,-44 4,-13 11,-23 21,-31 10,-7 22,-12 35,-14 17,-2 31,0 42,8 12,7 20,18 25,33l-25 7c-4,-10 -9,-17 -16,-22 -7,-4 -14,-6 -23,-5 -13,2 -23,8 -30,18 -7,10 -9,26 -7,46 3,20 8,35 17,43 9,8 20,12 32,10 10,-1 18,-5 24,-12 6,-7 9,-17 9,-30z"/>
  </g>
  <g>
   <path id="5" fill="none" fill-rule="nonzero" stroke="white" stroke-width="41.9258" d="M8570 2256l-19 -152 23 -3 3 23c5,-12 9,-19 14,-23 5,-4 10,-6 16,-7 9,-1 18,1 28,5l-6 25c-7,-3 -13,-4 -20,-3 -6,1 -10,3 -15,7 -4,4 -7,9 -8,15 -2,10 -2,20 -1,31l10 80 -26 3z"/>
  </g>
  <g>
   <path id="6" fill="none" fill-rule="nonzero" stroke="white" stroke-width="41.9258" d="M8646 2063l-4 -30 26 -3 4 30 -26 3zm22 180l-19 -152 26 -3 19 152 -26 3z"/>
  </g>
  <g>
   <path id="7" fill="none" fill-rule="nonzero" stroke="white" stroke-width="41.9258" d="M8757 2233l-24 3 -26 -210 26 -3 9 75c9,-15 22,-24 39,-26 9,-1 18,0 27,2 9,3 16,7 23,13 6,6 11,14 16,23 4,9 7,19 8,30 3,26 -1,47 -12,63 -11,16 -26,25 -44,27 -18,2 -33,-4 -45,-17l2 19zm-10 -77c2,18 6,31 12,39 10,12 22,18 35,16 11,-1 20,-7 27,-18 7,-11 9,-26 7,-45 -2,-20 -8,-34 -17,-43 -9,-8 -19,-12 -30,-11 -11,1 -20,7 -27,18 -7,11 -9,25 -7,44z"/>
  </g>
  <g>
   <path id="8" fill="none" fill-rule="nonzero" stroke="white" stroke-width="41.9258" d="M8995 2154l27 0c-2,16 -9,29 -19,39 -10,10 -24,16 -42,18 -22,3 -41,-2 -55,-14 -15,-12 -24,-31 -27,-55 -3,-26 1,-46 12,-62 11,-16 28,-25 49,-28 20,-3 38,2 52,15 15,12 23,31 27,56 0,2 0,4 1,7l-113 14c3,17 9,29 19,37 10,8 21,11 33,9 9,-1 17,-5 23,-10 6,-6 10,-14 13,-26zm-90 -31l85 -10c-3,-13 -7,-22 -13,-28 -9,-9 -21,-13 -34,-11 -12,1 -21,7 -28,16 -7,9 -10,20 -9,33z"/>
  </g>
  <g transform="matrix(0.992546 -0.121869 0.121869 0.992546 865.892 -1664.67)">
   <text x="6377" y="4830" id="8" fill="#00CCFF" font-weight="normal" font-size="295.804px" font-family="Arial">subscribe</text>
  </g>
  <g>
   <path fill="none" fill-rule="nonzero" stroke="white" stroke-width="41.9258" d="M7792 3290l26 -4c1,10 5,18 12,24 7,5 16,8 28,8 12,0 21,-2 27,-7 6,-5 9,-11 9,-17 0,-6 -3,-11 -8,-14 -4,-2 -13,-5 -27,-9 -19,-5 -32,-9 -40,-12 -7,-4 -13,-8 -17,-15 -4,-6 -6,-13 -6,-21 0,-7 2,-13 5,-19 3,-6 7,-11 13,-14 4,-3 10,-5 17,-8 7,-2 14,-3 22,-3 12,0 23,2 32,5 9,3 16,8 20,14 4,6 7,14 9,24l-25 4c-1,-8 -4,-14 -10,-19 -6,-4 -13,-7 -23,-7 -12,0 -20,2 -25,6 -5,4 -8,9 -8,14 0,3 1,6 3,9 2,3 5,5 10,7 3,1 10,3 23,7 18,5 31,9 38,12 7,3 13,8 17,14 4,6 6,13 6,22 0,9 -3,17 -8,24 -5,8 -12,14 -22,18 -10,4 -20,6 -32,6 -20,0 -35,-4 -46,-12 -10,-8 -17,-21 -20,-37z"/>
  </g>
  <g>
   <path id="1" fill="none" fill-rule="nonzero" stroke="white" stroke-width="41.9258" d="M8050 3336l0 -23c-12,17 -28,26 -49,26 -9,0 -17,-2 -25,-5 -8,-4 -14,-8 -17,-13 -4,-5 -6,-12 -8,-19 -1,-5 -2,-13 -2,-24l0 -95 26 0 0 85c0,14 1,23 2,27 2,7 5,12 10,16 5,4 12,6 20,6 8,0 15,-2 22,-6 7,-4 12,-9 14,-16 3,-7 4,-17 4,-30l0 -82 26 0 0 154 -23 0z"/>
  </g>
  <g>
   <path id="2" fill="none" fill-rule="nonzero" stroke="white" stroke-width="41.9258" d="M8139 3336l-24 0 0 -212 26 0 0 76c11,-14 25,-21 42,-21 9,0 18,2 27,6 8,4 15,9 21,16 5,7 10,15 13,25 3,10 5,20 5,31 0,26 -7,47 -19,61 -13,14 -29,21 -47,21 -18,0 -32,-8 -43,-23l0 19zm0 -78c0,18 3,32 7,40 8,13 19,20 33,20 11,0 21,-5 29,-15 8,-10 12,-25 12,-44 0,-20 -4,-35 -12,-44 -8,-10 -18,-14 -29,-14 -11,0 -21,5 -29,15 -8,10 -12,24 -12,43z"/>
  </g>
  <g>
   <path id="3" fill="none" fill-rule="nonzero" stroke="white" stroke-width="41.9258" d="M8269 3290l26 -4c1,10 5,18 12,24 7,5 16,8 28,8 12,0 21,-2 27,-7 6,-5 9,-11 9,-17 0,-6 -3,-11 -8,-14 -4,-2 -13,-5 -27,-9 -19,-5 -32,-9 -40,-12 -7,-4 -13,-8 -17,-15 -4,-6 -6,-13 -6,-21 0,-7 2,-13 5,-19 3,-6 7,-11 13,-14 4,-3 10,-5 17,-8 7,-2 14,-3 22,-3 12,0 23,2 32,5 9,3 16,8 20,14 4,6 7,14 9,24l-25 4c-1,-8 -4,-14 -10,-19 -6,-4 -13,-7 -23,-7 -12,0 -20,2 -25,6 -5,4 -8,9 -8,14 0,3 1,6 3,9 2,3 5,5 10,7 3,1 10,3 23,7 18,5 31,9 38,12 7,3 13,8 17,14 4,6 6,13 6,22 0,9 -3,17 -8,24 -5,8 -12,14 -22,18 -10,4 -20,6 -32,6 -20,0 -35,-4 -46,-12 -10,-8 -17,-21 -20,-37z"/>
  </g>
  <g>
   <path id="4" fill="none" fill-rule="nonzero" stroke="white" stroke-width="41.9258" d="M8527 3280l25 4c-3,17 -10,31 -21,41 -11,10 -26,15 -42,15 -21,0 -38,-7 -51,-21 -13,-14 -19,-33 -19,-59 0,-17 3,-31 8,-43 5,-12 14,-22 25,-28 11,-6 23,-9 37,-9 17,0 30,4 41,13 11,8 17,20 20,36l-25 4c-2,-10 -7,-18 -13,-23 -6,-5 -14,-8 -22,-8 -13,0 -24,5 -32,14 -8,9 -12,24 -12,45 0,21 4,36 12,45 8,9 18,14 31,14 10,0 19,-3 26,-9 7,-6 11,-16 13,-29z"/>
  </g>
  <g>
   <path id="5" fill="none" fill-rule="nonzero" stroke="white" stroke-width="41.9258" d="M8575 3336l0 -154 23 0 0 24c6,-11 11,-18 17,-22 5,-3 11,-5 17,-5 9,0 18,3 27,8l-9 24c-6,-4 -13,-5 -19,-5 -6,0 -11,2 -15,5 -4,3 -8,8 -10,14 -3,9 -4,19 -4,30l0 80 -26 0z"/>
  </g>
  <g>
   <path id="6" fill="none" fill-rule="nonzero" stroke="white" stroke-width="41.9258" d="M8674 3154l0 -30 26 0 0 30 -26 0zm0 182l0 -154 26 0 0 154 -26 0z"/>
  </g>
  <g>
   <path id="7" fill="none" fill-rule="nonzero" stroke="white" stroke-width="41.9258" d="M8763 3336l-24 0 0 -212 26 0 0 76c11,-14 25,-21 42,-21 9,0 18,2 27,6 8,4 15,9 21,16 5,7 10,15 13,25 3,10 5,20 5,31 0,26 -7,47 -19,61 -13,14 -29,21 -47,21 -18,0 -32,-8 -43,-23l0 19zm0 -78c0,18 3,32 7,40 8,13 19,20 33,20 11,0 21,-5 29,-15 8,-10 12,-25 12,-44 0,-20 -4,-35 -12,-44 -8,-10 -18,-14 -29,-14 -11,0 -21,5 -29,15 -8,10 -12,24 -12,43z"/>
  </g>
  <g>
   <path id="8" fill="none" fill-rule="nonzero" stroke="white" stroke-width="41.9258" d="M9008 3286l27 4c-4,16 -12,28 -23,36 -11,9 -26,13 -44,13 -22,0 -40,-7 -53,-21 -13,-14 -20,-33 -20,-58 0,-26 7,-46 20,-60 13,-14 30,-21 52,-21 20,0 37,7 50,21 13,14 19,34 19,59 0,2 0,4 0,7l-114 0c1,17 6,30 14,39 9,9 19,13 32,13 10,0 18,-3 24,-8 7,-5 12,-13 16,-24zm-85 -42l85 0c-1,-13 -4,-23 -10,-29 -8,-10 -19,-15 -32,-15 -12,0 -22,4 -30,12 -8,8 -13,19 -13,32z"/>
  </g>
  <g>
   <path id="9" fill="none" fill-rule="nonzero" stroke="white" stroke-width="41.9258" d="M9146 3339l13 -62 -24 0 0 -22 29 0 11 -52 -39 0 0 -22 44 0 13 -62 22 0 -13 62 45 0 13 -62 22 0 -13 62 25 0 0 22 -29 0 -11 52 40 0 0 22 -45 0 -13 62 -22 0 13 -62 -45 0 -13 62 -22 0zm39 -83l45 0 11 -52 -45 0 -11 52z"/>
  </g>
  <text x="7783" y="3336" id="9" fill="#00CCFF" font-weight="normal" font-size="295.804px" font-family="Arial">subscribe #</text>
  <g>
   <path fill="none" fill-rule="nonzero" stroke="white" stroke-width="41.9258" d="M7830 4180l26 -2c1,10 4,19 10,24 6,6 15,9 27,10 12,1 21,-1 27,-5 6,-4 9,-10 10,-16 0,-6 -2,-11 -7,-14 -3,-3 -12,-6 -26,-11 -19,-6 -32,-11 -39,-15 -7,-4 -12,-9 -16,-16 -3,-6 -5,-13 -4,-21 0,-7 2,-13 6,-19 4,-6 8,-10 14,-14 4,-3 10,-5 17,-6 7,-2 15,-2 23,-2 12,1 22,3 31,7 9,4 15,9 19,15 4,6 6,14 7,24l-26 2c-1,-8 -4,-14 -9,-19 -5,-5 -13,-8 -23,-8 -12,-1 -21,1 -26,4 -5,4 -8,8 -9,13 0,3 1,6 3,9 2,3 5,5 9,8 3,1 10,4 22,8 18,6 30,11 38,15 7,4 12,9 16,15 4,6 5,14 5,23 -1,9 -4,17 -9,24 -6,7 -13,13 -23,16 -10,4 -21,5 -33,4 -20,-1 -35,-7 -45,-16 -10,-9 -16,-22 -17,-38z"/>
  </g>
  <g>
   <path id="1" fill="none" fill-rule="nonzero" stroke="white" stroke-width="41.9258" d="M8085 4244l2 -22c-13,16 -30,24 -50,23 -9,-1 -17,-3 -25,-7 -8,-4 -13,-9 -17,-14 -3,-6 -6,-12 -7,-20 -1,-5 -1,-13 0,-24l7 -95 26 2 -6 85c-1,14 -1,23 0,27 1,7 4,13 9,17 5,4 11,7 19,7 8,1 15,-1 22,-4 7,-4 12,-9 16,-15 3,-7 5,-17 6,-30l6 -82 26 2 -11 153 -23 -2z"/>
  </g>
  <g>
   <path id="2" fill="none" fill-rule="nonzero" stroke="white" stroke-width="41.9258" d="M8173 4250l-24 -2 15 -211 26 2 -5 75c12,-13 26,-19 43,-18 9,1 18,3 26,8 8,4 15,10 20,17 5,7 9,16 11,26 2,10 3,20 2,31 -2,26 -10,46 -24,59 -14,13 -30,19 -48,18 -18,-1 -32,-10 -41,-26l-1 19zm5 -78c-1,18 0,32 5,40 7,14 18,21 32,22 11,1 21,-3 30,-13 9,-9 14,-24 15,-43 1,-20 -2,-35 -9,-45 -7,-10 -16,-15 -28,-16 -11,-1 -21,3 -30,13 -9,9 -14,23 -15,42z"/>
  </g>
  <g>
   <path id="3" fill="none" fill-rule="nonzero" stroke="white" stroke-width="41.9258" d="M8306 4214l26 -2c1,10 4,19 10,24 6,6 15,9 27,10 12,1 21,-1 27,-5 6,-4 9,-10 10,-16 0,-6 -2,-11 -7,-14 -3,-3 -12,-6 -26,-11 -19,-6 -32,-11 -39,-15 -7,-4 -12,-9 -16,-16 -3,-6 -5,-13 -4,-21 0,-7 2,-13 6,-19 4,-6 8,-10 14,-14 4,-3 10,-5 17,-6 7,-2 15,-2 23,-2 12,1 22,3 31,7 9,4 15,9 19,15 4,6 6,14 7,24l-26 2c-1,-8 -4,-14 -9,-19 -5,-5 -13,-8 -23,-8 -12,-1 -21,1 -26,4 -5,4 -8,8 -9,13 0,3 1,6 3,9 2,3 5,5 9,8 3,1 10,4 22,8 18,6 30,11 38,15 7,4 12,9 16,15 4,6 5,14 5,23 -1,9 -4,17 -9,24 -6,7 -13,13 -23,16 -10,4 -21,5 -33,4 -20,-1 -35,-7 -45,-16 -10,-9 -16,-22 -17,-38z"/>
  </g>
  <g>
   <path id="4" fill="none" fill-rule="nonzero" stroke="white" stroke-width="41.9258" d="M8564 4221l25 5c-4,17 -12,31 -24,40 -12,9 -27,13 -43,12 -21,-1 -37,-9 -49,-24 -12,-15 -17,-35 -15,-60 1,-17 5,-31 11,-43 6,-12 15,-21 27,-26 12,-5 24,-8 37,-7 17,1 30,6 40,15 10,9 16,22 18,37l-25 2c-2,-10 -5,-18 -11,-24 -6,-6 -13,-9 -22,-9 -13,-1 -24,3 -33,12 -9,9 -14,23 -15,44 -1,21 1,36 9,46 7,10 17,15 30,16 10,1 19,-2 26,-8 7,-6 12,-15 15,-28z"/>
  </g>
  <g>
   <path id="5" fill="none" fill-rule="nonzero" stroke="white" stroke-width="41.9258" d="M8608 4281l11 -153 23 2 -2 23c7,-10 13,-17 18,-20 5,-3 11,-4 17,-4 9,1 17,4 26,10l-11 23c-6,-4 -12,-6 -19,-7 -6,0 -11,1 -16,4 -5,3 -8,8 -11,14 -3,9 -6,19 -6,30l-6 80 -26 -2z"/>
  </g>
  <g>
   <path id="6" fill="none" fill-rule="nonzero" stroke="white" stroke-width="41.9258" d="M8719 4106l2 -30 26 2 -2 30 -26 -2zm-13 181l11 -153 26 2 -11 153 -26 -2z"/>
  </g>
  <g>
   <path id="7" fill="none" fill-rule="nonzero" stroke="white" stroke-width="41.9258" d="M8796 4294l-24 -2 15 -211 26 2 -5 75c12,-13 26,-19 43,-18 9,1 18,3 26,8 8,4 15,10 20,17 5,7 9,16 11,26 2,10 3,20 2,31 -2,26 -10,46 -24,59 -14,13 -30,19 -48,18 -18,-1 -32,-10 -41,-26l-1 19zm5 -78c-1,18 0,32 5,40 7,14 18,21 32,22 11,1 21,-3 30,-13 9,-9 14,-24 15,-43 1,-20 -2,-35 -9,-45 -7,-10 -16,-15 -28,-16 -11,-1 -21,3 -30,13 -9,9 -14,23 -15,42z"/>
  </g>
  <g>
   <path id="8" fill="none" fill-rule="nonzero" stroke="white" stroke-width="41.9258" d="M9044 4262l27 5c-5,15 -14,27 -26,35 -12,8 -27,11 -45,10 -22,-2 -40,-10 -52,-24 -12,-15 -17,-34 -16,-59 2,-26 10,-45 24,-59 14,-13 32,-19 53,-18 20,1 37,10 49,24 12,15 17,35 15,60 0,2 0,4 -1,7l-114 -8c0,17 4,30 12,40 8,10 18,15 31,16 10,1 18,-1 25,-6 7,-4 13,-12 18,-23zm-82 -48l85 6c0,-13 -3,-23 -8,-30 -8,-11 -18,-16 -31,-17 -12,-1 -22,2 -31,10 -9,7 -14,18 -16,31z"/>
  </g>
  <g transform="matrix(0.997564 0.0697565 -0.0697565 0.997564 1793.37 -1037.45)">
   <text x="6377" y="4830" id="8" fill="#00CCFF" font-weight="normal" font-size="295.804px" font-family="Arial">subscribe</text>
  </g>
  <g>
   <path fill="none" fill-rule="nonzero" stroke="white" stroke-width="41.9258" d="M2718 4810l26 -2c1,10 4,19 10,24 6,6 15,9 27,10 12,1 21,-1 27,-5 6,-4 9,-10 10,-16 0,-6 -2,-11 -7,-14 -3,-3 -12,-6 -26,-11 -19,-6 -32,-11 -39,-15 -7,-4 -12,-9 -16,-16 -3,-6 -5,-13 -4,-21 0,-7 2,-13 6,-19 4,-6 8,-10 14,-14 4,-3 10,-5 17,-6 7,-2 15,-2 23,-2 12,1 22,3 31,7 9,4 15,9 19,15 4,6 6,14 7,24l-26 2c-1,-8 -4,-14 -9,-19 -5,-5 -13,-8 -23,-8 -12,-1 -21,1 -26,4 -5,4 -8,8 -9,13 0,3 1,6 3,9 2,3 5,5 9,8 3,1 10,4 22,8 18,6 30,11 38,15 7,4 12,9 16,15 4,6 5,14 5,23 -1,9 -4,17 -9,24 -6,7 -13,13 -23,16 -10,4 -21,5 -33,4 -20,-1 -35,-7 -45,-16 -10,-9 -16,-22 -17,-38z"/>
  </g>
  <g>
   <path id="1" fill="none" fill-rule="nonzero" stroke="white" stroke-width="41.9258" d="M2973 4874l2 -22c-13,16 -30,24 -50,23 -9,-1 -17,-3 -25,-7 -8,-4 -13,-9 -17,-14 -3,-6 -6,-12 -7,-20 -1,-5 -1,-13 0,-24l7 -95 26 2 -6 85c-1,14 -1,23 0,27 1,7 4,13 9,17 5,4 11,7 19,7 8,1 15,-1 22,-4 7,-4 12,-9 16,-15 3,-7 5,-17 6,-30l6 -82 26 2 -11 153 -23 -2z"/>
  </g>
  <g>
   <path id="2" fill="none" fill-rule="nonzero" stroke="white" stroke-width="41.9258" d="M3061 4880l-24 -2 15 -211 26 2 -5 75c12,-13 26,-19 43,-18 9,1 18,3 26,8 8,4 15,10 20,17 5,7 9,16 11,26 2,10 3,20 2,31 -2,26 -10,46 -24,59 -14,13 -30,19 -48,18 -18,-1 -32,-10 -41,-26l-1 19zm5 -78c-1,18 0,32 5,40 7,14 18,21 32,22 11,1 21,-3 30,-13 9,-9 14,-24 15,-43 1,-20 -2,-35 -9,-45 -7,-10 -16,-15 -28,-16 -11,-1 -21,3 -30,13 -9,9 -14,23 -15,42z"/>
  </g>
  <g>
   <path id="3" fill="none" fill-rule="nonzero" stroke="white" stroke-width="41.9258" d="M3194 4844l26 -2c1,10 4,19 10,24 6,6 15,9 27,10 12,1 21,-1 27,-5 6,-4 9,-10 10,-16 0,-6 -2,-11 -7,-14 -3,-3 -12,-6 -26,-11 -19,-6 -32,-11 -39,-15 -7,-4 -12,-9 -16,-16 -3,-6 -5,-13 -4,-21 0,-7 2,-13 6,-19 4,-6 8,-10 14,-14 4,-3 10,-5 17,-6 7,-2 15,-2 23,-2 12,1 22,3 31,7 9,4 15,9 19,15 4,6 6,14 7,24l-26 2c-1,-8 -4,-14 -9,-19 -5,-5 -13,-8 -23,-8 -12,-1 -21,1 -26,4 -5,4 -8,8 -9,13 0,3 1,6 3,9 2,3 5,5 9,8 3,1 10,4 22,8 18,6 30,11 38,15 7,4 12,9 16,15 4,6 5,14 5,23 -1,9 -4,17 -9,24 -6,7 -13,13 -23,16 -10,4 -21,5 -33,4 -20,-1 -35,-7 -45,-16 -10,-9 -16,-22 -17,-38z"/>
  </g>
  <g>
   <path id="4" fill="none" fill-rule="nonzero" stroke="white" stroke-width="41.9258" d="M3452 4851l25 5c-4,17 -12,31 -24,40 -12,9 -27,13 -43,12 -21,-1 -37,-9 -49,-24 -12,-15 -17,-35 -15,-60 1,-17 5,-31 11,-43 6,-12 15,-21 27,-26 12,-5 24,-8 37,-7 17,1 30,6 40,15 10,9 16,22 18,37l-25 2c-2,-10 -5,-18 -11,-24 -6,-6 -13,-9 -22,-9 -13,-1 -24,3 -33,12 -9,9 -14,23 -15,44 -1,21 1,36 9,46 7,10 17,15 30,16 10,1 19,-2 26,-8 7,-6 12,-15 15,-28z"/>
  </g>
  <g>
   <path id="5" fill="none" fill-rule="nonzero" stroke="white" stroke-width="41.9258" d="M3496 4911l11 -153 23 2 -2 23c7,-10 13,-17 18,-20 5,-3 11,-4 17,-4 9,1 17,4 26,10l-11 23c-6,-4 -12,-6 -19,-7 -6,0 -11,1 -16,4 -5,3 -8,8 -11,14 -3,9 -6,19 -6,30l-6 80 -26 -2z"/>
  </g>
  <g>
   <path id="6" fill="none" fill-rule="nonzero" stroke="white" stroke-width="41.9258" d="M3607 4736l2 -30 26 2 -2 30 -26 -2zm-13 181l11 -153 26 2 -11 153 -26 -2z"/>
  </g>
  <g>
   <path id="7" fill="none" fill-rule="nonzero" stroke="white" stroke-width="41.9258" d="M3684 4924l-24 -2 15 -211 26 2 -5 75c12,-13 26,-19 43,-18 9,1 18,3 26,8 8,4 15,10 20,17 5,7 9,16 11,26 2,10 3,20 2,31 -2,26 -10,46 -24,59 -14,13 -30,19 -48,18 -18,-1 -32,-10 -41,-26l-1 19zm5 -78c-1,18 0,32 5,40 7,14 18,21 32,22 11,1 21,-3 30,-13 9,-9 14,-24 15,-43 1,-20 -2,-35 -9,-45 -7,-10 -16,-15 -28,-16 -11,-1 -21,3 -30,13 -9,9 -14,23 -15,42z"/>
  </g>
  <g>
   <path id="8" fill="none" fill-rule="nonzero" stroke="white" stroke-width="41.9258" d="M3932 4892l27 5c-5,15 -14,27 -26,35 -12,8 -27,11 -45,10 -22,-2 -40,-10 -52,-24 -12,-15 -17,-34 -16,-59 2,-26 10,-45 24,-59 14,-13 32,-19 53,-18 20,1 37,10 49,24 12,15 17,35 15,60 0,2 0,4 -1,7l-114 -8c0,17 4,30 12,40 8,10 18,15 31,16 10,1 18,-1 25,-6 7,-4 13,-12 18,-23zm-82 -48l85 6c0,-13 -3,-23 -8,-30 -8,-11 -18,-16 -31,-17 -12,-1 -22,2 -31,10 -9,7 -14,18 -16,31z"/>
  </g>
  <g transform="matrix(0.997564 0.0697565 -0.0697565 0.997564 -3318.56 -407.598)">
   <text x="6377" y="4830" id="8" fill="#00CCFF" font-weight="normal" font-size="295.804px" font-family="Arial">subscribe</text>
  </g>
  <g>
   <path fill="none" fill-rule="nonzero" stroke="white" stroke-width="41.9258" d="M2487 6467l0 -212 24 0 0 20c6,-8 12,-14 19,-18 7,-4 16,-6 26,-6 13,0 25,3 35,10 10,7 18,16 23,28 5,12 8,26 8,40 0,16 -3,30 -8,42 -6,13 -14,22 -25,29 -11,7 -22,10 -34,10 -9,0 -16,-2 -23,-5 -7,-4 -13,-8 -17,-14l0 75 -26 0zm24 -135c0,20 4,34 12,44 8,9 18,14 29,14 12,0 21,-5 30,-15 8,-10 12,-25 12,-45 0,-20 -4,-34 -12,-44 -8,-10 -18,-15 -29,-15 -11,0 -21,5 -29,15 -9,10 -13,25 -13,45z"/>
  </g>
  <g>
   <path id="1" fill="none" fill-rule="nonzero" stroke="white" stroke-width="41.9258" d="M2752 6408l0 -23c-12,17 -28,26 -49,26 -9,0 -17,-2 -25,-5 -8,-4 -14,-8 -17,-13 -4,-5 -6,-12 -8,-19 -1,-5 -2,-13 -2,-24l0 -95 26 0 0 85c0,14 1,23 2,27 2,7 5,12 10,16 5,4 12,6 20,6 8,0 15,-2 22,-6 7,-4 12,-9 14,-16 3,-7 4,-17 4,-30l0 -82 26 0 0 154 -23 0z"/>
  </g>
  <g>
   <path id="2" fill="none" fill-rule="nonzero" stroke="white" stroke-width="41.9258" d="M2840 6408l-24 0 0 -212 26 0 0 76c11,-14 25,-21 42,-21 9,0 18,2 27,6 8,4 15,9 21,16 5,7 10,15 13,25 3,10 5,20 5,31 0,26 -7,47 -19,61 -13,14 -29,21 -47,21 -18,0 -32,-8 -43,-23l0 19zm0 -78c0,18 3,32 7,40 8,13 19,20 33,20 11,0 21,-5 29,-15 8,-10 12,-25 12,-44 0,-20 -4,-35 -12,-44 -8,-10 -18,-14 -29,-14 -11,0 -21,5 -29,15 -8,10 -12,24 -12,43z"/>
  </g>
  <g>
   <polygon id="3" fill="none" fill-rule="nonzero" stroke="white" stroke-width="41.9258" points="2980,6408 2980,6196 3006,6196 3006,6408 "/>
  </g>
  <g>
   <path id="4" fill="none" fill-rule="nonzero" stroke="white" stroke-width="41.9258" d="M3046 6226l0 -30 26 0 0 30 -26 0zm0 182l0 -154 26 0 0 154 -26 0z"/>
  </g>
  <g>
   <path id="5" fill="none" fill-rule="nonzero" stroke="white" stroke-width="41.9258" d="M3101 6362l26 -4c1,10 5,18 12,24 7,5 16,8 28,8 12,0 21,-2 27,-7 6,-5 9,-11 9,-17 0,-6 -3,-11 -8,-14 -4,-2 -13,-5 -27,-9 -19,-5 -32,-9 -40,-12 -7,-4 -13,-8 -17,-15 -4,-6 -6,-13 -6,-21 0,-7 2,-13 5,-19 3,-6 7,-11 13,-14 4,-3 10,-5 17,-8 7,-2 14,-3 22,-3 12,0 23,2 32,5 9,3 16,8 20,14 4,6 7,14 9,24l-25 4c-1,-8 -4,-14 -10,-19 -6,-4 -13,-7 -23,-7 -12,0 -20,2 -25,6 -5,4 -8,9 -8,14 0,3 1,6 3,9 2,3 5,5 10,7 3,1 10,3 23,7 18,5 31,9 38,12 7,3 13,8 17,14 4,6 6,13 6,22 0,9 -3,17 -8,24 -5,8 -12,14 -22,18 -10,4 -20,6 -32,6 -20,0 -35,-4 -46,-12 -10,-8 -17,-21 -20,-37z"/>
  </g>
  <g>
   <path id="6" fill="none" fill-rule="nonzero" stroke="white" stroke-width="41.9258" d="M3260 6408l0 -212 26 0 0 76c12,-14 27,-21 46,-21 11,0 21,2 29,7 8,4 14,11 18,19 4,8 5,19 5,34l0 97 -26 0 0 -97c0,-13 -3,-22 -8,-28 -6,-6 -14,-9 -24,-9 -8,0 -15,2 -22,6 -7,4 -12,9 -14,16 -3,7 -4,16 -4,28l0 84 -26 0z"/>
  </g>
  <g>
   <path id="7" fill="none" fill-rule="nonzero" stroke="white" stroke-width="41.9258" d="M3670 6385c13,9 25,15 36,20l-8 20c-15,-5 -30,-14 -46,-26 -16,9 -33,13 -52,13 -19,0 -36,-5 -52,-14 -16,-9 -28,-22 -36,-39 -8,-17 -13,-36 -13,-57 0,-21 4,-40 13,-57 8,-17 21,-30 36,-39 16,-9 33,-13 52,-13 20,0 37,5 53,14 16,9 28,22 36,39 8,17 12,35 12,56 0,17 -3,33 -8,47 -5,14 -13,26 -24,36zm-62 -36c16,5 29,11 40,20 16,-15 25,-38 25,-68 0,-17 -3,-32 -9,-45 -6,-13 -14,-23 -25,-30 -11,-7 -24,-11 -38,-11 -21,0 -38,7 -52,21 -14,14 -21,36 -21,64 0,27 7,49 20,63 14,15 31,22 52,22 10,0 19,-2 28,-6 -9,-6 -18,-10 -28,-12l7 -20z"/>
  </g>
  <g>
   <path id="8" fill="none" fill-rule="nonzero" stroke="white" stroke-width="41.9258" d="M3727 6331c0,-28 8,-49 24,-63 13,-11 29,-17 48,-17 21,0 38,7 52,21 13,14 20,33 20,57 0,20 -3,35 -9,46 -6,11 -15,20 -26,26 -11,6 -24,9 -37,9 -21,0 -39,-7 -52,-21 -13,-14 -20,-34 -20,-59zm27 0c0,20 4,34 13,44 9,10 19,15 32,15 13,0 24,-5 32,-15 9,-10 13,-25 13,-45 0,-19 -4,-33 -13,-43 -9,-10 -19,-15 -32,-15 -13,0 -24,5 -32,15 -9,10 -13,24 -13,44z"/>
  </g>
  <g>
   <path id="9" fill="none" fill-rule="nonzero" stroke="white" stroke-width="41.9258" d="M3895 6340l26 -2c1,11 4,19 9,26 5,7 12,12 21,17 10,4 20,6 32,6 11,0 20,-2 28,-5 8,-3 14,-8 18,-13 4,-6 6,-12 6,-18 0,-7 -2,-12 -6,-17 -4,-5 -10,-9 -19,-12 -6,-2 -18,-6 -38,-10 -19,-5 -33,-9 -41,-13 -10,-5 -18,-12 -23,-20 -5,-8 -7,-17 -7,-26 0,-11 3,-21 9,-30 6,-9 15,-16 27,-21 12,-5 25,-7 39,-7 16,0 30,3 42,8 12,5 21,12 28,22 6,10 10,21 10,33l-27 2c-1,-13 -6,-23 -15,-30 -8,-7 -21,-10 -37,-10 -17,0 -29,3 -37,9 -8,6 -12,14 -12,22 0,8 3,14 8,19 5,5 19,10 42,15 23,5 38,10 47,14 12,6 21,13 27,22 6,9 9,19 9,30 0,11 -3,22 -10,32 -6,10 -16,18 -28,23 -12,6 -26,8 -41,8 -19,0 -35,-3 -48,-8 -13,-6 -23,-14 -30,-25 -7,-11 -11,-24 -12,-38z"/>
  </g>
  <g transform="matrix(1 0 0 1 -3736.99 1577.94)">
   <text x="6204" y="4830" id="9" fill="#FF6600" font-weight="normal" font-size="295.804px" font-family="Arial">publish QoS</text>
  </g>
  <g>
   <path fill="none" fill-rule="nonzero" stroke="white" stroke-width="41.9258" d="M7553 6362l26 -4c1,10 5,18 12,24 7,5 16,8 28,8 12,0 21,-2 27,-7 6,-5 9,-11 9,-17 0,-6 -3,-11 -8,-14 -4,-2 -13,-5 -27,-9 -19,-5 -32,-9 -40,-12 -7,-4 -13,-8 -17,-15 -4,-6 -6,-13 -6,-21 0,-7 2,-13 5,-19 3,-6 7,-11 13,-14 4,-3 10,-5 17,-8 7,-2 14,-3 22,-3 12,0 23,2 32,5 9,3 16,8 20,14 4,6 7,14 9,24l-25 4c-1,-8 -4,-14 -10,-19 -6,-4 -13,-7 -23,-7 -12,0 -20,2 -25,6 -5,4 -8,9 -8,14 0,3 1,6 3,9 2,3 5,5 10,7 3,1 10,3 23,7 18,5 31,9 38,12 7,3 13,8 17,14 4,6 6,13 6,22 0,9 -3,17 -8,24 -5,8 -12,14 -22,18 -10,4 -20,6 -32,6 -20,0 -35,-4 -46,-12 -10,-8 -17,-21 -20,-37z"/>
  </g>
  <g>
   <path id="1" fill="none" fill-rule="nonzero" stroke="white" stroke-width="41.9258" d="M7811 6408l0 -23c-12,17 -28,26 -49,26 -9,0 -17,-2 -25,-5 -8,-4 -14,-8 -17,-13 -4,-5 -6,-12 -8,-19 -1,-5 -2,-13 -2,-24l0 -95 26 0 0 85c0,14 1,23 2,27 2,7 5,12 10,16 5,4 12,6 20,6 8,0 15,-2 22,-6 7,-4 12,-9 14,-16 3,-7 4,-17 4,-30l0 -82 26 0 0 154 -23 0z"/>
  </g>
  <g>
   <path id="2" fill="none" fill-rule="nonzero" stroke="white" stroke-width="41.9258" d="M7900 6408l-24 0 0 -212 26 0 0 76c11,-14 25,-21 42,-21 9,0 18,2 27,6 8,4 15,9 21,16 5,7 10,15 13,25 3,10 5,20 5,31 0,26 -7,47 -19,61 -13,14 -29,21 -47,21 -18,0 -32,-8 -43,-23l0 19zm0 -78c0,18 3,32 7,40 8,13 19,20 33,20 11,0 21,-5 29,-15 8,-10 12,-25 12,-44 0,-20 -4,-35 -12,-44 -8,-10 -18,-14 -29,-14 -11,0 -21,5 -29,15 -8,10 -12,24 -12,43z"/>
  </g>
  <g>
   <path id="3" fill="none" fill-rule="nonzero" stroke="white" stroke-width="41.9258" d="M8030 6362l26 -4c1,10 5,18 12,24 7,5 16,8 28,8 12,0 21,-2 27,-7 6,-5 9,-11 9,-17 0,-6 -3,-11 -8,-14 -4,-2 -13,-5 -27,-9 -19,-5 -32,-9 -40,-12 -7,-4 -13,-8 -17,-15 -4,-6 -6,-13 -6,-21 0,-7 2,-13 5,-19 3,-6 7,-11 13,-14 4,-3 10,-5 17,-8 7,-2 14,-3 22,-3 12,0 23,2 32,5 9,3 16,8 20,14 4,6 7,14 9,24l-25 4c-1,-8 -4,-14 -10,-19 -6,-4 -13,-7 -23,-7 -12,0 -20,2 -25,6 -5,4 -8,9 -8,14 0,3 1,6 3,9 2,3 5,5 10,7 3,1 10,3 23,7 18,5 31,9 38,12 7,3 13,8 17,14 4,6 6,13 6,22 0,9 -3,17 -8,24 -5,8 -12,14 -22,18 -10,4 -20,6 -32,6 -20,0 -35,-4 -46,-12 -10,-8 -17,-21 -20,-37z"/>
  </g>
  <g>
   <path id="4" fill="none" fill-rule="nonzero" stroke="white" stroke-width="41.9258" d="M8288 6352l25 4c-3,17 -10,31 -21,41 -11,10 -26,15 -42,15 -21,0 -38,-7 -51,-21 -13,-14 -19,-33 -19,-59 0,-17 3,-31 8,-43 5,-12 14,-22 25,-28 11,-6 23,-9 37,-9 17,0 30,4 41,13 11,8 17,20 20,36l-25 4c-2,-10 -7,-18 -13,-23 -6,-5 -14,-8 -22,-8 -13,0 -24,5 -32,14 -8,9 -12,24 -12,45 0,21 4,36 12,45 8,9 18,14 31,14 10,0 19,-3 26,-9 7,-6 11,-16 13,-29z"/>
  </g>
  <g>
   <path id="5" fill="none" fill-rule="nonzero" stroke="white" stroke-width="41.9258" d="M8336 6408l0 -154 23 0 0 24c6,-11 11,-18 17,-22 5,-3 11,-5 17,-5 9,0 18,3 27,8l-9 24c-6,-4 -13,-5 -19,-5 -6,0 -11,2 -15,5 -4,3 -8,8 -10,14 -3,9 -4,19 -4,30l0 80 -26 0z"/>
  </g>
  <g>
   <path id="6" fill="none" fill-rule="nonzero" stroke="white" stroke-width="41.9258" d="M8434 6226l0 -30 26 0 0 30 -26 0zm0 182l0 -154 26 0 0 154 -26 0z"/>
  </g>
  <g>
   <path id="7" fill="none" fill-rule="nonzero" stroke="white" stroke-width="41.9258" d="M8524 6408l-24 0 0 -212 26 0 0 76c11,-14 25,-21 42,-21 9,0 18,2 27,6 8,4 15,9 21,16 5,7 10,15 13,25 3,10 5,20 5,31 0,26 -7,47 -19,61 -13,14 -29,21 -47,21 -18,0 -32,-8 -43,-23l0 19zm0 -78c0,18 3,32 7,40 8,13 19,20 33,20 11,0 21,-5 29,-15 8,-10 12,-25 12,-44 0,-20 -4,-35 -12,-44 -8,-10 -18,-14 -29,-14 -11,0 -21,5 -29,15 -8,10 -12,24 -12,43z"/>
  </g>
  <g>
   <path id="8" fill="none" fill-rule="nonzero" stroke="white" stroke-width="41.9258" d="M8769 6358l27 4c-4,16 -12,28 -23,36 -11,9 -26,13 -44,13 -22,0 -40,-7 -53,-21 -13,-14 -20,-33 -20,-58 0,-26 7,-46 20,-60 13,-14 30,-21 52,-21 20,0 37,7 50,21 13,14 19,34 19,59 0,2 0,4 0,7l-114 0c1,17 6,30 14,39 9,9 19,13 32,13 10,0 18,-3 24,-8 7,-5 12,-13 16,-24zm-85 -42l85 0c-1,-13 -4,-23 -10,-29 -8,-10 -19,-15 -32,-15 -12,0 -22,4 -30,12 -8,8 -13,19 -13,32z"/>
  </g>
  <g>
   <path id="9" fill="none" fill-rule="nonzero" stroke="white" stroke-width="41.9258" d="M9075 6385c13,9 25,15 36,20l-8 20c-15,-5 -30,-14 -46,-26 -16,9 -33,13 -52,13 -19,0 -36,-5 -52,-14 -16,-9 -28,-22 -36,-39 -8,-17 -13,-36 -13,-57 0,-21 4,-40 13,-57 8,-17 21,-30 36,-39 16,-9 33,-13 52,-13 20,0 37,5 53,14 16,9 28,22 36,39 8,17 12,35 12,56 0,17 -3,33 -8,47 -5,14 -13,26 -24,36zm-62 -36c16,5 29,11 40,20 16,-15 25,-38 25,-68 0,-17 -3,-32 -9,-45 -6,-13 -14,-23 -25,-30 -11,-7 -24,-11 -38,-11 -21,0 -38,7 -52,21 -14,14 -21,36 -21,64 0,27 7,49 20,63 14,15 31,22 52,22 10,0 19,-2 28,-6 -9,-6 -18,-10 -28,-12l7 -20z"/>
  </g>
  <g>
   <path id="10" fill="none" fill-rule="nonzero" stroke="white" stroke-width="41.9258" d="M9132 6331c0,-28 8,-49 24,-63 13,-11 29,-17 48,-17 21,0 38,7 52,21 13,14 20,33 20,57 0,20 -3,35 -9,46 -6,11 -15,20 -26,26 -11,6 -24,9 -37,9 -21,0 -39,-7 -52,-21 -13,-14 -20,-34 -20,-59zm27 0c0,20 4,34 13,44 9,10 19,15 32,15 13,0 24,-5 32,-15 9,-10 13,-25 13,-45 0,-19 -4,-33 -13,-43 -9,-10 -19,-15 -32,-15 -13,0 -24,5 -32,15 -9,10 -13,24 -13,44z"/>
  </g>
  <g>
   <path id="11" fill="none" fill-rule="nonzero" stroke="white" stroke-width="41.9258" d="M9300 6340l26 -2c1,11 4,19 9,26 5,7 12,12 21,17 10,4 20,6 32,6 11,0 20,-2 28,-5 8,-3 14,-8 18,-13 4,-6 6,-12 6,-18 0,-7 -2,-12 -6,-17 -4,-5 -10,-9 -19,-12 -6,-2 -18,-6 -38,-10 -19,-5 -33,-9 -41,-13 -10,-5 -18,-12 -23,-20 -5,-8 -7,-17 -7,-26 0,-11 3,-21 9,-30 6,-9 15,-16 27,-21 12,-5 25,-7 39,-7 16,0 30,3 42,8 12,5 21,12 28,22 6,10 10,21 10,33l-27 2c-1,-13 -6,-23 -15,-30 -8,-7 -21,-10 -37,-10 -17,0 -29,3 -37,9 -8,6 -12,14 -12,22 0,8 3,14 8,19 5,5 19,10 42,15 23,5 38,10 47,14 12,6 21,13 27,22 6,9 9,19 9,30 0,11 -3,22 -10,32 -6,10 -16,18 -28,23 -12,6 -26,8 -41,8 -19,0 -35,-3 -48,-8 -13,-6 -23,-14 -30,-25 -7,-11 -11,-24 -12,-38z"/>
  </g>
  <g transform="matrix(1 0 0 1 1503.74 1577.94)">
   <text x="6040" y="4830" id="11" fill="#00CCFF" font-weight="normal" font-size="295.804px" font-family="Arial">subscribe QoS</text>
  </g>
  <g>
   <path fill="none" fill-rule="nonzero" stroke="white" stroke-width="41.9258" d="M2832 3667l15 -212 24 2 -1 20c6,-7 13,-13 20,-16 7,-3 16,-5 26,-4 13,1 24,5 34,12 10,7 16,17 21,30 4,13 6,26 5,41 -1,16 -5,30 -11,42 -7,12 -15,21 -27,27 -11,6 -23,8 -34,8 -9,-1 -16,-3 -23,-7 -7,-4 -12,-9 -16,-15l-5 74 -26 -2zm33 -133c-1,20 2,35 9,44 7,10 17,15 28,16 12,1 22,-3 31,-13 9,-9 14,-24 15,-44 1,-19 -2,-34 -9,-45 -7,-10 -17,-16 -28,-17 -11,-1 -21,4 -30,13 -9,10 -14,24 -16,44z"/>
  </g>
  <g>
   <path id="1" fill="none" fill-rule="nonzero" stroke="white" stroke-width="41.9258" d="M3100 3627l2 -22c-13,16 -30,24 -50,23 -9,-1 -17,-3 -25,-7 -8,-4 -13,-9 -17,-14 -3,-6 -6,-12 -7,-20 -1,-5 -1,-13 0,-24l7 -95 26 2 -6 85c-1,14 -1,23 0,27 1,7 4,13 9,17 5,4 11,7 19,7 8,1 15,-1 22,-4 7,-4 12,-9 16,-15 3,-7 5,-17 6,-30l6 -82 26 2 -11 153 -23 -2z"/>
  </g>
  <g>
   <path id="2" fill="none" fill-rule="nonzero" stroke="white" stroke-width="41.9258" d="M3188 3633l-24 -2 15 -211 26 2 -5 75c12,-13 26,-19 43,-18 9,1 18,3 26,8 8,4 15,10 20,17 5,7 9,16 11,26 2,10 3,20 2,31 -2,26 -10,46 -24,59 -14,13 -30,19 -48,18 -18,-1 -32,-10 -41,-26l-1 19zm5 -78c-1,18 0,32 5,40 7,14 18,21 32,22 11,1 21,-3 30,-13 9,-9 14,-24 15,-43 1,-20 -2,-35 -9,-45 -7,-10 -16,-15 -28,-16 -11,-1 -21,3 -30,13 -9,9 -14,23 -15,42z"/>
  </g>
  <g>
   <polygon id="3" fill="none" fill-rule="nonzero" stroke="white" stroke-width="41.9258" points="3328,3643 3343,3432 3369,3433 3354,3645 "/>
  </g>
  <g>
   <path id="4" fill="none" fill-rule="nonzero" stroke="white" stroke-width="41.9258" d="M3407 3466l2 -30 26 2 -2 30 -26 -2zm-13 181l11 -153 26 2 -11 153 -26 -2z"/>
  </g>
  <g>
   <path id="5" fill="none" fill-rule="nonzero" stroke="white" stroke-width="41.9258" d="M3452 3606l26 -2c1,10 4,19 10,25 6,6 15,9 27,10 12,1 21,-1 27,-5 6,-4 9,-10 10,-16 0,-6 -2,-11 -7,-14 -3,-3 -12,-6 -26,-11 -19,-6 -32,-11 -39,-15 -7,-4 -12,-9 -16,-16 -3,-6 -5,-13 -4,-21 0,-7 2,-13 6,-19 3,-6 8,-10 14,-14 4,-3 10,-5 17,-6 7,-2 15,-2 23,-2 12,1 22,3 31,7 9,4 15,9 19,15 4,6 6,14 7,24l-26 2c-1,-8 -4,-14 -9,-19 -5,-5 -13,-8 -23,-8 -12,-1 -21,1 -26,4 -5,4 -8,8 -9,13 0,3 1,6 3,9 2,3 5,5 9,8 3,1 10,4 22,8 18,6 30,11 38,15 7,4 12,9 16,15 4,6 5,14 5,23 -1,9 -4,17 -9,24 -6,7 -13,13 -23,16 -10,4 -21,5 -33,4 -20,-1 -35,-7 -45,-16 -10,-9 -16,-22 -17,-38z"/>
  </g>
  <g>
   <path id="6" fill="none" fill-rule="nonzero" stroke="white" stroke-width="41.9258" d="M3607 3662l15 -211 26 2 -5 76c13,-13 29,-19 47,-18 11,1 21,4 29,9 8,5 14,12 17,20 3,8 4,20 3,35l-7 97 -26 -2 7 -97c1,-13 -1,-23 -6,-29 -5,-6 -13,-10 -23,-11 -8,0 -15,1 -22,4 -7,3 -12,9 -16,15 -3,7 -5,16 -6,28l-6 84 -26 -2z"/>
  </g>
  <g transform="matrix(0.997564 0.0697565 -0.0697565 0.997564 -3371.74 -1667.45)">
   <text x="6541" y="4830" id="6" fill="#FF6600" font-weight="normal" font-size="295.804px" font-family="Arial">publish</text>
  </g>
  <g>
   <path fill="#00CCFF" fill-rule="nonzero" d="M6717 5459l177 -44 -35 159 -141 -115zm3120 726l-2969 -660 14 -61 2969 660 -14 61z"/>
  </g>
  <g>
   <path fill="#00CCFF" fill-rule="nonzero" d="M10033 6282l-177 44 35 -159 141 115zm-3120 -726l2969 660 -14 61 -2969 -660 14 -61z"/>
  </g>
  <g>
   <path fill="#00CCFF" fill-rule="nonzero" d="M10070 6119l-177 44 35 -159 141 115zm-3120 -726l2969 660 -14 61 -2969 -660 14 -61z"/>
  </g>
  <g>
   <path fill="none" fill-rule="nonzero" stroke="white" stroke-width="41.9258" d="M7564 5502l26 2c-1,10 1,19 7,26 5,7 14,11 25,14 12,3 21,2 28,-1 7,-3 11,-8 12,-15 1,-6 0,-11 -4,-15 -3,-3 -11,-8 -24,-14 -18,-9 -30,-16 -36,-21 -6,-5 -11,-11 -13,-18 -2,-7 -3,-14 -1,-21 2,-7 4,-12 9,-17 4,-5 10,-9 16,-11 5,-2 11,-3 18,-4 7,0 15,0 23,2 12,3 22,7 30,12 8,5 14,11 17,18 3,7 4,15 4,25l-26 -2c1,-8 -1,-15 -6,-20 -4,-5 -12,-9 -21,-12 -12,-3 -20,-3 -26,0 -6,3 -9,7 -10,12 -1,3 0,6 1,10 1,3 4,6 8,9 2,2 9,5 21,12 17,9 29,16 35,20 6,5 11,10 14,17 3,7 3,14 1,23 -2,8 -6,16 -13,22 -7,6 -15,11 -25,13 -10,2 -21,2 -33,-1 -19,-4 -33,-12 -42,-22 -8,-10 -12,-24 -12,-40z"/>
  </g>
  <g>
   <path id="1" fill="none" fill-rule="nonzero" stroke="white" stroke-width="41.9258" d="M7807 5604l5 -22c-15,14 -33,19 -53,15 -9,-2 -17,-6 -24,-11 -7,-5 -12,-11 -14,-17 -3,-6 -4,-13 -4,-21 0,-5 1,-13 4,-24l21 -93 25 6 -19 83c-3,13 -4,22 -4,27 0,7 2,13 7,18 4,5 10,8 18,10 8,2 15,1 23,-1 8,-2 13,-7 18,-13 4,-6 8,-16 11,-28l18 -80 25 6 -33 150 -23 -5z"/>
  </g>
  <g>
   <path id="2" fill="none" fill-rule="nonzero" stroke="white" stroke-width="41.9258" d="M7892 5624l-24 -5 46 -207 25 6 -16 74c14,-11 29,-15 46,-11 9,2 18,6 25,11 7,6 13,12 17,20 4,8 6,17 7,27 1,10 0,21 -2,31 -6,26 -16,44 -32,55 -16,11 -33,15 -50,11 -18,-4 -30,-14 -37,-31l-4 19zm17 -76c-4,18 -4,31 -1,41 5,15 14,24 28,27 11,2 22,0 32,-8 10,-8 17,-21 22,-40 4,-20 4,-35 -2,-46 -6,-11 -14,-18 -25,-20 -11,-2 -22,0 -32,8 -10,8 -17,21 -21,39z"/>
  </g>
  <g>
   <path id="3" fill="none" fill-rule="nonzero" stroke="white" stroke-width="41.9258" d="M8029 5608l26 2c-1,10 1,19 7,26 5,7 14,11 25,14 12,3 21,2 28,-1 7,-3 11,-8 12,-15 1,-6 0,-11 -4,-15 -3,-3 -11,-8 -24,-14 -18,-9 -30,-16 -36,-21 -6,-5 -11,-11 -13,-18 -2,-7 -3,-14 -1,-21 2,-7 4,-12 9,-17 4,-5 10,-9 16,-11 5,-2 11,-3 18,-4 7,0 15,0 23,2 12,3 22,7 30,12 8,5 14,11 17,18 3,7 4,15 4,25l-26 -2c1,-8 -1,-15 -6,-20 -4,-5 -12,-9 -21,-12 -12,-3 -20,-3 -26,0 -6,3 -9,7 -10,12 -1,3 0,6 1,10 1,3 4,6 8,9 2,2 9,5 21,12 17,9 29,16 35,20 6,5 11,10 14,17 3,7 3,14 1,23 -2,8 -6,16 -13,22 -7,6 -15,11 -25,13 -10,2 -21,2 -33,-1 -19,-4 -33,-12 -42,-22 -8,-10 -12,-24 -12,-40z"/>
  </g>
  <g>
   <path id="4" fill="none" fill-rule="nonzero" stroke="white" stroke-width="41.9258" d="M8283 5654l24 9c-7,17 -16,28 -30,36 -13,7 -28,9 -45,5 -20,-5 -35,-15 -45,-31 -9,-16 -11,-37 -6,-62 4,-16 9,-30 17,-41 8,-11 18,-18 31,-22 12,-4 25,-4 38,-1 16,4 29,11 37,21 9,11 13,24 12,39l-25 -2c0,-11 -3,-19 -7,-25 -5,-6 -11,-11 -20,-12 -13,-3 -24,-1 -34,7 -10,7 -17,21 -22,41 -4,20 -4,36 2,46 6,11 15,18 27,20 10,2 19,1 27,-4 8,-5 14,-13 19,-25z"/>
  </g>
  <g>
   <path id="5" fill="none" fill-rule="nonzero" stroke="white" stroke-width="41.9258" d="M8317 5720l33 -150 23 5 -5 23c8,-9 15,-15 21,-17 6,-2 11,-3 17,-1 9,2 17,7 24,14l-14 22c-5,-5 -11,-8 -17,-10 -6,-1 -11,-1 -16,2 -5,2 -9,6 -13,12 -5,8 -8,18 -11,29l-17 78 -25 -6z"/>
  </g>
  <g>
   <path id="6" fill="none" fill-rule="nonzero" stroke="white" stroke-width="41.9258" d="M8454 5564l6 -29 25 6 -6 29 -25 -6zm-40 177l33 -150 25 6 -33 150 -25 -6z"/>
  </g>
  <g>
   <path id="7" fill="none" fill-rule="nonzero" stroke="white" stroke-width="41.9258" d="M8501 5762l-24 -5 46 -207 25 6 -16 74c14,-11 29,-15 46,-11 9,2 18,6 25,11 7,6 13,12 17,20 4,8 6,17 7,27 1,10 0,21 -2,31 -6,26 -16,44 -32,55 -16,11 -33,15 -50,11 -18,-4 -30,-14 -37,-31l-4 19zm17 -76c-4,18 -4,31 -1,41 5,15 14,24 28,27 11,2 22,0 32,-8 10,-8 17,-21 22,-40 4,-20 4,-35 -2,-46 -6,-11 -14,-18 -25,-20 -11,-2 -22,0 -32,8 -10,8 -17,21 -21,39z"/>
  </g>
  <g>
   <path id="8" fill="none" fill-rule="nonzero" stroke="white" stroke-width="41.9258" d="M8752 5767l26 9c-8,14 -18,25 -31,31 -13,6 -28,7 -46,3 -22,-5 -38,-16 -48,-32 -10,-16 -12,-37 -7,-61 6,-25 16,-43 33,-54 16,-11 34,-14 55,-10 20,5 35,15 45,31 10,16 12,37 6,62 0,2 -1,4 -2,7l-112 -25c-3,17 -1,30 6,41 6,11 16,17 28,20 9,2 18,1 25,-2 8,-3 15,-10 21,-20zm-74 -60l84 19c2,-13 1,-23 -3,-31 -6,-12 -15,-19 -28,-22 -12,-3 -22,-1 -32,5 -10,6 -16,15 -20,28z"/>
  </g>
  <g>
   <path id="9" fill="none" fill-rule="nonzero" stroke="white" stroke-width="41.9258" d="M9044 5861c11,12 21,21 31,27l-12 17c-14,-9 -27,-20 -39,-35 -17,5 -35,6 -54,2 -19,-4 -35,-12 -48,-25 -13,-12 -22,-28 -27,-46 -5,-18 -5,-38 0,-58 5,-20 13,-38 25,-53 12,-15 27,-25 44,-30 17,-5 35,-6 54,-2 19,4 35,13 49,25 13,12 22,28 27,46 4,18 4,37 0,58 -4,17 -10,32 -18,44 -8,12 -19,22 -31,30zm-52 -48c15,8 26,17 35,28 19,-11 32,-31 39,-61 4,-17 4,-32 1,-46 -3,-14 -9,-25 -18,-35 -9,-9 -21,-16 -35,-19 -20,-4 -39,-1 -55,10 -17,11 -28,30 -34,58 -6,27 -4,49 6,66 10,17 25,28 46,33 10,2 19,2 29,1 -7,-7 -15,-13 -24,-18l11 -18z"/>
  </g>
  <g>
   <path id="10" fill="none" fill-rule="nonzero" stroke="white" stroke-width="41.9258" d="M9111 5821c6,-28 18,-47 37,-56 15,-8 32,-10 51,-6 21,5 36,15 46,31 10,16 12,36 7,60 -4,19 -11,34 -19,44 -8,10 -19,16 -31,20 -12,4 -25,4 -38,1 -21,-5 -36,-15 -46,-32 -10,-16 -12,-37 -6,-62zm26 6c-4,19 -3,34 3,46 6,11 16,19 28,21 13,3 24,0 35,-7 11,-8 18,-21 22,-41 4,-18 3,-33 -3,-45 -6,-11 -16,-19 -28,-21 -13,-3 -24,0 -35,7 -10,8 -18,21 -22,40z"/>
  </g>
  <g>
   <path id="11" fill="none" fill-rule="nonzero" stroke="white" stroke-width="41.9258" d="M9273 5867l26 3c-1,11 0,20 3,27 3,8 9,15 17,21 8,6 19,11 30,13 10,2 20,3 29,2 9,-1 16,-4 21,-9 5,-5 8,-10 10,-16 1,-7 1,-13 -2,-18 -3,-6 -8,-11 -16,-16 -5,-3 -17,-9 -35,-18 -18,-9 -30,-16 -37,-22 -9,-7 -15,-15 -18,-24 -3,-9 -4,-18 -2,-27 2,-10 7,-20 15,-27 8,-8 18,-13 31,-15 12,-2 26,-2 39,1 15,3 28,9 39,16 11,8 18,17 22,28 4,11 5,23 3,35l-27 -4c1,-13 -1,-24 -8,-33 -7,-8 -18,-14 -34,-18 -17,-4 -29,-3 -38,1 -9,4 -14,11 -16,19 -2,7 0,14 4,20 4,6 17,14 38,24 21,10 35,18 43,23 11,8 18,17 22,27 4,10 5,20 2,31 -2,11 -8,21 -16,29 -8,8 -19,14 -32,17 -13,3 -27,3 -42,-1 -19,-4 -34,-10 -45,-19 -11,-8 -19,-19 -24,-31 -5,-13 -6,-26 -3,-40z"/>
  </g>
  <g transform="matrix(0.975246 0.221124 -0.221124 0.975246 2722.69 -500.864)">
   <text x="6040" y="4830" id="11" fill="#00CCFF" font-weight="normal" font-size="295.804px" font-family="Arial">subscribe QoS</text>
  </g>
  <text x="10373" y="6717"  fill="#00CCFF" font-weight="normal" font-size="118.323px" font-family="Arial">/lorem/amet   QoS=1</text>
  <g>
   <path fill="#FF6600" fill-rule="nonzero" d="M5039 1266l-344 121 40 -323 303 202zm-3346 -482l3034 379 -16 125 -3034 -379 16 -125z"/>
  </g>
  <rect fill="#FFFF99" stroke="black" stroke-width="16.7703" x="8" y="428" width="1677" height="839"/>
  <text x="329" y="869"  fill="black" font-weight="normal" font-size="295.804px" font-family="Arial">Client X</text>
  <rect fill="#CCFF66" stroke="black" stroke-width="16.7703" x="5039" y="1057" width="1677" height="839" rx="168" ry="168"/>
  <text x="5410" y="1498"  fill="black" font-weight="normal" font-size="295.804px" font-family="Arial">Topic 1</text>
  <text x="5696" y="1717"  fill="gray" font-weight="normal" font-size="118.323px" font-family="Arial">/boring</text>
  <text x="665" y="1088"  fill="#FF6600" font-weight="normal" font-size="118.323px" font-family="Arial">/boring</text>
  <g>
   <path fill="none" fill-rule="nonzero" stroke="white" stroke-width="41.9258" d="M2827 1009l26 -210 24 3 -2 20c6,-7 13,-12 21,-15 7,-3 16,-4 26,-3 13,2 24,6 33,14 9,8 15,18 19,31 4,13 4,26 3,41 -2,16 -6,29 -14,41 -7,12 -16,20 -28,26 -11,5 -23,7 -35,6 -9,-1 -16,-4 -22,-8 -6,-4 -11,-10 -15,-16l-9 74 -26 -3zm40 -131c-2,20 0,35 7,45 7,10 16,16 27,18 11,1 22,-2 31,-11 9,-9 15,-23 18,-44 2,-19 0,-34 -7,-45 -7,-11 -16,-17 -27,-18 -11,-1 -21,3 -31,12 -10,9 -16,24 -18,43z"/>
  </g>
  <g>
   <path id="1" fill="none" fill-rule="nonzero" stroke="white" stroke-width="41.9258" d="M3097 983l3 -22c-14,16 -31,22 -51,20 -9,-1 -17,-4 -25,-8 -7,-4 -13,-9 -16,-15 -3,-6 -5,-12 -6,-20 0,-5 0,-13 1,-24l12 -94 26 3 -10 84c-2,14 -2,23 -2,27 1,7 4,13 8,17 5,5 11,7 19,8 8,1 15,0 23,-3 7,-3 13,-8 16,-14 4,-6 6,-16 8,-29l10 -82 26 3 -19 152 -23 -3z"/>
  </g>
  <g>
   <path id="2" fill="none" fill-rule="nonzero" stroke="white" stroke-width="41.9258" d="M3184 994l-24 -3 26 -210 26 3 -9 75c13,-12 27,-17 44,-15 9,1 18,4 26,9 8,5 14,11 19,18 5,8 8,16 10,26 2,10 2,21 1,32 -3,26 -12,45 -27,58 -15,13 -31,18 -49,16 -18,-2 -31,-11 -40,-28l-2 19zm9 -77c-2,18 -1,32 3,40 7,14 17,22 31,24 11,1 22,-2 31,-11 9,-9 15,-23 18,-42 2,-20 0,-35 -6,-45 -7,-10 -16,-16 -27,-18 -11,-1 -22,2 -31,11 -9,9 -15,22 -18,41z"/>
  </g>
  <g>
   <polygon id="3" fill="none" fill-rule="nonzero" stroke="white" stroke-width="41.9258" points="3323,1011 3349,801 3375,804 3349,1014 "/>
  </g>
  <g>
   <path id="4" fill="none" fill-rule="nonzero" stroke="white" stroke-width="41.9258" d="M3411 839l4 -30 26 3 -4 30 -26 -3zm-22 180l19 -152 26 3 -19 152 -26 -3z"/>
  </g>
  <g>
   <path id="5" fill="none" fill-rule="nonzero" stroke="white" stroke-width="41.9258" d="M3450 981l26 -1c0,10 3,19 9,25 6,6 15,10 26,12 12,1 21,0 27,-4 6,-4 10,-9 11,-16 1,-6 -1,-11 -6,-15 -3,-3 -12,-7 -25,-12 -18,-7 -31,-13 -38,-17 -7,-4 -12,-10 -15,-16 -3,-7 -4,-14 -3,-21 1,-7 3,-13 7,-18 4,-5 9,-10 14,-13 4,-2 10,-4 17,-6 7,-1 15,-1 23,0 12,1 22,4 31,9 9,5 15,10 18,16 4,6 6,15 6,25l-26 0c0,-8 -3,-14 -8,-20 -5,-5 -12,-8 -22,-9 -12,-1 -21,-1 -26,3 -6,3 -9,8 -9,13 0,3 0,7 2,9 2,3 5,6 9,8 2,1 10,4 22,9 18,7 30,13 37,17 7,4 12,9 15,16 3,6 5,14 3,23 -1,9 -5,16 -10,23 -6,7 -14,12 -24,15 -10,3 -21,4 -33,2 -20,-2 -34,-8 -44,-18 -9,-10 -14,-22 -15,-39z"/>
  </g>
  <g>
   <path id="6" fill="none" fill-rule="nonzero" stroke="white" stroke-width="41.9258" d="M3601 1045l26 -210 26 3 -9 75c14,-12 30,-18 48,-15 11,1 21,5 29,10 8,5 13,12 16,21 3,8 3,20 1,35l-12 96 -26 -3 12 -96c2,-13 0,-23 -5,-29 -5,-7 -12,-10 -23,-12 -8,-1 -15,0 -22,3 -7,3 -13,8 -16,14 -4,6 -6,16 -8,28l-10 83 -26 -3z"/>
  </g>
  <g transform="matrix(0.992546 0.121869 -0.121869 0.992546 -3089.33 -4642.37)">
   <text x="6541" y="4830" id="6" fill="#FF6600" font-weight="normal" font-size="295.804px" font-family="Arial">publish</text>
  </g>
  <path fill="#FF6600" fill-rule="nonzero" d="M6687 1461l-27 0 0 308c0,6 -1,11 -3,16 -2,5 -5,9 -9,13 -4,4 -8,7 -13,9 -5,2 -10,3 -16,3l-214 0c-6,0 -11,-1 -16,-3 -5,-2 -9,-5 -13,-9 -4,-4 -7,-8 -9,-13 -2,-5 -3,-10 -3,-16l0 -308 -27 0 0 -27 107 0 0 -27c0,-4 1,-7 2,-10 1,-3 3,-6 6,-9 2,-2 5,-4 9,-6 3,-1 7,-2 10,-2l80 0c4,0 7,1 10,2 3,1 6,3 9,6 2,2 4,5 6,9 1,3 2,7 2,10l0 27 107 0 0 27zm-214 -27l80 0 0 -27 -80 0 0 27zm161 27l-241 0 0 308c0,4 1,7 4,9 3,3 6,4 9,4l214 0c4,0 7,-1 9,-4 3,-3 4,-6 4,-9l0 -308zm-161 268l-27 0 0 -214 27 0 0 214zm54 0l-27 0 0 -214 27 0 0 214zm54 0l-27 0 0 -214 27 0 0 214z"/>
  <rect fill="#CCFF66" stroke="black" stroke-width="16.7703" x="5039" y="7345" width="1677" height="839" rx="168" ry="168"/>
  <text x="5410" y="7787"  fill="black" font-weight="normal" font-size="295.804px" font-family="Arial">Topic 6</text>
  <rect fill="#FFFF99" stroke="black" stroke-width="16.7703" x="10071" y="7345" width="1677" height="839"/>
  <text x="10400" y="7787"  fill="black" font-weight="normal" font-size="295.804px" font-family="Arial">Client Z</text>
  <text x="5162" y="8056"  fill="gray" font-weight="normal" font-size="118.323px" font-family="Arial">/lorem/important   Retain=1</text>
  <g>
   <path fill="none" fill-rule="nonzero" stroke="white" stroke-width="41.9258" d="M7553 7620l26 -4c1,10 5,18 12,24 7,5 16,8 28,8 12,0 21,-2 27,-7 6,-5 9,-11 9,-17 0,-6 -3,-11 -8,-14 -4,-2 -13,-5 -27,-9 -19,-5 -32,-9 -40,-12 -7,-4 -13,-8 -17,-15 -4,-6 -6,-13 -6,-21 0,-7 2,-13 5,-19 3,-6 7,-11 13,-14 4,-3 10,-5 17,-8 7,-2 14,-3 22,-3 12,0 23,2 32,5 9,3 16,8 20,14 4,6 7,14 9,24l-25 4c-1,-8 -4,-14 -10,-19 -6,-4 -13,-7 -23,-7 -12,0 -20,2 -25,6 -5,4 -8,9 -8,14 0,3 1,6 3,9 2,3 5,5 10,7 3,1 10,3 23,7 18,5 31,9 38,12 7,3 13,8 17,14 4,6 6,13 6,22 0,9 -3,17 -8,24 -5,8 -12,14 -22,18 -10,4 -20,6 -32,6 -20,0 -35,-4 -46,-12 -10,-8 -17,-21 -20,-37z"/>
  </g>
  <g>
   <path id="1" fill="none" fill-rule="nonzero" stroke="white" stroke-width="41.9258" d="M7811 7666l0 -23c-12,17 -28,26 -49,26 -9,0 -17,-2 -25,-5 -8,-4 -14,-8 -17,-13 -4,-5 -6,-12 -8,-19 -1,-5 -2,-13 -2,-24l0 -95 26 0 0 85c0,14 1,23 2,27 2,7 5,12 10,16 5,4 12,6 20,6 8,0 15,-2 22,-6 7,-4 12,-9 14,-16 3,-7 4,-17 4,-30l0 -82 26 0 0 154 -23 0z"/>
  </g>
  <g>
   <path id="2" fill="none" fill-rule="nonzero" stroke="white" stroke-width="41.9258" d="M7900 7666l-24 0 0 -212 26 0 0 76c11,-14 25,-21 42,-21 9,0 18,2 27,6 8,4 15,9 21,16 5,7 10,15 13,25 3,10 5,20 5,31 0,26 -7,47 -19,61 -13,14 -29,21 -47,21 -18,0 -32,-8 -43,-23l0 19zm0 -78c0,18 3,32 7,40 8,13 19,20 33,20 11,0 21,-5 29,-15 8,-10 12,-25 12,-44 0,-20 -4,-35 -12,-44 -8,-10 -18,-14 -29,-14 -11,0 -21,5 -29,15 -8,10 -12,24 -12,43z"/>
  </g>
  <g>
   <path id="3" fill="none" fill-rule="nonzero" stroke="white" stroke-width="41.9258" d="M8030 7620l26 -4c1,10 5,18 12,24 7,5 16,8 28,8 12,0 21,-2 27,-7 6,-5 9,-11 9,-17 0,-6 -3,-11 -8,-14 -4,-2 -13,-5 -27,-9 -19,-5 -32,-9 -40,-12 -7,-4 -13,-8 -17,-15 -4,-6 -6,-13 -6,-21 0,-7 2,-13 5,-19 3,-6 7,-11 13,-14 4,-3 10,-5 17,-8 7,-2 14,-3 22,-3 12,0 23,2 32,5 9,3 16,8 20,14 4,6 7,14 9,24l-25 4c-1,-8 -4,-14 -10,-19 -6,-4 -13,-7 -23,-7 -12,0 -20,2 -25,6 -5,4 -8,9 -8,14 0,3 1,6 3,9 2,3 5,5 10,7 3,1 10,3 23,7 18,5 31,9 38,12 7,3 13,8 17,14 4,6 6,13 6,22 0,9 -3,17 -8,24 -5,8 -12,14 -22,18 -10,4 -20,6 -32,6 -20,0 -35,-4 -46,-12 -10,-8 -17,-21 -20,-37z"/>
  </g>
  <g>
   <path id="4" fill="none" fill-rule="nonzero" stroke="white" stroke-width="41.9258" d="M8288 7609l25 4c-3,17 -10,31 -21,41 -11,10 -26,15 -42,15 -21,0 -38,-7 -51,-21 -13,-14 -19,-33 -19,-59 0,-17 3,-31 8,-43 5,-12 14,-22 25,-28 11,-6 23,-9 37,-9 17,0 30,4 41,13 11,8 17,20 20,36l-25 4c-2,-10 -7,-18 -13,-23 -6,-5 -14,-8 -22,-8 -13,0 -24,5 -32,14 -8,9 -12,24 -12,45 0,21 4,36 12,45 8,9 18,14 31,14 10,0 19,-3 26,-9 7,-6 11,-16 13,-29z"/>
  </g>
  <g>
   <path id="5" fill="none" fill-rule="nonzero" stroke="white" stroke-width="41.9258" d="M8336 7666l0 -154 23 0 0 24c6,-11 11,-18 17,-22 5,-3 11,-5 17,-5 9,0 18,3 27,8l-9 24c-6,-4 -13,-5 -19,-5 -6,0 -11,2 -15,5 -4,3 -8,8 -10,14 -3,9 -4,19 -4,30l0 80 -26 0z"/>
  </g>
  <g>
   <path id="6" fill="none" fill-rule="nonzero" stroke="white" stroke-width="41.9258" d="M8434 7483l0 -30 26 0 0 30 -26 0zm0 182l0 -154 26 0 0 154 -26 0z"/>
  </g>
  <g>
   <path id="7" fill="none" fill-rule="nonzero" stroke="white" stroke-width="41.9258" d="M8524 7666l-24 0 0 -212 26 0 0 76c11,-14 25,-21 42,-21 9,0 18,2 27,6 8,4 15,9 21,16 5,7 10,15 13,25 3,10 5,20 5,31 0,26 -7,47 -19,61 -13,14 -29,21 -47,21 -18,0 -32,-8 -43,-23l0 19zm0 -78c0,18 3,32 7,40 8,13 19,20 33,20 11,0 21,-5 29,-15 8,-10 12,-25 12,-44 0,-20 -4,-35 -12,-44 -8,-10 -18,-14 -29,-14 -11,0 -21,5 -29,15 -8,10 -12,24 -12,43z"/>
  </g>
  <g>
   <path id="8" fill="none" fill-rule="nonzero" stroke="white" stroke-width="41.9258" d="M8769 7616l27 4c-4,16 -12,28 -23,36 -11,9 -26,13 -44,13 -22,0 -40,-7 -53,-21 -13,-14 -20,-33 -20,-58 0,-26 7,-46 20,-60 13,-14 30,-21 52,-21 20,0 37,7 50,21 13,14 19,34 19,59 0,2 0,4 0,7l-114 0c1,17 6,30 14,39 9,9 19,13 32,13 10,0 18,-3 24,-8 7,-5 12,-13 16,-24zm-85 -42l85 0c-1,-13 -4,-23 -10,-29 -8,-10 -19,-15 -32,-15 -12,0 -22,4 -30,12 -8,8 -13,19 -13,32z"/>
  </g>
  <g>
   <path id="9" fill="none" fill-rule="nonzero" stroke="white" stroke-width="41.9258" d="M9075 7643c13,9 25,15 36,20l-8 20c-15,-5 -30,-14 -46,-26 -16,9 -33,13 -52,13 -19,0 -36,-5 -52,-14 -16,-9 -28,-22 -36,-39 -8,-17 -13,-36 -13,-57 0,-21 4,-40 13,-57 8,-17 21,-30 36,-39 16,-9 33,-13 52,-13 20,0 37,5 53,14 16,9 28,22 36,39 8,17 12,35 12,56 0,17 -3,33 -8,47 -5,14 -13,26 -24,36zm-62 -36c16,5 29,11 40,20 16,-15 25,-38 25,-68 0,-17 -3,-32 -9,-45 -6,-13 -14,-23 -25,-30 -11,-7 -24,-11 -38,-11 -21,0 -38,7 -52,21 -14,14 -21,36 -21,64 0,27 7,49 20,63 14,15 31,22 52,22 10,0 19,-2 28,-6 -9,-6 -18,-10 -28,-12l7 -20z"/>
  </g>
  <g>
   <path id="10" fill="none" fill-rule="nonzero" stroke="white" stroke-width="41.9258" d="M9132 7589c0,-28 8,-49 24,-63 13,-11 29,-17 48,-17 21,0 38,7 52,21 13,14 20,33 20,57 0,20 -3,35 -9,46 -6,11 -15,20 -26,26 -11,6 -24,9 -37,9 -21,0 -39,-7 -52,-21 -13,-14 -20,-34 -20,-59zm27 0c0,20 4,34 13,44 9,10 19,15 32,15 13,0 24,-5 32,-15 9,-10 13,-25 13,-45 0,-19 -4,-33 -13,-43 -9,-10 -19,-15 -32,-15 -13,0 -24,5 -32,15 -9,10 -13,24 -13,44z"/>
  </g>
  <g>
   <path id="11" fill="none" fill-rule="nonzero" stroke="white" stroke-width="41.9258" d="M9300 7598l26 -2c1,11 4,19 9,26 5,7 12,12 21,17 10,4 20,6 32,6 11,0 20,-2 28,-5 8,-3 14,-8 18,-13 4,-6 6,-12 6,-18 0,-7 -2,-12 -6,-17 -4,-5 -10,-9 -19,-12 -6,-2 -18,-6 -38,-10 -19,-5 -33,-9 -41,-13 -10,-5 -18,-12 -23,-20 -5,-8 -7,-17 -7,-26 0,-11 3,-21 9,-30 6,-9 15,-16 27,-21 12,-5 25,-7 39,-7 16,0 30,3 42,8 12,5 21,12 28,22 6,10 10,21 10,33l-27 2c-1,-13 -6,-23 -15,-30 -8,-7 -21,-10 -37,-10 -17,0 -29,3 -37,9 -8,6 -12,14 -12,22 0,8 3,14 8,19 5,5 19,10 42,15 23,5 38,10 47,14 12,6 21,13 27,22 6,9 9,19 9,30 0,11 -3,22 -10,32 -6,10 -16,18 -28,23 -12,6 -26,8 -41,8 -19,0 -35,-3 -48,-8 -13,-6 -23,-14 -30,-25 -7,-11 -11,-24 -12,-38z"/>
  </g>
  <g transform="matrix(1 0 0 1 1503.74 2835.71)">
   <text x="6040" y="4830" id="11" fill="#00CCFF" font-weight="normal" font-size="295.804px" font-family="Arial">subscribe QoS</text>
  </g>
  <text x="10493" y="8014"  fill="#00CCFF" font-weight="normal" font-size="118.323px" font-family="Arial">/lorem/important</text>
  <g>
   <path fill="#CCCCCC" fill-rule="nonzero" d="M5039 7765l-326 163 0 -326 326 163zm-3354 -63l3032 0 0 126 -3032 0 0 -126z"/>
  </g>
  <g>
   <path fill="none" fill-rule="nonzero" stroke="white" stroke-width="41.9258" d="M2277 7724l0 -212 24 0 0 20c6,-8 12,-14 19,-18 7,-4 16,-6 26,-6 13,0 25,3 35,10 10,7 18,16 23,28 5,12 8,26 8,40 0,16 -3,30 -8,42 -6,13 -14,22 -25,29 -11,7 -22,10 -34,10 -9,0 -16,-2 -23,-5 -7,-4 -13,-8 -17,-14l0 75 -26 0zm24 -135c0,20 4,34 12,44 8,9 18,14 29,14 12,0 21,-5 30,-15 8,-10 12,-25 12,-45 0,-20 -4,-34 -12,-44 -8,-10 -18,-15 -29,-15 -11,0 -21,5 -29,15 -9,10 -13,25 -13,45z"/>
  </g>
  <g>
   <path id="1" fill="none" fill-rule="nonzero" stroke="white" stroke-width="41.9258" d="M2542 7666l0 -23c-12,17 -28,26 -49,26 -9,0 -17,-2 -25,-5 -8,-4 -14,-8 -17,-13 -4,-5 -6,-12 -8,-19 -1,-5 -2,-13 -2,-24l0 -95 26 0 0 85c0,14 1,23 2,27 2,7 5,12 10,16 5,4 12,6 20,6 8,0 15,-2 22,-6 7,-4 12,-9 14,-16 3,-7 4,-17 4,-30l0 -82 26 0 0 154 -23 0z"/>
  </g>
  <g>
   <path id="2" fill="none" fill-rule="nonzero" stroke="white" stroke-width="41.9258" d="M2630 7666l-24 0 0 -212 26 0 0 76c11,-14 25,-21 42,-21 9,0 18,2 27,6 8,4 15,9 21,16 5,7 10,15 13,25 3,10 5,20 5,31 0,26 -7,47 -19,61 -13,14 -29,21 -47,21 -18,0 -32,-8 -43,-23l0 19zm0 -78c0,18 3,32 7,40 8,13 19,20 33,20 11,0 21,-5 29,-15 8,-10 12,-25 12,-44 0,-20 -4,-35 -12,-44 -8,-10 -18,-14 -29,-14 -11,0 -21,5 -29,15 -8,10 -12,24 -12,43z"/>
  </g>
  <g>
   <polygon id="3" fill="none" fill-rule="nonzero" stroke="white" stroke-width="41.9258" points="2770,7666 2770,7454 2796,7454 2796,7666 "/>
  </g>
  <g>
   <path id="4" fill="none" fill-rule="nonzero" stroke="white" stroke-width="41.9258" d="M2836 7483l0 -30 26 0 0 30 -26 0zm0 182l0 -154 26 0 0 154 -26 0z"/>
  </g>
  <g>
   <path id="5" fill="none" fill-rule="nonzero" stroke="white" stroke-width="41.9258" d="M2892 7620l26 -4c1,10 5,18 12,24 7,5 16,8 28,8 12,0 21,-2 27,-7 6,-5 9,-11 9,-17 0,-6 -3,-11 -8,-14 -4,-2 -13,-5 -27,-9 -19,-5 -32,-9 -40,-12 -7,-4 -13,-8 -17,-15 -4,-6 -6,-13 -6,-21 0,-7 2,-13 5,-19 3,-6 7,-11 13,-14 4,-3 10,-5 17,-8 7,-2 14,-3 22,-3 12,0 23,2 32,5 9,3 16,8 20,14 4,6 7,14 9,24l-25 4c-1,-8 -4,-14 -10,-19 -6,-4 -13,-7 -23,-7 -12,0 -20,2 -25,6 -5,4 -8,9 -8,14 0,3 1,6 3,9 2,3 5,5 10,7 3,1 10,3 23,7 18,5 31,9 38,12 7,3 13,8 17,14 4,6 6,13 6,22 0,9 -3,17 -8,24 -5,8 -12,14 -22,18 -10,4 -20,6 -32,6 -20,0 -35,-4 -46,-12 -10,-8 -17,-21 -20,-37z"/>
  </g>
  <g>
   <path id="6" fill="none" fill-rule="nonzero" stroke="white" stroke-width="41.9258" d="M3050 7666l0 -212 26 0 0 76c12,-14 27,-21 46,-21 11,0 21,2 29,7 8,4 14,11 18,19 4,8 5,19 5,34l0 97 -26 0 0 -97c0,-13 -3,-22 -8,-28 -6,-6 -14,-9 -24,-9 -8,0 -15,2 -22,6 -7,4 -12,9 -14,16 -3,7 -4,16 -4,28l0 84 -26 0z"/>
  </g>
  <g>
   <path id="7" fill="none" fill-rule="nonzero" stroke="white" stroke-width="41.9258" d="M3460 7643c13,9 25,15 36,20l-8 20c-15,-5 -30,-14 -46,-26 -16,9 -33,13 -52,13 -19,0 -36,-5 -52,-14 -16,-9 -28,-22 -36,-39 -8,-17 -13,-36 -13,-57 0,-21 4,-40 13,-57 8,-17 21,-30 36,-39 16,-9 33,-13 52,-13 20,0 37,5 53,14 16,9 28,22 36,39 8,17 12,35 12,56 0,17 -3,33 -8,47 -5,14 -13,26 -24,36zm-62 -36c16,5 29,11 40,20 16,-15 25,-38 25,-68 0,-17 -3,-32 -9,-45 -6,-13 -14,-23 -25,-30 -11,-7 -24,-11 -38,-11 -21,0 -38,7 -52,21 -14,14 -21,36 -21,64 0,27 7,49 20,63 14,15 31,22 52,22 10,0 19,-2 28,-6 -9,-6 -18,-10 -28,-12l7 -20z"/>
  </g>
  <g>
   <path id="8" fill="none" fill-rule="nonzero" stroke="white" stroke-width="41.9258" d="M3517 7589c0,-28 8,-49 24,-63 13,-11 29,-17 48,-17 21,0 38,7 52,21 13,14 20,33 20,57 0,20 -3,35 -9,46 -6,11 -15,20 -26,26 -11,6 -24,9 -37,9 -21,0 -39,-7 -52,-21 -13,-14 -20,-34 -20,-59zm27 0c0,20 4,34 13,44 9,10 19,15 32,15 13,0 24,-5 32,-15 9,-10 13,-25 13,-45 0,-19 -4,-33 -13,-43 -9,-10 -19,-15 -32,-15 -13,0 -24,5 -32,15 -9,10 -13,24 -13,44z"/>
  </g>
  <g>
   <path id="9" fill="none" fill-rule="nonzero" stroke="white" stroke-width="41.9258" d="M3685 7598l26 -2c1,11 4,19 9,26 5,7 12,12 21,17 10,4 20,6 32,6 11,0 20,-2 28,-5 8,-3 14,-8 18,-13 4,-6 6,-12 6,-18 0,-7 -2,-12 -6,-17 -4,-5 -10,-9 -19,-12 -6,-2 -18,-6 -38,-10 -19,-5 -33,-9 -41,-13 -10,-5 -18,-12 -23,-20 -5,-8 -7,-17 -7,-26 0,-11 3,-21 9,-30 6,-9 15,-16 27,-21 12,-5 25,-7 39,-7 16,0 30,3 42,8 12,5 21,12 28,22 6,10 10,21 10,33l-27 2c-1,-13 -6,-23 -15,-30 -8,-7 -21,-10 -37,-10 -17,0 -29,3 -37,9 -8,6 -12,14 -12,22 0,8 3,14 8,19 5,5 19,10 42,15 23,5 38,10 47,14 12,6 21,13 27,22 6,9 9,19 9,30 0,11 -3,22 -10,32 -6,10 -16,18 -28,23 -12,6 -26,8 -41,8 -19,0 -35,-3 -48,-8 -13,-6 -23,-14 -30,-25 -7,-11 -11,-24 -12,-38z"/>
  </g>
  <g transform="matrix(1 0 0 1 -3946.62 2835.71)">
   <text x="6204" y="4830" id="9" fill="#CCCCFF" font-weight="normal" font-size="295.804px" font-family="Arial">publish QoS</text>
  </g>
  <rect fill="#F4F4F4" stroke="#999999" stroke-width="16.7703" x="8" y="7345" width="1677" height="839"/>
  <text x="332" y="7787"  fill="#CCCCFF" font-weight="normal" font-size="295.804px" font-family="Arial">Client Y</text>
  <text x="143" y="8014"  fill="#CCCCCC" font-weight="normal" font-size="118.323px" font-family="Arial">/lorem/important   Retain=1</text>
  <g>
   <ellipse fill="#FF6600" cx="5238" cy="7468" rx="142" ry="42"/>
   <path fill="#FF6600" d="M5380 7553c0,23 -63,42 -142,42 -78,0 -142,-19 -142,-42l0 -55c29,18 81,29 142,29 60,0 113,-12 142,-29l0 55z"/>
   <path fill="#FF6600" d="M5380 7638c0,23 -63,42 -142,42 -78,0 -142,-19 -142,-42l0 -55c29,18 81,29 142,29 60,0 113,-12 142,-29l0 55z"/>
   <path fill="#FF6600" d="M5380 7723c0,23 -63,42 -142,42 -78,0 -142,-19 -142,-42l0 -55c29,18 81,29 142,29 60,0 113,-12 142,-29l0 55z"/>
  </g>
 </g>
</svg>
